<svg width="132" height="45" viewBox="0 0 132 45" fill="none" xmlns="http://www.w3.org/2000/svg">
<g id="Mobile app store badge">
<rect x="0.5" y="0.890137" width="131" height="43" rx="7.5" fill="black"/>
<rect x="0.5" y="0.890137" width="131" height="43" rx="7.5" stroke="#535862"/>
<g id="App Store">
<path d="M89.6784 21.511V24.0312H88.0988V25.6838H89.6784V31.2993C89.6784 33.2168 90.5459 33.9838 92.7281 33.9838C93.1116 33.9838 93.4769 33.9381 93.7965 33.8833V32.2489C93.5225 32.2763 93.349 32.2946 93.0477 32.2946C92.0707 32.2946 91.6416 31.838 91.6416 30.7971V25.6838H93.7965V24.0312H91.6416V21.511H89.6784Z" fill="white"/>
<path d="M99.3557 34.1207C102.259 34.1207 104.04 32.1759 104.04 28.9527C104.04 25.7478 102.25 23.7937 99.3557 23.7937C96.4521 23.7937 94.6624 25.7478 94.6624 28.9527C94.6624 32.1759 96.443 34.1207 99.3557 34.1207ZM99.3557 32.3768C97.6482 32.3768 96.6895 31.1258 96.6895 28.9527C96.6895 26.7978 97.6482 25.5377 99.3557 25.5377C101.054 25.5377 102.022 26.7978 102.022 28.9527C102.022 31.1167 101.054 32.3768 99.3557 32.3768Z" fill="white"/>
<path d="M105.563 33.929H107.526V28.0579C107.526 26.6608 108.576 25.7204 110.065 25.7204C110.412 25.7204 110.996 25.7843 111.16 25.8391V23.9033C110.95 23.8485 110.576 23.8211 110.284 23.8211C108.987 23.8211 107.882 24.5333 107.599 25.5103H107.453V23.9855H105.563V33.929Z" fill="white"/>
<path d="M116.035 25.4647C117.487 25.4647 118.436 26.4782 118.482 28.0396H113.46C113.57 26.4874 114.583 25.4647 116.035 25.4647ZM118.473 31.2445C118.108 32.0207 117.295 32.4498 116.108 32.4498C114.537 32.4498 113.524 31.345 113.46 29.601V29.4914H120.482V28.8066C120.482 25.6838 118.811 23.7937 116.044 23.7937C113.241 23.7937 111.46 25.8117 111.46 28.9892C111.46 32.1667 113.204 34.1207 116.053 34.1207C118.327 34.1207 119.915 33.025 120.363 31.2445H118.473Z" fill="white"/>
<path d="M76.8045 30.257C76.9559 32.6987 78.9907 34.2602 82.0191 34.2602C85.2557 34.2602 87.281 32.623 87.281 30.011C87.281 27.9573 86.1264 26.8216 83.3251 26.1686L81.8203 25.7995C80.0411 25.3831 79.3219 24.8248 79.3219 23.85C79.3219 22.6197 80.4386 21.8153 82.1137 21.8153C83.7037 21.8153 84.8015 22.6008 85.0002 23.8594H87.0633C86.9403 21.5597 84.915 19.9414 82.1421 19.9414C79.161 19.9414 77.1736 21.5597 77.1736 23.9919C77.1736 25.9983 78.2998 27.1907 80.7699 27.768L82.5301 28.1939C84.3377 28.6198 85.1327 29.2444 85.1327 30.2854C85.1327 31.4968 83.8835 32.3769 82.18 32.3769C80.3535 32.3769 79.0853 31.5536 78.9055 30.257H76.8045Z" fill="white"/>
<path d="M56.4684 23.8211C55.1171 23.8211 53.9483 24.4968 53.3457 25.6291H53.1996V23.9855H51.3095V37.2344H53.2726V32.4224H53.4279C53.9483 33.4725 55.0714 34.0934 56.4867 34.0934C58.9977 34.0934 60.5956 32.112 60.5956 28.9527C60.5956 25.7934 58.9977 23.8211 56.4684 23.8211ZM55.9114 32.3311C54.2679 32.3311 53.2361 31.0345 53.2361 28.9618C53.2361 26.88 54.2679 25.5834 55.9206 25.5834C57.5824 25.5834 58.5777 26.8526 58.5777 28.9527C58.5777 31.0619 57.5824 32.3311 55.9114 32.3311Z" fill="white"/>
<path d="M67.4649 23.8211C66.1135 23.8211 64.9448 24.4968 64.3422 25.6291H64.1961V23.9855H62.306V37.2344H64.2691V32.4224H64.4243C64.9448 33.4725 66.0679 34.0934 67.4832 34.0934C69.9942 34.0934 71.5921 32.112 71.5921 28.9527C71.5921 25.7934 69.9942 23.8211 67.4649 23.8211ZM66.9079 32.3311C65.2644 32.3311 64.2326 31.0345 64.2326 28.9618C64.2326 26.88 65.2644 25.5834 66.9171 25.5834C68.5789 25.5834 69.5741 26.8526 69.5741 28.9527C69.5741 31.0619 68.5789 32.3311 66.9079 32.3311Z" fill="white"/>
<path d="M47.7873 33.929H50.0397L45.109 20.2726H42.8282L37.8976 33.929H40.0742L41.3329 30.3043H46.5381L47.7873 33.929ZM43.8598 22.7522H44.0207L45.9986 28.5251H41.8724L43.8598 22.7522Z" fill="white"/>
</g>
<g id="Download on the">
<path d="M39.2163 9.97209V16.56H41.5949C43.558 16.56 44.6948 15.3502 44.6948 13.2455C44.6948 11.1728 43.5489 9.97209 41.5949 9.97209H39.2163ZM40.2389 10.9034H41.4807C42.8458 10.9034 43.6539 11.7709 43.6539 13.2592C43.6539 14.7704 42.8595 15.6287 41.4807 15.6287H40.2389V10.9034Z" fill="white"/>
<path d="M48.1764 16.6559C49.6282 16.6559 50.5184 15.6834 50.5184 14.0719C50.5184 12.4694 49.6236 11.4924 48.1764 11.4924C46.7246 11.4924 45.8297 12.4694 45.8297 14.0719C45.8297 15.6834 46.72 16.6559 48.1764 16.6559ZM48.1764 15.7839C47.3226 15.7839 46.8433 15.1584 46.8433 14.0719C46.8433 12.9944 47.3226 12.3644 48.1764 12.3644C49.0255 12.3644 49.5095 12.9944 49.5095 14.0719C49.5095 15.1539 49.0255 15.7839 48.1764 15.7839Z" fill="white"/>
<path d="M58.0998 11.5883H57.1182L56.2325 15.3821H56.1549L55.1323 11.5883H54.1918L53.1691 15.3821H53.0961L52.2058 11.5883H51.2106L52.5802 16.56H53.5892L54.6118 12.8985H54.6894L55.7166 16.56H56.7347L58.0998 11.5883Z" fill="white"/>
<path d="M59.2302 16.56H60.2118V13.6518C60.2118 12.8757 60.6729 12.3918 61.3988 12.3918C62.1247 12.3918 62.4716 12.789 62.4716 13.5879V16.56H63.4532V13.3414C63.4532 12.1589 62.8414 11.4924 61.732 11.4924C60.9833 11.4924 60.4903 11.8257 60.2483 12.3781H60.1752V11.5883H59.2302V16.56Z" fill="white"/>
<path d="M64.9991 16.56H65.9806V9.64795H64.9991V16.56Z" fill="white"/>
<path d="M69.6722 16.6559C71.1241 16.6559 72.0143 15.6834 72.0143 14.0719C72.0143 12.4694 71.1195 11.4924 69.6722 11.4924C68.2204 11.4924 67.3256 12.4694 67.3256 14.0719C67.3256 15.6834 68.2159 16.6559 69.6722 16.6559ZM69.6722 15.7839C68.8185 15.7839 68.3391 15.1584 68.3391 14.0719C68.3391 12.9944 68.8185 12.3644 69.6722 12.3644C70.5214 12.3644 71.0054 12.9944 71.0054 14.0719C71.0054 15.1539 70.5214 15.7839 69.6722 15.7839Z" fill="white"/>
<path d="M74.9389 15.8158C74.4048 15.8158 74.0167 15.5556 74.0167 15.1082C74.0167 14.6699 74.3272 14.4371 75.012 14.3914L76.2264 14.3138V14.7293C76.2264 15.3456 75.6785 15.8158 74.9389 15.8158ZM74.6878 16.6422C75.3407 16.6422 75.884 16.3591 76.1807 15.8615H76.2583V16.56H77.2034V13.1633C77.2034 12.1133 76.5003 11.4924 75.2539 11.4924C74.1263 11.4924 73.3228 12.0402 73.2223 12.894H74.1719C74.2815 12.5424 74.6604 12.3416 75.2083 12.3416C75.8794 12.3416 76.2264 12.6383 76.2264 13.1633V13.5925L74.8796 13.6701C73.6971 13.7431 73.0306 14.259 73.0306 15.1539C73.0306 16.0624 73.7291 16.6422 74.6878 16.6422Z" fill="white"/>
<path d="M80.5343 16.6422C81.2191 16.6422 81.7989 16.318 82.0957 15.7748H82.1733V16.56H83.1138V9.64795H82.1322V12.3781H82.0592C81.7898 11.8302 81.2146 11.5061 80.5343 11.5061C79.2788 11.5061 78.4707 12.5013 78.4707 14.0719C78.4707 15.6469 79.2697 16.6422 80.5343 16.6422ZM80.8128 12.3872C81.6346 12.3872 82.1505 13.0401 82.1505 14.0764C82.1505 15.1173 81.6392 15.7611 80.8128 15.7611C79.9819 15.7611 79.4843 15.1265 79.4843 14.0719C79.4843 13.0264 79.9865 12.3872 80.8128 12.3872Z" fill="white"/>
<path d="M89.4789 16.6559C90.9307 16.6559 91.821 15.6834 91.821 14.0719C91.821 12.4694 90.9262 11.4924 89.4789 11.4924C88.0271 11.4924 87.1323 12.4694 87.1323 14.0719C87.1323 15.6834 88.0225 16.6559 89.4789 16.6559ZM89.4789 15.7839C88.6252 15.7839 88.1458 15.1584 88.1458 14.0719C88.1458 12.9944 88.6252 12.3644 89.4789 12.3644C90.3281 12.3644 90.812 12.9944 90.812 14.0719C90.812 15.1539 90.3281 15.7839 89.4789 15.7839Z" fill="white"/>
<path d="M93.1203 16.56H94.1019V13.6518C94.1019 12.8757 94.563 12.3918 95.2889 12.3918C96.0148 12.3918 96.3618 12.789 96.3618 13.5879V16.56H97.3433V13.3414C97.3433 12.1589 96.7316 11.4924 95.6222 11.4924C94.8734 11.4924 94.3804 11.8257 94.1384 12.3781H94.0653V11.5883H93.1203V16.56Z" fill="white"/>
<path d="M101.864 10.351V11.6111H101.074V12.4374H101.864V15.2452C101.864 16.2039 102.298 16.5874 103.389 16.5874C103.581 16.5874 103.763 16.5646 103.923 16.5372V15.72C103.786 15.7337 103.699 15.7428 103.549 15.7428C103.06 15.7428 102.846 15.5145 102.846 14.9941V12.4374H103.923V11.6111H102.846V10.351H101.864Z" fill="white"/>
<path d="M105.241 16.56H106.222V13.6564C106.222 12.9031 106.67 12.3963 107.473 12.3963C108.167 12.3963 108.537 12.7981 108.537 13.5925V16.56H109.518V13.3505C109.518 12.1681 108.866 11.4969 107.806 11.4969C107.058 11.4969 106.533 11.8302 106.291 12.3872H106.213V9.64795H105.241V16.56Z" fill="white"/>
<path d="M113.059 12.3279C113.785 12.3279 114.26 12.8346 114.283 13.6153H111.772C111.827 12.8392 112.333 12.3279 113.059 12.3279ZM114.278 15.2178C114.096 15.6058 113.689 15.8204 113.096 15.8204C112.311 15.8204 111.804 15.268 111.772 14.396V14.3412H115.283V13.9988C115.283 12.4374 114.447 11.4924 113.064 11.4924C111.662 11.4924 110.772 12.5013 110.772 14.0901C110.772 15.6789 111.644 16.6559 113.068 16.6559C114.205 16.6559 115 16.108 115.223 15.2178H114.278Z" fill="white"/>
</g>
<g id="Apple logo">
<path d="M27.2459 22.7208C27.2697 20.8717 28.2628 19.1221 29.8381 18.1536C28.8443 16.7342 27.1797 15.8343 25.4478 15.7801C23.6007 15.5862 21.8099 16.8854 20.8686 16.8854C19.9091 16.8854 18.4599 15.7994 16.8993 15.8315C14.8651 15.8972 12.9687 17.0537 11.9791 18.8321C9.85167 22.5154 11.4385 27.9285 13.4764 30.9058C14.496 32.3637 15.6876 33.9922 17.2468 33.9344C18.7726 33.8712 19.3424 32.9615 21.1841 32.9615C23.0088 32.9615 23.5434 33.9344 25.1342 33.8977C26.7714 33.8711 27.803 32.4334 28.7868 30.9617C29.5194 29.9229 30.0831 28.7748 30.4571 27.5599C28.533 26.7461 27.2481 24.8099 27.2459 22.7208Z" fill="white"/>
<path d="M24.2411 13.8221C25.1337 12.7505 25.5735 11.3731 25.467 9.98242C24.1032 10.1257 22.8434 10.7775 21.9387 11.808C21.054 12.8149 20.5936 14.168 20.6806 15.5055C22.0449 15.5196 23.3861 14.8854 24.2411 13.8221Z" fill="white"/>
</g>
</g>
</svg>
