<svg width="200" height="24" viewBox="0 0 200 24" fill="none" xmlns="http://www.w3.org/2000/svg">
<g clip-path="url(#clip0_20818_2858)">
<path fill-rule="evenodd" clip-rule="evenodd" d="M21.5072 3.27494H10.0367C5.5494 3.27494 1.91175 6.91258 1.91175 11.3999C1.91175 15.8871 5.5494 19.5248 10.0367 19.5248H21.5072C25.9946 19.5248 29.6321 15.8871 29.6321 11.3999C29.6321 6.91258 25.9946 3.27494 21.5072 3.27494ZM10.0367 1.36319C4.49358 1.36319 0 5.85675 0 11.3999C0 16.943 4.49358 21.4365 10.0367 21.4365H21.5072C27.0503 21.4365 31.5438 16.943 31.5438 11.3999C31.5438 5.85675 27.0503 1.36319 21.5072 1.36319H10.0367Z" fill="#525252"/>
<path d="M31.5438 11.3999C31.5438 16.943 27.0503 21.4365 21.5072 21.4365C15.9642 21.4365 11.4706 16.943 11.4706 11.3999C11.4706 5.85675 15.9642 1.36319 21.5072 1.36319C27.0503 1.36319 31.5438 5.85675 31.5438 11.3999Z" fill="#525252"/>
<path d="M37.0973 23.0639L44.2983 0.223694H49.8973L57.0983 23.0639H53.1649L46.6299 2.57116H47.4864L41.031 23.0639H37.0973ZM41.1102 18.1152V14.5464H53.1014V18.1152H41.1102Z" fill="#525252"/>
<path d="M78.6348 23.0639V12.6589C78.6348 11.4852 78.3438 10.5705 77.7622 9.91492C77.1809 9.24873 76.3931 8.91565 75.399 8.91565C74.7858 8.91565 74.2358 9.0584 73.7495 9.34391C73.263 9.61884 72.877 10.0312 72.5915 10.5811C72.306 11.1204 72.1633 11.7654 72.1633 12.5162L70.4661 11.5169C70.4555 10.3326 70.72 9.29104 71.2591 8.39223C71.8091 7.48285 72.5493 6.77438 73.4798 6.26681C74.4104 5.75925 75.4467 5.50549 76.5887 5.50549C78.4814 5.50549 79.9301 6.07648 80.9345 7.2185C81.9498 8.34992 82.4573 9.84088 82.4573 11.6914V23.0639H78.6348ZM58.0309 23.0639V5.93373H61.4094V11.2473H61.8853V23.0639H58.0309ZM68.3565 23.0639V12.7065C68.3565 11.5116 68.0659 10.5811 67.4843 9.91492C66.9027 9.24873 66.1096 8.91565 65.105 8.91565C64.1322 8.91565 63.3498 9.24873 62.7576 9.91492C62.176 10.5811 61.8853 11.4482 61.8853 12.5162L60.1721 11.3741C60.1721 10.2639 60.4472 9.26461 60.9969 8.37637C61.5469 7.48814 62.2871 6.79023 63.2177 6.28267C64.1586 5.76456 65.2107 5.50549 66.3739 5.50549C67.6534 5.50549 68.7213 5.78042 69.578 6.33026C70.4451 6.86956 71.09 7.60974 71.513 8.55086C71.9464 9.48137 72.1633 10.5335 72.1633 11.7072V23.0639H68.3565Z" fill="#525252"/>
<path d="M91.3053 23.5398C89.1903 23.5398 87.4721 23.0639 86.1504 22.1122C84.8286 21.1606 84.025 19.8229 83.7395 18.0993L87.6413 17.4966C87.8421 18.3426 88.2864 19.0087 88.9737 19.4951C89.661 19.9815 90.5281 20.2248 91.5747 20.2248C92.4947 20.2248 93.2032 20.045 93.7004 19.6855C94.2079 19.3154 94.4615 18.8131 94.4615 18.1786C94.4615 17.7874 94.3664 17.4755 94.176 17.2428C93.9962 16.9996 93.5944 16.767 92.9706 16.5449C92.3468 16.3229 91.3898 16.0427 90.0999 15.7043C88.6618 15.3236 87.5196 14.9165 86.6737 14.483C85.8278 14.0388 85.2198 13.5154 84.8496 12.9127C84.4797 12.31 84.2944 11.5804 84.2944 10.7238C84.2944 9.65587 84.5747 8.72533 85.1351 7.93227C85.6957 7.13921 86.4781 6.53118 87.4828 6.10823C88.4872 5.67468 89.6716 5.45792 91.0356 5.45792C92.368 5.45792 93.547 5.66411 94.5727 6.07649C95.6089 6.4889 96.4442 7.07577 97.0786 7.83711C97.7131 8.59843 98.1045 9.49196 98.2525 10.5177L94.3506 11.2156C94.2553 10.4859 93.9224 9.90963 93.3514 9.48667C92.7908 9.06369 92.04 8.82579 91.0991 8.77292C90.2001 8.72004 89.4758 8.8575 88.926 9.1853C88.3763 9.50253 88.1012 9.95193 88.1012 10.5335C88.1012 10.8613 88.2123 11.1415 88.4343 11.3742C88.6563 11.6068 89.1004 11.8394 89.7667 12.0721C90.4434 12.3047 91.448 12.5902 92.7804 12.9286C94.1444 13.2775 95.2335 13.6793 96.0478 14.134C96.8724 14.5781 97.4646 15.1121 97.8242 15.736C98.1942 16.3599 98.3794 17.1159 98.3794 18.0042C98.3794 19.7278 97.7501 21.0813 96.4918 22.0647C95.2442 23.048 93.5151 23.5398 91.3053 23.5398Z" fill="#525252"/>
<path d="M109.99 23.0639C108.859 23.2754 107.749 23.3653 106.66 23.3335C105.581 23.3124 104.613 23.1168 103.757 22.7467C102.901 22.366 102.25 21.7686 101.806 20.9544C101.415 20.2142 101.209 19.4581 101.187 18.6862C101.166 17.9143 101.156 17.0419 101.156 16.0691V1.17535H104.962V15.847C104.962 16.5344 104.968 17.1371 104.978 17.6552C104.999 18.1733 105.11 18.5963 105.311 18.9241C105.692 19.5586 106.3 19.9128 107.135 19.9868C107.971 20.0608 108.923 20.0185 109.99 19.8599V23.0639ZM98.0469 8.9315V5.93373H109.99V8.9315H98.0469Z" fill="#525252"/>
<path d="M118.691 23.5398C116.957 23.5398 115.434 23.1644 114.123 22.4136C112.812 21.6628 111.786 20.6213 111.046 19.2889C110.316 17.9566 109.951 16.4233 109.951 14.6892C109.951 12.8175 110.311 11.1944 111.03 9.81976C111.749 8.43455 112.748 7.36126 114.027 6.59991C115.307 5.83859 116.788 5.45792 118.469 5.45792C120.245 5.45792 121.752 5.87558 122.989 6.71095C124.237 7.53574 125.162 8.70419 125.765 10.2163C126.368 11.7284 126.595 13.5101 126.447 15.5615H122.656V14.1657C122.646 12.3047 122.318 10.9459 121.673 10.0894C121.028 9.23289 120.013 8.80463 118.627 8.80463C117.062 8.80463 115.899 9.29105 115.138 10.2639C114.376 11.2261 113.996 12.6378 113.996 14.4988C113.996 16.233 114.376 17.5759 115.138 18.5276C115.899 19.4793 117.01 19.9551 118.469 19.9551C119.41 19.9551 120.219 19.7489 120.896 19.3365C121.583 18.9136 122.112 18.3055 122.482 17.5125L126.257 18.6545C125.601 20.1983 124.586 21.3985 123.211 22.255C121.847 23.1115 120.34 23.5398 118.691 23.5398ZM112.79 15.5615V12.6748H124.575V15.5615H112.79Z" fill="#525252"/>
<path d="M128.083 23.0639V5.93375H131.461V10.1053L131.049 9.56598C131.26 8.99497 131.541 8.47683 131.889 8.01157C132.249 7.53574 132.677 7.1445 133.174 6.83784C133.597 6.55235 134.063 6.33028 134.57 6.17168C135.088 6.00248 135.617 5.90204 136.156 5.8703C136.695 5.828 137.219 5.84916 137.727 5.93375V9.50253C137.219 9.3545 136.632 9.30691 135.966 9.35978C135.31 9.41266 134.718 9.59771 134.189 9.91494C133.661 10.2004 133.227 10.5652 132.889 11.0093C132.561 11.4535 132.318 11.961 132.159 12.532C132 13.0925 131.921 13.7005 131.921 14.3561V23.0639H128.083Z" fill="#525252"/>
<path d="M145.408 23.5398C143.832 23.5398 142.458 23.1432 141.284 22.3502C140.11 21.5571 139.201 20.4785 138.556 19.1145C137.911 17.7504 137.588 16.2119 137.588 14.4988C137.588 12.7647 137.911 11.2208 138.556 9.86735C139.211 8.50328 140.137 7.42999 141.332 6.6475C142.526 5.85445 143.933 5.45792 145.551 5.45792C147.179 5.45792 148.543 5.85445 149.643 6.6475C150.753 7.42999 151.594 8.50328 152.165 9.86735C152.736 11.2314 153.021 12.7752 153.021 14.4988C153.021 16.2013 152.736 17.7398 152.165 19.1145C151.594 20.4785 150.743 21.5571 149.611 22.3502C148.48 23.1432 147.079 23.5398 145.408 23.5398ZM145.995 20.1137C147.02 20.1137 147.845 19.8811 148.469 19.4158C149.104 18.94 149.564 18.2791 149.849 17.4332C150.145 16.5872 150.293 15.6091 150.293 14.4988C150.293 13.378 150.145 12.3999 149.849 11.5645C149.564 10.7186 149.114 10.063 148.501 9.59771C147.888 9.12185 147.095 8.88395 146.122 8.88395C145.096 8.88395 144.25 9.13773 143.584 9.64527C142.918 10.1423 142.426 10.819 142.109 11.6755C141.791 12.5215 141.633 13.4626 141.633 14.4988C141.633 15.5457 141.786 16.4973 142.093 17.3538C142.41 18.1998 142.891 18.8713 143.536 19.3683C144.181 19.8652 145.001 20.1137 145.995 20.1137ZM150.293 23.0639V11.0411H149.817V0.223694H153.672V23.0639H150.293Z" fill="#525252"/>
<path d="M196.158 23.0639V12.6589C196.158 11.4852 195.867 10.5705 195.286 9.91495C194.704 9.24876 193.916 8.91568 192.922 8.91568C192.309 8.91568 191.759 9.05843 191.273 9.34394C190.786 9.61887 190.4 10.0312 190.115 10.5811C189.829 11.1204 189.687 11.7654 189.687 12.5162L187.99 11.5169C187.979 10.3326 188.243 9.29107 188.783 8.39226C189.333 7.48288 190.073 6.77441 191.003 6.26684C191.934 5.75928 192.97 5.50552 194.112 5.50552C196.005 5.50552 197.454 6.07651 198.458 7.21853C199.473 8.34995 199.981 9.84091 199.981 11.6914V23.0639H196.158ZM175.554 23.0639V5.93376H178.933V11.2473H179.409V23.0639H175.554ZM185.88 23.0639V12.7065C185.88 11.5116 185.589 10.5811 185.008 9.91495C184.426 9.24876 183.633 8.91568 182.628 8.91568C181.656 8.91568 180.873 9.24876 180.281 9.91495C179.699 10.5811 179.409 11.4482 179.409 12.5162L177.696 11.3742C177.696 10.2639 177.971 9.26464 178.52 8.3764C179.07 7.48817 179.811 6.79026 180.741 6.2827C181.682 5.76459 182.734 5.50552 183.897 5.50552C185.177 5.50552 186.245 5.78045 187.101 6.33029C187.968 6.86959 188.613 7.60977 189.036 8.55089C189.47 9.4814 189.687 10.5335 189.687 11.7073V23.0639H185.88Z" fill="#525252"/>
<path d="M162.566 23.5398C161.329 23.5398 160.282 23.3071 159.425 22.8419C158.569 22.366 157.918 21.7369 157.474 20.9544C157.041 20.1719 156.824 19.3101 156.824 18.369C156.824 17.5442 156.961 16.804 157.236 16.1484C157.511 15.4822 157.934 14.9112 158.505 14.4354C159.076 13.949 159.816 13.5525 160.726 13.2458C161.413 13.0237 162.217 12.8228 163.137 12.6431C164.067 12.4633 165.072 12.2994 166.15 12.1514C167.239 11.9928 168.376 11.8236 169.561 11.6438L168.196 12.421C168.207 11.2367 167.943 10.3643 167.403 9.8039C166.864 9.24346 165.955 8.96325 164.675 8.96325C163.903 8.96325 163.158 9.14302 162.439 9.50253C161.72 9.86206 161.217 10.4806 160.932 11.3583L157.443 10.2639C157.866 8.81522 158.669 7.65206 159.853 6.77439C161.048 5.89675 162.655 5.45792 164.675 5.45792C166.198 5.45792 167.536 5.70641 168.688 6.20338C169.851 6.70038 170.713 7.5146 171.274 8.64603C171.58 9.24875 171.765 9.86735 171.829 10.5018C171.892 11.1257 171.924 11.8077 171.924 12.5479V23.0639H168.577V19.3524L169.132 19.9551C168.36 21.1923 167.456 22.1017 166.42 22.6833C165.394 23.2542 164.11 23.5398 162.566 23.5398ZM163.327 20.4944C164.194 20.4944 164.934 20.3411 165.548 20.0344C166.161 19.7278 166.647 19.3524 167.007 18.9083C167.377 18.4642 167.625 18.0465 167.752 17.6552C167.953 17.1688 168.064 16.6137 168.086 15.9898C168.117 15.3554 168.133 14.8425 168.133 14.4513L169.307 14.8002C168.154 14.98 167.166 15.1386 166.341 15.276C165.516 15.4135 164.808 15.5457 164.215 15.6726C163.623 15.7889 163.1 15.9211 162.645 16.0691C162.201 16.2277 161.825 16.4128 161.519 16.6242C161.212 16.8357 160.974 17.0789 160.805 17.3538C160.646 17.6288 160.567 17.9513 160.567 18.3214C160.567 18.7444 160.673 19.1198 160.884 19.4476C161.096 19.7648 161.403 20.0186 161.804 20.2089C162.217 20.3992 162.724 20.4944 163.327 20.4944Z" fill="#525252"/>
</g>
<defs>
<clipPath id="clip0_20818_2858">
<rect width="200" height="23.3161" fill="white" transform="translate(0 0.223694)"/>
</clipPath>
</defs>
</svg>
