<svg width="200" height="40" viewBox="0 0 200 40" fill="#525252" xmlns="http://www.w3.org/2000/svg">
  <g clip-path="url(#clip0_20818_2842)">
    <path
      d="M49.1831 30.9534C48.207 30.9534 47.2019 30.8557 46.1685 30.6605C45.1347 30.4767 44.1758 30.2528 43.2914 29.9886C42.407 29.713 41.7064 29.4488 41.1896 29.1961L41.7064 24.5102C42.5104 24.9007 43.3488 25.2625 44.2216 25.5955C45.0944 25.9286 45.9903 26.1985 46.909 26.4053C47.828 26.612 48.7582 26.7154 49.7 26.7154C50.8713 26.7154 51.8135 26.4857 52.5253 26.0263C53.2375 25.5669 53.5933 24.8663 53.5933 23.9245C53.5933 23.2009 53.3925 22.6209 52.9903 22.1845C52.5886 21.7366 51.9741 21.3403 51.1471 20.9958C50.3201 20.6397 49.2636 20.2378 47.9771 19.7898C46.691 19.3419 45.5368 18.8366 44.5145 18.2738C43.4923 17.6996 42.6826 16.976 42.0854 16.1032C41.4882 15.2303 41.1896 14.1162 41.1896 12.761C41.1896 11.4287 41.5169 10.2458 42.1715 9.21212C42.8262 8.16698 43.8023 7.35152 45.1004 6.76578C46.4096 6.16856 48.0349 5.86993 49.9758 5.86993C51.4456 5.86993 52.8469 6.03649 54.1792 6.36955C55.5115 6.69113 56.6486 7.04141 57.5903 7.42043L57.1424 11.9341C55.7869 11.3254 54.5124 10.866 53.318 10.5558C52.1347 10.2343 50.9291 10.0735 49.7 10.0735C48.4139 10.0735 47.4203 10.286 46.7197 10.7109C46.019 11.1358 45.6687 11.7733 45.6687 12.6232C45.6687 13.3008 45.864 13.8463 46.2546 14.2598C46.6452 14.6733 47.2019 15.0293 47.9257 15.3279C48.649 15.615 49.5163 15.9194 50.527 16.241C52.2726 16.7922 53.7368 17.4009 54.9201 18.0671C56.1145 18.7218 57.0105 19.52 57.6075 20.4618C58.216 21.392 58.5205 22.5463 58.5205 23.9245C58.5205 24.6136 58.4113 25.3659 58.1933 26.1813C57.9749 26.9853 57.5445 27.749 56.9013 28.4726C56.258 29.1961 55.3163 29.7934 54.076 30.2642C52.8469 30.7236 51.216 30.9534 49.1831 30.9534Z"
      fill="#525252" />
    <path
      d="M61.319 38.8091V13.2434H64.7648L65.5914 16.1032L64.3168 15.6552C65.1091 14.8398 65.9704 14.1909 66.901 13.7085C67.8312 13.2146 68.9682 12.9677 70.3121 12.9677C72.0003 12.9677 73.4188 13.3755 74.5669 14.1909C75.7155 15.0063 76.5828 16.0917 77.1686 17.4469C77.7657 18.8021 78.0642 20.2837 78.0642 21.8916C78.0642 23.4995 77.7657 24.9811 77.1686 26.3364C76.5828 27.6916 75.7155 28.7769 74.5669 29.5924C73.4188 30.4078 72.0003 30.8155 70.3121 30.8155C68.9682 30.8155 67.877 30.6318 67.0389 30.2642C66.2003 29.8967 65.3502 29.311 64.489 28.507L65.5914 27.6457V38.8091H61.319ZM69.6573 27.3011C70.9322 27.3011 71.9198 26.8015 72.6205 25.8023C73.3327 24.7916 73.6886 23.4881 73.6886 21.8916C73.6886 20.2837 73.3327 18.9802 72.6205 17.9809C71.9198 16.9818 70.9322 16.4821 69.6573 16.4821C68.6697 16.4821 67.8599 16.7119 67.2282 17.1713C66.5965 17.6307 66.1314 18.2681 65.8329 19.0835C65.534 19.8875 65.3849 20.8235 65.3849 21.8916C65.3849 22.9597 65.534 23.9015 65.8329 24.717C66.1314 25.5209 66.5965 26.1526 67.2282 26.612C67.8599 27.0714 68.6697 27.3011 69.6573 27.3011Z"
      fill="#525252" />
    <path
      d="M81.0367 30.471V13.2434H85.0333L85.137 15.0695C85.5734 14.5871 86.1875 14.1048 86.9802 13.6224C87.7725 13.14 88.6397 12.8988 89.5815 12.8988C89.8573 12.8988 90.11 12.9218 90.3395 12.9677L90.0295 17.1713C89.7768 17.1024 89.5241 17.0564 89.2714 17.0335C89.0303 17.0105 88.7892 16.999 88.5477 16.999C87.8243 16.999 87.1639 17.1655 86.5665 17.4986C85.9695 17.8317 85.5502 18.2394 85.3091 18.7218V30.471H81.0367Z"
      fill="#525252" />
    <path d="M92.41 30.471V13.2434H96.6824V30.471H92.41ZM92.41 10.6247V6.35233H96.6824V10.6247H92.41Z" fill="#525252" />
    <path
      d="M100.687 30.471V13.2434H104.684L104.856 16.4477L103.857 15.1384C104.511 14.5871 105.292 14.0875 106.2 13.6396C107.107 13.1917 108.163 12.9677 109.369 12.9677C111.575 12.9677 113.211 13.7028 114.279 15.1729C115.348 16.6315 115.882 18.5265 115.882 20.858V30.471H111.609V21.2025C111.609 19.5946 111.339 18.4059 110.799 17.6364C110.271 16.8669 109.404 16.4821 108.198 16.4821C107.222 16.4821 106.423 16.7233 105.803 17.2057C105.183 17.6766 104.638 18.3083 104.167 19.1008L104.959 16.999V30.471H100.687Z"
      fill="#525252" />
    <path
      d="M126.52 39.1537C124.912 39.1537 123.505 38.9527 122.299 38.5507C121.105 38.1602 120.175 37.5975 119.508 36.8624C118.854 36.1274 118.526 35.2488 118.526 34.2266C118.526 33.3652 118.762 32.5957 119.233 31.9181C119.715 31.252 120.41 30.6662 121.317 30.1609C120.858 29.8852 120.49 29.5407 120.215 29.1272C119.939 28.7138 119.801 28.2429 119.801 27.7146C119.801 27.1633 119.956 26.6866 120.266 26.2847C120.588 25.8712 121.007 25.5439 121.524 25.3027C120.651 24.6825 119.991 23.89 119.543 22.9253C119.095 21.949 118.871 20.8924 118.871 19.7554C118.871 18.515 119.141 17.378 119.681 16.3443C120.221 15.2992 121.007 14.4665 122.041 13.8463C123.086 13.2146 124.361 12.8988 125.866 12.8988C126.646 12.8988 127.364 12.9964 128.019 13.1917C128.685 13.3869 129.276 13.6568 129.793 14.0014C130.138 13.8061 130.637 13.6339 131.292 13.4845C131.947 13.3238 132.676 13.2434 133.48 13.2434C133.675 13.2434 133.859 13.2434 134.031 13.2434C134.215 13.2434 134.399 13.2434 134.582 13.2434L134.307 15.9309C134.054 15.9309 133.796 15.9309 133.532 15.9309C133.279 15.9309 133.021 15.9309 132.756 15.9309C132.653 15.9309 132.515 15.9309 132.343 15.9309C132.171 15.9309 131.987 15.9424 131.792 15.9653C132.136 16.4937 132.394 17.0851 132.567 17.7398C132.739 18.3944 132.825 19.0663 132.825 19.7554C132.825 20.9958 132.555 22.1385 132.016 23.1837C131.487 24.2173 130.706 25.05 129.673 25.6817C128.639 26.3019 127.37 26.612 125.866 26.612C125.544 26.612 125.234 26.589 124.935 26.5431C124.636 26.4971 124.338 26.4397 124.039 26.3708C123.787 26.4742 123.66 26.6579 123.66 26.9221C123.66 27.2322 123.85 27.4676 124.229 27.6284C124.608 27.7892 125.199 27.9328 126.003 28.0591L128.966 28.4381C130.815 28.6793 132.263 29.2019 133.308 30.0058C134.364 30.8098 134.893 31.9526 134.893 33.4341C134.893 34.5826 134.56 35.5818 133.893 36.4317C133.239 37.2931 132.286 37.9592 131.034 38.4301C129.782 38.9125 128.277 39.1537 126.52 39.1537ZM126.693 35.9149C128.14 35.9149 129.236 35.7369 129.983 35.3809C130.729 35.0248 131.102 34.4793 131.102 33.7442C131.102 33.0896 130.839 32.6072 130.31 32.2971C129.793 31.987 128.966 31.7458 127.829 31.5735L124.057 31.0223C123.494 31.2405 123.023 31.5391 122.644 31.9181C122.265 32.3086 122.075 32.8139 122.075 33.4341C122.075 34.2726 122.483 34.8927 123.299 35.2947C124.114 35.7082 125.245 35.9149 126.693 35.9149ZM125.866 23.4421C126.887 23.4421 127.657 23.109 128.174 22.4429C128.702 21.7653 128.966 20.8695 128.966 19.7554C128.966 18.6299 128.702 17.734 128.174 17.0679C127.657 16.4018 126.887 16.0687 125.866 16.0687C124.832 16.0687 124.051 16.4018 123.523 17.0679C122.994 17.734 122.73 18.6299 122.73 19.7554C122.73 20.8695 122.994 21.7653 123.523 22.4429C124.051 23.109 124.832 23.4421 125.866 23.4421Z"
      fill="#525252" />
    <path
      d="M137.993 30.471V16.7578H135.547L135.926 13.2434H137.993V9.59115C137.993 8.07509 138.441 6.86918 139.337 5.97333C140.244 5.07749 141.542 4.62958 143.23 4.62958C143.781 4.62958 144.287 4.65829 144.746 4.71571C145.217 4.77314 145.642 4.8478 146.021 4.93967L145.642 8.3852C145.469 8.32777 145.28 8.2876 145.073 8.2646C144.867 8.23016 144.608 8.21291 144.298 8.21291C143.678 8.21291 143.184 8.37946 142.817 8.71252C142.449 9.04558 142.265 9.59115 142.265 10.3491V13.2434H146.055V16.7578H142.265V30.471H137.993Z"
      fill="#525252" />
    <path d="M149.072 30.471V13.2434H153.345V30.471H149.072ZM149.072 10.6248V6.35236H153.345V10.6248H149.072Z"
      fill="#525252" />
    <path
      d="M165.654 30.8155C163.575 30.8155 161.84 30.4021 160.451 29.5751C159.072 28.7367 158.039 27.6342 157.349 26.2675C156.66 24.8893 156.316 23.3847 156.316 21.7538C156.316 20.1803 156.638 18.7275 157.281 17.3952C157.935 16.063 158.889 14.9949 160.14 14.1909C161.392 13.3755 162.92 12.9677 164.723 12.9677C166.377 12.9677 167.755 13.3066 168.858 13.9842C169.96 14.6618 170.787 15.5691 171.338 16.7061C171.89 17.8317 172.165 19.0778 172.165 20.4445C172.165 20.8235 172.143 21.2083 172.096 21.5988C172.051 21.9778 171.982 22.374 171.89 22.7875H160.761C160.922 23.8556 161.254 24.7227 161.76 25.3888C162.277 26.0435 162.903 26.5259 163.638 26.8359C164.384 27.146 165.182 27.3011 166.033 27.3011C167.032 27.3011 167.962 27.1748 168.823 26.9221C169.685 26.6579 170.477 26.3134 171.2 25.8884L171.407 29.5062C170.753 29.8508 169.937 30.1551 168.961 30.4193C167.985 30.6834 166.882 30.8155 165.654 30.8155ZM160.864 19.8932H167.824C167.824 19.3764 167.726 18.8596 167.531 18.3427C167.336 17.8144 167.009 17.3723 166.549 17.0162C166.101 16.6602 165.492 16.4821 164.723 16.4821C163.621 16.4821 162.753 16.8037 162.122 17.4469C161.49 18.0901 161.071 18.9055 160.864 19.8932Z"
      fill="#525252" />
    <path
      d="M179.492 30.8155C178.47 30.8155 177.632 30.6145 176.977 30.2126C176.334 29.7991 175.858 29.2536 175.547 28.5759C175.237 27.8869 175.082 27.1288 175.082 26.3019V4.62958H179.355V24.5447C179.355 25.4635 179.406 26.1181 179.51 26.5086C179.625 26.8876 179.831 27.1174 180.13 27.1977C180.428 27.2667 180.859 27.3011 181.422 27.3011L181.043 30.8155H179.492Z"
      fill="#525252" />
    <path
      d="M190.925 30.8155C189.179 30.8155 187.709 30.4078 186.515 29.5924C185.331 28.7769 184.436 27.6916 183.827 26.3364C183.23 24.9811 182.931 23.4995 182.931 21.8916C182.931 20.2837 183.23 18.8022 183.827 17.4469C184.436 16.0917 185.331 15.0064 186.515 14.1909C187.709 13.3755 189.179 12.9677 190.925 12.9677C192.188 12.9677 193.256 13.1802 194.129 13.6052C195.002 14.0186 195.772 14.5527 196.437 15.2073L195.404 16.1032V4.62958H199.676V30.471H195.645L195.438 27.5423L196.679 28.4381C195.875 29.1732 195.042 29.7532 194.181 30.1781C193.319 30.6031 192.234 30.8155 190.925 30.8155ZM191.545 27.3011C192.487 27.3011 193.256 27.0714 193.853 26.612C194.451 26.1526 194.893 25.5209 195.18 24.717C195.467 23.9015 195.611 22.9598 195.611 21.8916C195.611 20.8235 195.467 19.8875 195.18 19.0835C194.893 18.2681 194.451 17.6307 193.853 17.1713C193.256 16.7119 192.487 16.4822 191.545 16.4822C190.649 16.4822 189.885 16.7119 189.254 17.1713C188.622 17.6307 188.139 18.2681 187.807 19.0835C187.473 19.8875 187.307 20.8235 187.307 21.8916C187.307 22.9598 187.473 23.9015 187.807 24.717C188.139 25.5209 188.622 26.1526 189.254 26.612C189.885 27.0714 190.649 27.3011 191.545 27.3011Z"
      fill="#525252" />
    <path
      d="M18.3762 18.9859C27.2565 18.9859 34.4553 18.9859 34.4553 18.9859C34.4553 27.8661 27.2565 35.065 18.3762 35.065C18.3762 35.065 18.3762 25.8769 18.3762 18.9859Z"
      fill="#525252" />
    <path
      d="M34.4552 16.6889C25.5749 16.6889 18.3761 16.6889 18.3761 16.6889C18.3761 7.80862 25.5749 0.609772 34.4552 0.609772C34.4552 0.609772 34.4552 9.79782 34.4552 16.6889Z"
      fill="#525252" />
    <path
      d="M16.0791 18.9859C16.0791 27.8661 16.0791 35.065 16.0791 35.065C7.19884 35.065 -1.05896e-07 27.8661 0 18.9859C0 18.9859 9.18805 18.9859 16.0791 18.9859Z"
      fill="#525252" />
    <path
      d="M1.91867e-07 16.6889C8.60856e-08 7.80862 0 0.609772 0 0.609772C8.88025 0.609772 16.0791 7.80862 16.0791 16.6889C16.0791 16.6889 6.89104 16.6889 1.91867e-07 16.6889Z"
      fill="#525252" />
  </g>
  <defs>
    <clipPath id="clip0_20818_2842">
      <rect width="200" height="38.5439" fill="white" transform="translate(0 0.609772)" />
    </clipPath>
  </defs>
</svg>