<svg width="200" height="39" viewBox="0 0 200 39" fill="none" xmlns="http://www.w3.org/2000/svg">
<g id="delaware-colored (1) 1" clip-path="url(#clip0_20818_2870)">
<g id="Clip path group">
<mask id="mask0_20818_2870" style="mask-type:luminance" maskUnits="userSpaceOnUse" x="0" y="0" width="200" height="39">
<g id="clip0_1126_1714">
<path id="Vector" d="M199.818 0.974152H0V38.7893H199.818V0.974152Z" fill="white"/>
</g>
</mask>
<g mask="url(#mask0_20818_2870)">
<g id="Group">
<path id="Vector_2" d="M51.6577 36.692C49.5623 36.692 47.7657 36.1717 46.2674 35.1311C44.769 34.0766 43.6102 32.6545 42.7917 30.8647C41.9871 29.0749 41.5847 27.0562 41.5847 24.8086C41.5847 22.5609 41.9871 20.5422 42.7917 18.7524C43.6102 16.9626 44.769 15.5544 46.2674 14.5276C47.7657 13.487 49.5556 12.9668 51.6367 12.9668C53.7594 12.9668 55.5422 13.4801 56.9854 14.5068C58.4283 15.5335 59.5174 16.9418 60.2527 18.7316C61.0018 20.5214 61.3766 22.547 61.3766 24.8086C61.3766 27.0423 61.0018 29.061 60.2527 30.8647C59.5174 32.6545 58.4283 34.0766 56.9854 35.1311C55.5422 36.1717 53.7665 36.692 51.6577 36.692ZM52.1153 33.2997C53.6279 33.2997 54.8695 32.9389 55.8405 32.2175C56.8119 31.4821 57.5262 30.4762 57.9842 29.1998C58.456 27.9095 58.6917 26.4457 58.6917 24.8086C58.6917 23.1436 58.456 21.6799 57.9842 20.4173C57.5262 19.1409 56.8186 18.1489 55.8615 17.4412C54.9043 16.7198 53.6901 16.3591 52.2195 16.3591C50.6934 16.3591 49.4308 16.7336 48.4316 17.4829C47.4468 18.2321 46.7115 19.2449 46.2258 20.5214C45.7539 21.7978 45.5182 23.2269 45.5182 24.8086C45.5182 26.4041 45.7611 27.847 46.2464 29.1374C46.7321 30.4138 47.4606 31.4266 48.4316 32.1759C49.4169 32.9251 50.6447 33.2997 52.1153 33.2997ZM58.6917 36.0676V19.5224H58.2758V6.09894H62.001V36.0676H58.6917ZM75.0741 36.692C72.8682 36.692 70.9396 36.2064 69.2884 35.2352C67.6514 34.2501 66.3749 32.8834 65.4594 31.1353C64.5434 29.3732 64.0854 27.3198 64.0854 24.975C64.0854 22.5193 64.5367 20.3965 65.4384 18.6067C66.3401 16.803 67.5959 15.4156 69.2052 14.4444C70.8287 13.4593 72.7295 12.9668 74.9077 12.9668C77.169 12.9668 79.0909 13.487 80.6724 14.5276C82.2682 15.5682 83.4611 17.0528 84.2522 18.9813C85.0569 20.9099 85.4035 23.2061 85.2926 25.8699H81.5464V24.538C81.5048 21.777 80.943 19.7167 79.8606 18.357C78.7787 16.9834 77.169 16.2966 75.0325 16.2966C72.7434 16.2966 71.0018 17.032 69.809 18.5026C68.6157 19.9733 68.019 22.0823 68.019 24.8294C68.019 27.4794 68.6157 29.5328 69.809 30.9896C71.0018 32.4464 72.7018 33.1748 74.9077 33.1748C76.3922 33.1748 77.6825 32.8349 78.7787 32.155C79.8745 31.4752 80.735 30.497 81.3594 29.2206L84.9182 30.4485C84.0438 32.4325 82.7258 33.9726 80.964 35.0686C79.2157 36.1509 77.2522 36.692 75.0741 36.692ZM66.7703 25.8699V22.8939H83.3779V25.8699H66.7703ZM87.8451 36.0676V5.47461H91.5493V36.0676H87.8451ZM101.685 36.692C100.007 36.692 98.5985 36.3867 97.4611 35.7763C96.3371 35.1519 95.4837 34.3333 94.901 33.3205C94.3321 32.3077 94.0476 31.1977 94.0476 29.9906C94.0476 28.8113 94.2699 27.7915 94.7136 26.9313C95.1716 26.0573 95.8098 25.3358 96.6283 24.7669C97.4472 24.1842 98.4253 23.7263 99.5627 23.3933C100.631 23.102 101.825 22.8523 103.143 22.6441C104.475 22.4222 105.82 22.221 107.18 22.0406C108.54 21.8602 109.809 21.6868 110.988 21.5203L109.656 22.2904C109.698 20.2924 109.296 18.8148 108.449 17.8575C107.617 16.9002 106.174 16.4215 104.121 16.4215C102.761 16.4215 101.568 16.7336 100.541 17.358C99.5283 17.9685 98.8136 18.9674 98.3976 20.3549L94.8804 19.2935C95.4211 17.3233 96.469 15.7763 98.0228 14.6525C99.5766 13.5287 101.623 12.9668 104.162 12.9668C106.202 12.9668 107.95 13.3344 109.407 14.0698C110.877 14.7912 111.932 15.8873 112.57 17.358C112.889 18.0517 113.09 18.8079 113.174 19.6265C113.257 20.4312 113.298 21.2775 113.298 22.1655V36.0676H110.01V30.6774L110.78 31.1769C109.934 32.9944 108.748 34.368 107.222 35.2976C105.709 36.2272 103.864 36.692 101.685 36.692ZM102.248 33.591C103.58 33.591 104.731 33.3552 105.702 32.8834C106.688 32.3978 107.478 31.7665 108.075 30.9896C108.672 30.1988 109.06 29.3386 109.24 28.4089C109.448 27.7152 109.559 26.9452 109.573 26.0989C109.601 25.2386 109.615 24.5796 109.615 24.1218L110.905 24.6837C109.698 24.8502 108.512 25.0097 107.346 25.1623C106.181 25.315 105.078 25.4815 104.038 25.6618C102.997 25.8283 102.06 26.0295 101.228 26.2654C100.617 26.4596 100.042 26.7094 99.5006 27.0146C98.9733 27.3198 98.543 27.7152 98.2102 28.2008C97.8909 28.6726 97.7312 29.2622 97.7312 29.9698C97.7312 30.5803 97.8842 31.163 98.1892 31.718C98.5085 32.273 98.9938 32.7239 99.6459 33.0707C100.312 33.4176 101.179 33.591 102.248 33.591ZM120.186 36.0676L113.318 13.5703L117.002 13.5911L122.017 30.0323L127.075 13.5911H130.342L135.378 30.0323L140.415 13.5911H144.077L137.21 36.0676H134.13L128.698 18.9813L123.266 36.0676H120.186ZM150.468 36.692C148.789 36.692 147.381 36.3867 146.243 35.7763C145.119 35.1519 144.266 34.3333 143.683 33.3205C143.114 32.3077 142.83 31.1977 142.83 29.9906C142.83 28.8113 143.052 27.7915 143.496 26.9313C143.953 26.0573 144.592 25.3358 145.411 24.7669C146.229 24.1842 147.207 23.7263 148.345 23.3933C149.413 23.102 150.606 22.8523 151.925 22.6441C153.256 22.4222 154.602 22.221 155.962 22.0406C157.322 21.8602 158.591 21.6868 159.77 21.5203L158.438 22.2904C158.48 20.2924 158.078 18.8148 157.231 17.8575C156.399 16.9002 154.956 16.4215 152.903 16.4215C151.543 16.4215 150.35 16.7336 149.323 17.358C148.31 17.9685 147.596 18.9674 147.18 20.3549L143.662 19.2935C144.203 17.3233 145.251 15.7763 146.805 14.6525C148.359 13.5287 150.405 12.9668 152.944 12.9668C154.984 12.9668 156.732 13.3344 158.189 14.0698C159.659 14.7912 160.714 15.8873 161.352 17.358C161.671 18.0517 161.872 18.8079 161.956 19.6265C162.039 20.4312 162.08 21.2775 162.08 22.1655V36.0676H158.792V30.6774L159.562 31.1769C158.716 32.9944 157.53 34.368 156.004 35.2976C154.491 36.2272 152.646 36.692 150.468 36.692ZM151.03 33.591C152.361 33.591 153.513 33.3552 154.484 32.8834C155.469 32.3978 156.26 31.7665 156.857 30.9896C157.454 30.1988 157.842 29.3386 158.022 28.4089C158.23 27.7152 158.341 26.9452 158.355 26.0989C158.383 25.2386 158.397 24.5796 158.397 24.1218L159.687 24.6837C158.48 24.8502 157.294 25.0097 156.128 25.1623C154.963 25.315 153.86 25.4815 152.819 25.6618C151.779 25.8283 150.842 26.0295 150.01 26.2654C149.399 26.4596 148.824 26.7094 148.282 27.0146C147.755 27.3198 147.325 27.7152 146.992 28.2008C146.673 28.6726 146.514 29.2622 146.514 29.9698C146.514 30.5803 146.666 31.163 146.971 31.718C147.29 32.273 147.776 32.7239 148.428 33.0707C149.094 33.4176 149.961 33.591 151.03 33.591ZM164.994 36.0676V13.5911H168.303V19.0229L167.762 18.3153C168.026 17.6216 168.366 16.9834 168.782 16.4007C169.212 15.818 169.69 15.3393 170.218 14.9647C170.801 14.4929 171.46 14.1322 172.195 13.8825C172.93 13.6327 173.68 13.487 174.443 13.4454C175.206 13.3899 175.92 13.4385 176.586 13.5911V17.0666C175.809 16.8585 174.956 16.803 174.026 16.9002C173.097 16.9973 172.237 17.3372 171.446 17.9199C170.724 18.4333 170.162 19.0576 169.76 19.793C169.372 20.5283 169.101 21.3261 168.948 22.1863C168.796 23.0326 168.719 23.8998 168.719 24.7878V36.0676H164.994ZM187.357 36.692C185.151 36.692 183.223 36.2064 181.572 35.2352C179.935 34.2501 178.658 32.8834 177.743 31.1353C176.827 29.3732 176.369 27.3198 176.369 24.975C176.369 22.5193 176.82 20.3965 177.722 18.6067C178.624 16.803 179.879 15.4156 181.489 14.4444C183.112 13.4593 185.013 12.9668 187.191 12.9668C189.453 12.9668 191.374 13.487 192.956 14.5276C194.551 15.5682 195.745 17.0528 196.535 18.9813C197.34 20.9099 197.687 23.2061 197.576 25.8699H193.83V24.538C193.788 21.777 193.226 19.7167 192.144 18.357C191.062 16.9834 189.453 16.2966 187.316 16.2966C185.027 16.2966 183.285 17.032 182.092 18.5026C180.899 19.9733 180.302 22.0823 180.302 24.8294C180.302 27.4794 180.899 29.5328 182.092 30.9896C183.285 32.4464 184.985 33.1748 187.191 33.1748C188.675 33.1748 189.966 32.8349 191.062 32.155C192.158 31.4752 193.018 30.497 193.643 29.2206L197.201 30.4485C196.327 32.4325 195.009 33.9726 193.247 35.0686C191.499 36.1509 189.536 36.692 187.357 36.692ZM179.054 25.8699V22.8939H195.661V25.8699H179.054Z" fill="#525252"/>
<path id="Vector_3" d="M189.906 8.61309L191.459 3.53067H192.891L194.444 8.61309H193.456L192.073 4.13067H192.256L190.894 8.61309H189.906ZM190.837 7.55422V6.65775H193.52V7.55422H190.837ZM194.936 8.61309V8.49309L197.35 4.42715H195.148V3.53067H199.03V3.65067L196.63 7.70952H198.96V8.61309H194.936Z" fill="#525252"/>
<path id="Vector_4" fill-rule="evenodd" clip-rule="evenodd" d="M18.6862 1.3537H-0.120239V38.9666H18.6862C29.0727 38.9666 37.4927 30.5467 37.4927 20.1602C37.4927 9.77365 29.0727 1.3537 18.6862 1.3537ZM20.4498 33.6078C20.0176 33.4806 19.5744 32.9661 19.4802 32.4737C19.4192 32.1528 19.4912 31.9315 19.9511 31.0408C21.8128 27.4447 22.6217 24.1363 22.6217 20.1252C22.6217 16.247 21.907 13.2262 20.1284 9.60798C19.7461 8.83344 19.4358 8.10869 19.4358 8.00356C19.4358 7.61629 19.7572 7.05751 20.1062 6.84176C20.5828 6.54302 21.3861 6.59831 21.774 6.95793C21.9236 7.09625 22.3059 7.72697 22.6273 8.35764C23.9016 10.8528 24.7715 13.5914 25.2036 16.4406C25.4696 18.2055 25.525 21.5471 25.3089 23.1626C24.9155 26.139 24.1288 28.8001 22.8655 31.4004C22.1009 32.9716 21.6244 33.6189 21.2254 33.6189C21.1479 33.6189 21.0149 33.641 20.9373 33.6632C20.8598 33.6853 20.6381 33.6632 20.4498 33.6078ZM15.2693 30.9025C14.6044 30.7088 14.1223 29.89 14.3162 29.2815C14.3606 29.1321 14.6764 28.4516 15.0144 27.7656C16.4383 24.861 17.0312 21.7518 16.7431 18.6978C16.5048 16.1861 16.056 14.6038 14.9202 12.2913C14.1611 10.7366 14.1223 10.4987 14.5656 9.86802C14.9867 9.2705 16.0394 9.17646 16.5879 9.67991C16.9702 10.0285 18.1615 12.5126 18.6214 13.9178C20.1395 18.5651 19.9068 23.5609 17.962 28.1252C16.9591 30.4654 16.2555 31.1902 15.2693 30.9025ZM9.06372 27.1017C9.16343 27.5387 9.51805 27.9758 9.92805 28.1584C10.1109 28.2413 10.4212 28.2856 10.6151 28.269C11.2523 28.186 11.5681 27.843 12.2053 26.5539C13.3134 24.3022 13.7123 22.6259 13.7179 20.1861C13.7234 17.8126 13.2968 15.9593 12.2552 13.8237C11.5792 12.4351 11.1858 12.0534 10.4267 12.0534C9.97793 12.0534 9.8394 12.1031 9.51805 12.4074C8.86982 13.0215 8.88641 13.3313 9.65658 14.886C11.4074 18.4323 11.3908 21.9233 9.59562 25.5526C9.10805 26.5373 9.00276 26.8361 9.06372 27.1017ZM4.94146 25.6024C4.61456 25.4696 4.24335 25.027 4.13253 24.6397C4.01064 24.2082 4.11037 23.8652 4.59797 23.063C5.22956 22.0284 5.37364 21.4752 5.37364 20.1252C5.37364 18.7753 5.22956 18.2165 4.59797 17.1875C4.38188 16.8389 4.17132 16.4185 4.12146 16.2525C3.91645 15.572 4.48713 14.7366 5.25175 14.5928C5.89998 14.471 6.34326 14.7587 6.94167 15.6882C8.66477 18.377 8.66477 21.962 6.94167 24.6286C6.33217 25.5636 5.6562 25.8956 4.94146 25.6024Z" fill="#525252"/>
</g>
</g>
</g>
</g>
<defs>
<clipPath id="clip0_20818_2870">
<rect width="200" height="37.8151" fill="white" transform="translate(0 0.974152)"/>
</clipPath>
</defs>
</svg>
