<svg width="200" height="54" viewBox="0 0 200 54" fill="none" xmlns="http://www.w3.org/2000/svg">
<g id="Norway-black 1">
<path id="Vector" fill-rule="evenodd" clip-rule="evenodd" d="M7.18036 7.68042C11.875 7.68042 16.5237 8.60515 20.8611 10.4017C25.1984 12.1983 29.1393 14.8316 32.459 18.1512C35.7786 21.4708 38.4119 25.4118 40.2085 29.7491C42.005 34.0864 42.9297 38.7351 42.9297 43.4298H31.6405C31.6405 40.2176 31.0078 37.0369 29.7785 34.0693C28.5493 31.1017 26.7476 28.4052 24.4763 26.1339C22.2049 23.8626 19.5085 22.0609 16.5408 20.8316C13.5732 19.6024 10.3925 18.9697 7.18041 18.9697L7.18036 7.68042Z" fill="#525252"/>
<path id="Vector_2" fill-rule="evenodd" clip-rule="evenodd" d="M8.09924 7.6936C10.7092 7.6936 12.825 9.80941 12.825 12.4194V43.2548H1.53571V7.6936H8.09924Z" fill="#525252"/>
<path id="Vector_3" fill-rule="evenodd" clip-rule="evenodd" d="M42.9299 7.86859V43.4298H31.6407V7.86859H42.9299Z" fill="#525252"/>
<path id="Vector_4" d="M54.8019 38.7301V17.7399H60.3993V22.5793L60.2632 21.7046C60.8982 20.3182 61.7987 19.2299 62.9648 18.4395C64.131 17.6362 65.5363 17.2345 67.182 17.2345C68.8148 17.2345 70.1493 17.6038 71.1858 18.3423C72.2353 19.0809 73.0127 20.1045 73.5181 21.4131C74.0234 22.7218 74.2761 24.2312 74.2761 25.9416V38.7301H68.4842V26.3108C68.4842 24.8208 68.238 23.6676 67.7455 22.8514C67.2536 22.0221 66.3982 21.6075 65.1804 21.6075C63.7423 21.6075 62.6148 22.2229 61.7987 23.4538C60.995 24.6847 60.5933 26.57 60.5933 29.1095V38.7301H54.8019Z" fill="#525252"/>
<path id="Vector_5" d="M88.7747 39.2353C86.6629 39.2353 84.7973 38.7689 83.1774 37.836C81.5709 36.9031 80.314 35.6139 79.407 33.9684C78.5 32.3099 78.0468 30.3987 78.0468 28.235C78.0468 26.0582 78.5 24.147 79.407 22.5015C80.314 20.843 81.5709 19.5538 83.1774 18.6339C84.7973 17.701 86.6629 17.2345 88.7747 17.2345C90.9 17.2345 92.7656 17.701 94.3726 18.6339C95.9919 19.5538 97.2554 20.843 98.1623 22.5015C99.0693 24.147 99.5226 26.0582 99.5226 28.235C99.5226 30.4117 99.0693 32.3293 98.1623 33.9878C97.2554 35.6333 95.9919 36.9225 94.3726 37.8554C92.7527 38.7754 90.8871 39.2353 88.7747 39.2353ZM88.7946 34.979C90.2328 34.979 91.3661 34.3765 92.1957 33.1715C93.0376 31.9536 93.4591 30.308 93.4591 28.235C93.4591 26.1489 93.0376 24.5033 92.1957 23.2983C91.3661 22.0933 90.2263 21.4909 88.7747 21.4909C87.3365 21.4909 86.1967 22.0933 85.3543 23.2983C84.5252 24.5033 84.1107 26.1489 84.1107 28.235C84.1107 30.321 84.5252 31.9665 85.3543 33.1715C86.1967 34.3765 87.343 34.979 88.7946 34.979Z" fill="#525252"/>
<path id="Vector_6" d="M103.507 38.7301V17.7399H109.105V22.4626L108.871 21.8407C109.532 20.2859 110.465 19.1327 111.67 18.3812C112.875 17.6167 114.19 17.2345 115.615 17.2345C116.017 17.2345 116.425 17.2669 116.84 17.3317C117.255 17.3965 117.669 17.5066 118.084 17.6621L117.637 22.5987C116.794 22.3654 115.985 22.2488 115.207 22.2488C114.572 22.2488 113.905 22.359 113.206 22.5793C112.519 22.7995 111.878 23.1882 111.281 23.7454C110.698 24.2895 110.219 25.0669 109.843 26.0776C109.48 27.0753 109.299 28.3516 109.299 29.9064V38.7301H103.507Z" fill="#525252"/>
<path id="Vector_7" d="M124.983 38.7301L119.872 17.7398H125.877L129.279 35.2705H128.792L132.835 17.7398H140.531L144.554 35.3288H143.972L147.47 17.7398H153.165L148.033 38.7301H139.987L136.042 19.9554H137.053L133.03 38.7301H124.983Z" fill="#525252"/>
<path id="Vector_8" d="M162.358 39.2353C161.023 39.2353 159.792 39.0021 158.665 38.5357C157.538 38.0563 156.631 37.3501 155.944 36.4172C155.27 35.4843 154.933 34.3182 154.933 32.9189C154.933 31.4159 155.367 30.1396 156.235 29.0901C157.103 28.0406 158.367 27.2437 160.025 26.6995C161.683 26.1424 163.685 25.8638 166.031 25.8638H168.985L168.635 26.3886V25.1836C168.635 23.7972 168.382 22.7671 167.877 22.0933C167.372 21.4066 166.536 21.0633 165.37 21.0633C164.255 21.0633 163.401 21.3613 162.804 21.9573C162.222 22.5404 161.865 23.3761 161.735 24.4645L155.827 23.4538C156.047 22.2877 156.546 21.2382 157.324 20.3053C158.114 19.3594 159.202 18.608 160.589 18.0508C161.975 17.4937 163.679 17.2151 165.7 17.2151C167.553 17.2151 169.121 17.5131 170.404 18.1091C171.687 18.6922 172.658 19.6445 173.319 20.9661C173.992 22.2877 174.33 24.0563 174.33 26.2719V33.4047C174.33 33.8453 174.388 34.1368 174.504 34.2794C174.634 34.4219 174.899 34.4931 175.301 34.4931H176.254V38.7301H173.494C171.978 38.7301 170.825 38.3543 170.034 37.6028C169.257 36.8383 168.868 35.7434 168.868 34.3182V33.327L169.879 33.7157C169.71 34.2729 169.464 34.8689 169.14 35.5038C168.816 36.1387 168.363 36.7411 167.78 37.3112C167.21 37.8684 166.484 38.3284 165.603 38.6912C164.722 39.054 163.64 39.2353 162.358 39.2353ZM164.029 35.2705C164.936 35.2705 165.739 35.0632 166.439 34.6486C167.139 34.234 167.689 33.612 168.091 32.7828C168.492 31.9406 168.694 30.8976 168.694 29.6537V29.2067H166.245C164.858 29.2067 163.776 29.3881 162.999 29.7509C162.234 30.1137 161.697 30.5607 161.385 31.0919C161.075 31.6102 160.919 32.1155 160.919 32.6079C160.919 32.9966 161.01 33.3983 161.191 33.8129C161.385 34.2275 161.703 34.5773 162.144 34.8624C162.597 35.1345 163.225 35.2705 164.029 35.2705Z" fill="#525252"/>
<path id="Vector_9" d="M180.374 46.3098V42.0729H183.892C184.177 42.0729 184.384 42.0146 184.513 41.898C184.656 41.7814 184.786 41.5676 184.902 41.2566L185.971 38.3219L185.641 40.4209L176.506 17.7398H182.978L188.4 34.6875L187.837 34.6097L193.24 17.7398H199.692L189.936 42.8503C189.431 44.146 188.725 45.0465 187.818 45.5518C186.911 46.0572 185.848 46.3098 184.63 46.3098H180.374Z" fill="#525252"/>
</g>
</svg>
