<svg width="200" height="26" viewBox="0 0 200 26" fill="#525252" xmlns="http://www.w3.org/2000/svg">
<g id="CALIFORNIA-black 1" clip-path="url(#clip0_20818_2878)">
<path id="Vector" d="M12.4321 24.9614C10.6608 24.9614 9.02062 24.6639 7.51171 24.069C6.00281 23.4521 4.67978 22.6038 3.54264 21.5242C2.42737 20.4225 1.55264 19.1336 0.918464 17.6574C0.306154 16.1812 0 14.5838 0 12.8652C0 11.1246 0.306154 9.52716 0.918464 8.07299C1.55264 6.59677 2.42737 5.31885 3.54264 4.23923C4.67978 3.1596 5.99188 2.31133 7.47892 1.6944C8.98783 1.07747 10.617 0.769012 12.3665 0.769012C14.2034 0.769012 15.8544 1.06646 17.3196 1.66135C18.7848 2.23421 20.075 3.03842 21.1903 4.07396L17.254 8.03993C16.7073 7.42301 16.0294 6.93828 15.2203 6.58576C14.4111 6.23321 13.4599 6.05696 12.3665 6.05696C11.4261 6.05696 10.5623 6.21118 9.77509 6.51966C9.00969 6.82811 8.34273 7.29081 7.77414 7.90773C7.20556 8.50263 6.75727 9.21871 6.42926 10.056C6.1231 10.8932 5.97001 11.8296 5.97001 12.8652C5.97001 13.9007 6.1231 14.8371 6.42926 15.6744C6.75727 16.5117 7.20556 17.2388 7.77414 17.8557C8.34273 18.4506 9.00969 18.9133 9.77509 19.2438C10.5623 19.5522 11.4261 19.7065 12.3665 19.7065C13.4599 19.7065 14.4221 19.5412 15.2531 19.2107C16.084 18.8582 16.7948 18.3624 17.3852 17.7235L21.3215 21.6895C20.1843 22.725 18.8941 23.5292 17.4508 24.1021C16.0294 24.6749 14.3565 24.9614 12.4321 24.9614Z" fill="#525252"/>
<path id="Vector_2" d="M21.5774 24.5978L30.598 1.16562H36.2728L45.195 24.5978H39.0609L32.3365 4.90024H34.4687L27.5802 24.5978H21.5774Z" fill="#525252"/>
<path id="Vector_3" d="M47.3723 24.5978V1.16562H53.2438V24.5978H47.3723ZM52.0301 24.5978V19.5082H63.2484V24.5978H52.0301Z" fill="#525252"/>
<path id="Vector_4" d="M65.9838 24.5978V1.16562H71.8553V24.5978H65.9838Z" fill="#525252"/>
<path id="Vector_5" d="M75.9784 24.5978V1.16562H81.8499V24.5978H75.9784ZM80.6362 15.8397V10.8492H92.1498V15.8397H80.6362ZM80.6362 6.15611V1.16562H92.6747V6.15611H80.6362Z" fill="#525252"/>
<path id="Vector_6" d="M106.804 25.0275C105.01 25.0275 103.359 24.719 101.85 24.1021C100.342 23.4851 99.0185 22.6258 97.8813 21.5242C96.7661 20.4225 95.8913 19.1336 95.2571 17.6574C94.623 16.1591 94.3059 14.5507 94.3059 12.8321C94.3059 11.1136 94.612 9.52716 95.2244 8.07299C95.8584 6.59677 96.7332 5.30784 97.8484 4.20616C98.9639 3.10452 100.276 2.25625 101.785 1.66135C103.294 1.04443 104.945 0.735962 106.738 0.735962C108.531 0.735962 110.182 1.04443 111.691 1.66135C113.2 2.25625 114.512 3.10452 115.627 4.20616C116.743 5.30784 117.607 6.59677 118.219 8.07299C118.853 9.54921 119.17 11.1466 119.17 12.8652C119.17 14.5838 118.853 16.1812 118.219 17.6574C117.607 19.1336 116.743 20.4336 115.627 21.5573C114.512 22.6589 113.2 23.5182 111.691 24.1351C110.204 24.73 108.575 25.0275 106.804 25.0275ZM106.738 19.7395C108.05 19.7395 109.187 19.4531 110.149 18.8802C111.112 18.3074 111.855 17.5032 112.38 16.4676C112.905 15.432 113.167 14.2202 113.167 12.8321C113.167 11.8186 113.014 10.8932 112.708 10.056C112.424 9.21872 111.997 8.50263 111.429 7.90773C110.86 7.29081 110.182 6.8171 109.395 6.4866C108.608 6.1561 107.722 5.99086 106.738 5.99086C105.426 5.99086 104.289 6.27728 103.326 6.85016C102.364 7.40098 101.621 8.19418 101.096 9.22973C100.571 10.2653 100.309 11.4661 100.309 12.8321C100.309 13.8897 100.451 14.8482 100.735 15.7075C101.041 16.5447 101.479 17.2718 102.047 17.8887C102.616 18.4836 103.294 18.9463 104.081 19.2768C104.868 19.5853 105.754 19.7395 106.738 19.7395Z" fill="#525252"/>
<path id="Vector_7" d="M126.764 15.1126V10.8822H131.193C132.155 10.8822 132.887 10.6509 133.39 10.1882C133.915 9.70348 134.178 9.05349 134.178 8.23827C134.178 7.44507 133.915 6.80612 133.39 6.3214C132.887 5.81463 132.155 5.56127 131.193 5.56127H126.764V1.16565H132.013C133.587 1.16565 134.965 1.4631 136.146 2.05799C137.349 2.65289 138.289 3.46812 138.967 4.50367C139.645 5.53922 139.984 6.75104 139.984 8.13913C139.984 9.5272 139.634 10.75 138.934 11.8076C138.256 12.8432 137.305 13.6584 136.08 14.2533C134.855 14.8262 133.423 15.1126 131.783 15.1126H126.764ZM122.106 24.5979V1.16565H127.978V24.5979H122.106ZM134.702 24.5979L127.945 14.5508L133.226 13.2618L141.492 24.5979H134.702Z" fill="#525252"/>
<path id="Vector_8" d="M143.409 24.5978V1.16562H147.509L149.28 5.95781V24.5978H143.409ZM159.449 24.5978L145.869 7.21371L147.509 1.16562L161.122 18.5497L159.449 24.5978ZM159.449 24.5978L157.94 19.6734V1.16562H163.812V24.5978H159.449Z" fill="#525252"/>
<path id="Vector_9" d="M167.946 24.5978V1.16562H173.818V24.5978H167.946Z" fill="#525252"/>
<path id="Vector_10" d="M176.235 24.5978L185.256 1.16562H190.931L199.853 24.5978H193.719L186.994 4.90024H189.126L182.238 24.5978H176.235Z" fill="#525252"/>
</g>
<defs>
<clipPath id="clip0_20818_2878">
<rect width="200" height="24.2915" fill="white" transform="translate(0 0.735962)"/>
</clipPath>
</defs>
</svg>
