<svg width="802" height="158" viewBox="0 0 802 158" fill="none" xmlns="http://www.w3.org/2000/svg">
<g opacity="0.8">
<g filter="url(#filter0_dd_20836_8169)">
<rect x="49" y="2" width="60" height="60" rx="30" fill="#FAFAFA"/>
<g clip-path="url(#clip0_20836_8169)">
<path d="M94.9559 33.2H89.2402C84.2475 33.2 80.2002 37.2473 80.2002 42.24V47.9556C88.0801 47.3713 94.3716 41.0799 94.9559 33.2Z" fill="#6BC33F"/>
<path d="M77.8001 47.9556V42.24C77.8001 37.2473 73.7528 33.2 68.7601 33.2H63.0444C63.6287 41.0799 69.9202 47.3713 77.8001 47.9556Z" fill="#6BC33F"/>
<path d="M94.9559 30.7999C94.3716 22.9199 88.0801 16.6285 80.2002 16.0442V21.7599C80.2002 26.7525 84.2475 30.7999 89.2402 30.7999H94.9559Z" fill="#6BC33F"/>
<path d="M77.8001 16.0442C69.9202 16.6285 63.6287 22.9199 63.0444 30.7999H68.7601C73.7528 30.7999 77.8001 26.7525 77.8001 21.7599V16.0442Z" fill="#6BC33F"/>
<path d="M73.8665 31.9998C76.0845 30.8916 77.8921 29.084 79.0002 26.866C80.1085 29.084 81.916 30.8916 84.1341 31.9998C81.916 33.108 80.1085 34.9156 79.0002 37.1336C77.8921 34.9156 76.0845 33.108 73.8665 31.9998Z" fill="#6BC33F"/>
</g>
</g>
<g filter="url(#filter1_dd_20836_8169)">
<rect x="141" y="2" width="60" height="60" rx="30" fill="#FAFAFA"/>
<g clip-path="url(#clip1_20836_8169)">
<path fill-rule="evenodd" clip-rule="evenodd" d="M165.972 16C164.167 16 162.435 16.7171 161.159 17.9935L155 24.1525V26.9717C155 28.9634 155.856 30.7553 157.219 32C155.856 33.2446 155 35.0365 155 37.0283V39.8475L161.159 46.0065C162.435 47.2829 164.167 48 165.972 48C167.963 48 169.755 47.1445 171 45.7808C172.245 47.1445 174.037 48 176.028 48C177.833 48 179.565 47.2829 180.841 46.0065L187 39.8475V37.0283C187 35.0365 186.144 33.2446 184.781 32C186.144 30.7553 187 28.9634 187 26.9717V24.1525L180.841 17.9935C179.565 16.7171 177.833 16 176.028 16C174.037 16 172.245 16.8555 171 18.2192C169.755 16.8555 167.963 16 165.972 16ZM175.607 32C175.53 31.93 175.455 31.8581 175.381 31.7843L171 27.403L166.619 31.7843C166.545 31.8581 166.47 31.93 166.393 32C166.47 32.07 166.545 32.1419 166.619 32.2157L171 36.597L175.381 32.2157C175.455 32.1419 175.53 32.07 175.607 32ZM172.778 39.8475V41.1939C172.778 42.9891 174.233 44.4445 176.028 44.4445C176.89 44.4445 177.717 44.102 178.327 43.4924L183.444 38.3747V37.0283C183.444 35.2331 181.989 33.7777 180.194 33.7777C179.332 33.7777 178.505 34.1202 177.895 34.7298L172.778 39.8475ZM169.222 39.8475L164.105 34.7298C163.495 34.1202 162.668 33.7777 161.806 33.7777C160.011 33.7777 158.556 35.2331 158.556 37.0283V38.3747L163.673 43.4924C164.283 44.102 165.11 44.4445 165.972 44.4445C167.767 44.4445 169.222 42.9891 169.222 41.1939V39.8475ZM169.222 22.8061V24.1525L164.105 29.2701C163.495 29.8797 162.668 30.2222 161.806 30.2222C160.011 30.2222 158.556 28.7669 158.556 26.9717V25.6253L163.673 20.5076C164.283 19.898 165.11 19.5556 165.972 19.5556C167.767 19.5556 169.222 21.0109 169.222 22.8061ZM177.895 29.2701L172.778 24.1525V22.8061C172.778 21.0109 174.233 19.5556 176.028 19.5556C176.89 19.5556 177.717 19.898 178.327 20.5076L183.444 25.6253V26.9717C183.444 28.7669 181.989 30.2222 180.194 30.2222C179.332 30.2222 178.505 29.8797 177.895 29.2701Z" fill="#6BC33F"/>
</g>
</g>
<g filter="url(#filter2_dd_20836_8169)">
<rect x="233" y="2" width="60" height="60" rx="30" fill="#FAFAFA"/>
<g clip-path="url(#clip2_20836_8169)">
<path d="M278.956 33.2H273.24C268.247 33.2 264.2 37.2473 264.2 42.24V47.9556C272.08 47.3713 278.372 41.0799 278.956 33.2Z" fill="#6BC33F"/>
<path d="M261.8 47.9556V42.24C261.8 37.2473 257.753 33.2 252.76 33.2H247.044C247.629 41.0799 253.92 47.3713 261.8 47.9556Z" fill="#6BC33F"/>
<path d="M278.956 30.7999C278.372 22.9199 272.08 16.6285 264.2 16.0442V21.7599C264.2 26.7525 268.247 30.7999 273.24 30.7999H278.956Z" fill="#6BC33F"/>
<path d="M261.8 16.0442C253.92 16.6285 247.629 22.9199 247.044 30.7999H252.76C257.753 30.7999 261.8 26.7525 261.8 21.7599V16.0442Z" fill="#6BC33F"/>
<path d="M257.866 31.9998C260.084 30.8916 261.892 29.084 263 26.866C264.108 29.084 265.916 30.8916 268.134 31.9998C265.916 33.108 264.108 34.9156 263 37.1336C261.892 34.9156 260.084 33.108 257.866 31.9998Z" fill="#6BC33F"/>
</g>
</g>
<g filter="url(#filter3_dd_20836_8169)">
<rect x="325" y="2" width="60" height="60" rx="30" fill="#FAFAFA"/>
<g clip-path="url(#clip3_20836_8169)">
<path d="M354.162 24.8581C353.847 22.159 353.514 19.3092 353.514 16H356.486C356.486 19.272 356.155 22.1182 355.84 24.8203C355.584 27.0224 355.339 29.1288 355.293 31.292C356.785 29.7358 358.09 28.0856 359.458 26.357C361.143 24.2258 362.923 21.9756 365.263 19.6357L367.364 21.7368C365.051 24.0505 362.804 25.8289 360.671 27.5173L360.669 27.5188C358.931 28.8942 357.269 30.2099 355.708 31.7067C357.863 31.6612 359.953 31.4174 362.142 31.1619C364.841 30.8469 367.691 30.5143 371 30.5143V33.4857C367.728 33.4857 364.882 33.1546 362.18 32.8402L362.178 32.84C359.976 32.5838 357.871 32.3389 355.708 32.2933C357.263 33.7842 358.912 35.0887 360.64 36.455L360.643 36.4573C362.774 38.1431 365.024 39.9231 367.364 42.2632L365.263 44.3643C362.95 42.0507 361.171 39.804 359.483 37.6711L359.479 37.6656L359.476 37.6612C358.102 35.9265 356.788 34.267 355.293 32.708C355.339 34.8712 355.584 36.9776 355.84 39.1797C356.155 41.8818 356.486 44.728 356.486 48H353.514C353.514 44.6909 353.847 41.841 354.162 39.1419L354.162 39.1375C354.418 36.9502 354.661 34.8618 354.707 32.708C353.212 34.267 351.898 35.9265 350.524 37.6612L350.521 37.6656L350.517 37.6711C348.829 39.804 347.05 42.0507 344.737 44.3643L342.636 42.2632C344.976 39.9231 347.226 38.1431 349.357 36.4573L349.36 36.455C351.088 35.0887 352.737 33.7842 354.292 32.2933C352.129 32.339 350.022 32.584 347.82 32.8402C345.118 33.1546 342.272 33.4857 339 33.4857V30.5143C342.309 30.5143 345.159 30.8469 347.858 31.1619C350.047 31.4174 352.137 31.6612 354.292 31.7067C352.73 30.2094 351.067 28.8933 349.329 27.5173C347.196 25.8289 344.949 24.0505 342.636 21.7368L344.737 19.6357C347.077 21.9756 348.857 24.2258 350.542 26.357C351.91 28.0855 353.215 29.7357 354.707 31.2918C354.661 29.1382 354.418 27.0498 354.162 24.8625L354.162 24.8581Z" fill="#6BC33F"/>
</g>
</g>
<g filter="url(#filter4_dd_20836_8169)">
<rect x="417" y="2" width="60" height="60" rx="30" fill="#FAFAFA"/>
<g clip-path="url(#clip4_20836_8169)">
<path fill-rule="evenodd" clip-rule="evenodd" d="M439 16C443.418 16 447 19.5817 447 24V16H455C459.418 16 463 19.5817 463 24C463 28.4182 459.418 32 455 32C459.418 32 463 35.5818 463 40C463 42.1938 462.117 44.1814 460.687 45.6267L460.657 45.6569L460.63 45.6833C459.185 47.1154 457.196 48 455 48C452.819 48 450.842 47.1274 449.399 45.7124C449.38 45.694 449.362 45.6754 449.343 45.6569C449.326 45.6394 449.308 45.6218 449.291 45.6041C447.874 44.1607 447 42.1824 447 40C447 44.4182 443.418 48 439 48C434.582 48 431 44.4182 431 40V32H439C434.582 32 431 28.4182 431 24C431 19.5817 434.582 16 439 16ZM445.4 24C445.4 27.5346 442.535 30.4 439 30.4V17.6C442.535 17.6 445.4 20.4654 445.4 24ZM461.4 40C461.4 36.4654 458.535 33.6 455 33.6C451.465 33.6 448.6 36.4654 448.6 40H461.4ZM432.6 33.6V40C432.6 43.5346 435.465 46.4 439 46.4C442.535 46.4 445.4 43.5346 445.4 40V33.6H432.6ZM448.6 30.4V17.6H455C458.535 17.6 461.4 20.4654 461.4 24C461.4 27.5346 458.535 30.4 455 30.4H448.6Z" fill="#6BC33F"/>
</g>
</g>
<g filter="url(#filter5_dd_20836_8169)">
<rect x="509" y="2" width="60" height="60" rx="30" fill="#FAFAFA"/>
<g clip-path="url(#clip5_20836_8169)">
<path d="M539 16C547.837 16 555 23.1632 555 32V43.2C555 44.473 554.494 45.6939 553.594 46.5941C552.694 47.4943 551.473 48 550.2 48H539.8V40.9808C539.8 39.3792 539.898 37.72 540.738 36.3568C541.339 35.3799 542.144 34.5437 543.097 33.905C544.049 33.2664 545.129 32.8401 546.261 32.6552L546.567 32.6056C546.694 32.5624 546.803 32.4808 546.881 32.3722C546.959 32.2636 547 32.1335 547 32C547 31.8665 546.959 31.7364 546.881 31.6278C546.803 31.5192 546.694 31.4376 546.567 31.3944L546.261 31.3448C544.607 31.0746 543.079 30.2916 541.894 29.1063C540.709 27.9211 539.926 26.3935 539.655 24.7392L539.606 24.4328C539.563 24.3065 539.481 24.1968 539.372 24.1192C539.264 24.0415 539.134 23.9998 539 23.9998C538.867 23.9998 538.736 24.0415 538.628 24.1192C538.519 24.1968 538.438 24.3065 538.394 24.4328L538.345 24.7392C538.16 25.8714 537.734 26.9506 537.095 27.9036C536.456 28.8566 535.62 29.661 534.643 30.2624C533.28 31.1024 531.621 31.2 530.019 31.2H523.019C523.438 22.7352 530.432 16 539 16Z" fill="#6BC33F"/>
<path d="M523 32.8H530.019C531.621 32.8 533.28 32.8976 534.643 33.7376C535.709 34.3942 536.606 35.2912 537.262 36.3568C538.102 37.72 538.2 39.3792 538.2 40.9808V48H527.8C526.527 48 525.306 47.4943 524.406 46.5941C523.506 45.6939 523 44.473 523 43.2V32.8ZM555 17.6C555 18.0243 554.831 18.4313 554.531 18.7314C554.231 19.0314 553.824 19.2 553.4 19.2C552.976 19.2 552.569 19.0314 552.269 18.7314C551.969 18.4313 551.8 18.0243 551.8 17.6C551.8 17.1757 551.969 16.7687 552.269 16.4686C552.569 16.1686 552.976 16 553.4 16C553.824 16 554.231 16.1686 554.531 16.4686C554.831 16.7687 555 17.1757 555 17.6Z" fill="#6BC33F"/>
</g>
</g>
<g filter="url(#filter6_dd_20836_8169)">
<rect x="601" y="2" width="60" height="60" rx="30" fill="#FAFAFA"/>
<path d="M632.62 41.6892C632.648 38.752 631.904 36.3636 630.957 36.3543C630.009 36.3451 629.218 38.7186 629.19 41.6557C629.161 44.5928 629.905 46.9813 630.853 46.9906C631.8 46.9998 632.591 44.6263 632.62 41.6892Z" fill="#6BC33F"/>
<path d="M627.126 41.0223C628.738 38.567 629.403 36.1551 628.612 35.6352C627.82 35.1152 625.871 36.6841 624.259 39.1394C622.646 41.5947 621.981 44.0066 622.773 44.5266C623.565 45.0465 625.514 43.4776 627.126 41.0223Z" fill="#6BC33F"/>
<path d="M622.859 37.4996C625.543 36.3059 627.406 34.6365 627.021 33.771C626.636 32.9055 624.148 33.1716 621.465 34.3654C618.781 35.5591 616.917 37.2285 617.302 38.094C617.687 38.9595 620.175 38.6934 622.859 37.4996Z" fill="#6BC33F"/>
<path d="M626.699 31.3437C626.843 30.4074 624.606 29.2862 621.703 28.8394C618.8 28.3925 616.33 28.7893 616.186 29.7256C616.042 30.6618 618.278 31.783 621.181 32.2298C624.084 32.6767 626.555 32.2799 626.699 31.3437Z" fill="#6BC33F"/>
<path d="M627.741 29.1132C628.368 28.4034 627.093 26.2512 624.892 24.306C622.691 22.3609 620.398 21.3595 619.771 22.0692C619.144 22.7791 620.419 24.9313 622.62 26.8765C624.821 28.8216 627.114 29.823 627.741 29.1132Z" fill="#6BC33F"/>
<path d="M629.817 27.8098C630.728 27.5518 630.819 25.0515 630.019 22.2253C629.219 19.399 627.832 17.3169 626.921 17.5748C626.009 17.8327 625.919 20.333 626.718 23.1593C627.518 25.9856 628.905 28.0677 629.817 27.8098Z" fill="#6BC33F"/>
<path d="M635.453 23.2472C636.309 20.4372 636.267 17.9357 635.361 17.6598C634.455 17.384 633.027 19.4383 632.172 22.2483C631.316 25.0582 631.358 27.5598 632.264 27.8356C633.17 28.1115 634.598 26.0572 635.453 23.2472Z" fill="#6BC33F"/>
<path d="M639.481 27.0441C641.719 25.1423 643.037 23.0154 642.423 22.2935C641.81 21.5716 639.498 22.528 637.26 24.4297C635.021 26.3315 633.704 28.4584 634.317 29.1803C634.93 29.9022 637.242 28.9458 639.481 27.0441Z" fill="#6BC33F"/>
<path d="M640.813 32.4173C643.724 32.0278 645.982 30.9509 645.857 30.012C645.731 29.0731 643.269 28.6277 640.358 29.0171C637.447 29.4067 635.188 30.4835 635.314 31.4225C635.439 32.3613 637.901 32.8068 640.813 32.4173Z" fill="#6BC33F"/>
<path d="M644.568 38.3623C644.97 37.5045 643.14 35.7988 640.48 34.5523C637.821 33.3058 635.339 32.9908 634.937 33.8485C634.535 34.7063 636.365 36.4121 639.025 37.6585C641.684 38.9049 644.166 39.2201 644.568 38.3623Z" fill="#6BC33F"/>
<path d="M638.974 44.6913C639.776 44.1871 639.158 41.7625 637.595 39.2759C636.031 36.7893 634.114 35.1823 633.312 35.6865C632.51 36.1907 633.127 38.6153 634.691 41.1019C636.254 43.5885 638.172 45.1955 638.974 44.6913Z" fill="#6BC33F"/>
</g>
<g filter="url(#filter7_dd_20836_8169)">
<rect x="693" y="2" width="60" height="60" rx="30" fill="#FAFAFA"/>
<g clip-path="url(#clip6_20836_8169)">
<path fill-rule="evenodd" clip-rule="evenodd" d="M727.445 25.3482C726.129 24.4692 724.582 24 723 24V16C726.164 16 729.258 16.9384 731.889 18.6965C734.52 20.4546 736.571 22.9534 737.782 25.877C738.993 28.8006 739.31 32.0178 738.693 35.1214C738.075 38.2251 736.551 41.0761 734.314 43.3137C732.076 45.5514 729.225 47.0752 726.121 47.6926C723.018 48.3099 719.801 47.993 716.877 46.7821C713.953 45.571 711.455 43.5203 709.696 40.8891C707.938 38.2579 707 35.1645 707 32H715C715 33.5822 715.469 35.129 716.348 36.4446C717.227 37.7602 718.477 38.7855 719.939 39.391C721.4 39.9966 723.009 40.155 724.561 39.8462C726.113 39.5376 727.538 38.7757 728.657 37.6569C729.776 36.538 730.538 35.1126 730.846 33.5607C731.155 32.0089 730.997 30.4003 730.391 28.9386C729.786 27.4767 728.76 26.2273 727.445 25.3482Z" fill="#6BC33F"/>
<path fill-rule="evenodd" clip-rule="evenodd" d="M715 16C715 17.0506 714.793 18.0909 714.391 19.0615C713.989 20.0321 713.4 20.914 712.657 21.6569C711.914 22.3997 711.032 22.989 710.061 23.391C709.091 23.7931 708.051 24 707 24L707 32C709.101 32 711.182 31.5862 713.123 30.7821C715.064 29.978 716.828 28.7994 718.314 27.3137C719.799 25.828 720.978 24.0642 721.782 22.1229C722.586 20.1817 723 18.1011 723 16L715 16Z" fill="#6BC33F"/>
</g>
</g>
</g>
<g opacity="0.8">
<g filter="url(#filter8_dd_20836_8169)">
<rect x="3" y="94" width="60" height="60" rx="30" fill="#FAFAFA"/>
<g clip-path="url(#clip7_20836_8169)">
<path d="M48.9559 125.2H43.2402C38.2475 125.2 34.2002 129.247 34.2002 134.24V139.956C42.0801 139.371 48.3716 133.08 48.9559 125.2Z" fill="#6BC33F"/>
<path d="M31.8001 139.956V134.24C31.8001 129.247 27.7528 125.2 22.7601 125.2H17.0444C17.6287 133.08 23.9202 139.371 31.8001 139.956Z" fill="#6BC33F"/>
<path d="M48.9559 122.8C48.3716 114.92 42.0801 108.628 34.2002 108.044V113.76C34.2002 118.753 38.2475 122.8 43.2402 122.8H48.9559Z" fill="#6BC33F"/>
<path d="M31.8001 108.044C23.9202 108.628 17.6287 114.92 17.0444 122.8H22.7601C27.7528 122.8 31.8001 118.753 31.8001 113.76V108.044Z" fill="#6BC33F"/>
<path d="M27.8665 124C30.0845 122.892 31.8921 121.084 33.0002 118.866C34.1085 121.084 35.916 122.892 38.1341 124C35.916 125.108 34.1085 126.916 33.0002 129.134C31.8921 126.916 30.0845 125.108 27.8665 124Z" fill="#6BC33F"/>
</g>
</g>
<g filter="url(#filter9_dd_20836_8169)">
<rect x="95" y="94" width="60" height="60" rx="30" fill="#FAFAFA"/>
<g clip-path="url(#clip8_20836_8169)">
<path fill-rule="evenodd" clip-rule="evenodd" d="M119.972 108C118.167 108 116.435 108.717 115.159 109.993L109 116.152V118.972C109 120.963 109.856 122.755 111.219 124C109.856 125.245 109 127.037 109 129.028V131.848L115.159 138.007C116.435 139.283 118.167 140 119.972 140C121.963 140 123.755 139.144 125 137.781C126.245 139.144 128.037 140 130.028 140C131.833 140 133.565 139.283 134.841 138.007L141 131.848V129.028C141 127.037 140.144 125.245 138.781 124C140.144 122.755 141 120.963 141 118.972V116.152L134.841 109.993C133.565 108.717 131.833 108 130.028 108C128.037 108 126.245 108.856 125 110.219C123.755 108.856 121.963 108 119.972 108ZM129.607 124C129.53 123.93 129.455 123.858 129.381 123.784L125 119.403L120.619 123.784C120.545 123.858 120.47 123.93 120.393 124C120.47 124.07 120.545 124.142 120.619 124.216L125 128.597L129.381 124.216C129.455 124.142 129.53 124.07 129.607 124ZM126.778 131.848V133.194C126.778 134.989 128.233 136.444 130.028 136.444C130.89 136.444 131.717 136.102 132.327 135.492L137.444 130.375V129.028C137.444 127.233 135.989 125.778 134.194 125.778C133.332 125.778 132.505 126.12 131.895 126.73L126.778 131.848ZM123.222 131.848L118.105 126.73C117.495 126.12 116.668 125.778 115.806 125.778C114.011 125.778 112.556 127.233 112.556 129.028V130.375L117.673 135.492C118.283 136.102 119.11 136.444 119.972 136.444C121.767 136.444 123.222 134.989 123.222 133.194V131.848ZM123.222 114.806V116.152L118.105 121.27C117.495 121.88 116.668 122.222 115.806 122.222C114.011 122.222 112.556 120.767 112.556 118.972V117.625L117.673 112.508C118.283 111.898 119.11 111.556 119.972 111.556C121.767 111.556 123.222 113.011 123.222 114.806ZM131.895 121.27L126.778 116.152V114.806C126.778 113.011 128.233 111.556 130.028 111.556C130.89 111.556 131.717 111.898 132.327 112.508L137.444 117.625V118.972C137.444 120.767 135.989 122.222 134.194 122.222C133.332 122.222 132.505 121.88 131.895 121.27Z" fill="#6BC33F"/>
</g>
</g>
<g filter="url(#filter10_dd_20836_8169)">
<rect x="187" y="94" width="60" height="60" rx="30" fill="#FAFAFA"/>
<g clip-path="url(#clip9_20836_8169)">
<path d="M232.956 125.2H227.24C222.247 125.2 218.2 129.247 218.2 134.24V139.956C226.08 139.371 232.372 133.08 232.956 125.2Z" fill="#6BC33F"/>
<path d="M215.8 139.956V134.24C215.8 129.247 211.753 125.2 206.76 125.2H201.044C201.629 133.08 207.92 139.371 215.8 139.956Z" fill="#6BC33F"/>
<path d="M232.956 122.8C232.372 114.92 226.08 108.628 218.2 108.044V113.76C218.2 118.753 222.247 122.8 227.24 122.8H232.956Z" fill="#6BC33F"/>
<path d="M215.8 108.044C207.92 108.628 201.629 114.92 201.044 122.8H206.76C211.753 122.8 215.8 118.753 215.8 113.76V108.044Z" fill="#6BC33F"/>
<path d="M211.866 124C214.084 122.892 215.892 121.084 217 118.866C218.108 121.084 219.916 122.892 222.134 124C219.916 125.108 218.108 126.916 217 129.134C215.892 126.916 214.084 125.108 211.866 124Z" fill="#6BC33F"/>
</g>
</g>
<g filter="url(#filter11_dd_20836_8169)">
<rect x="279" y="94" width="60" height="60" rx="30" fill="#FAFAFA"/>
<g clip-path="url(#clip10_20836_8169)">
<path d="M309 108C317.837 108 325 115.163 325 124V135.2C325 136.473 324.494 137.694 323.594 138.594C322.694 139.494 321.473 140 320.2 140H309.8V132.981C309.8 131.379 309.898 129.72 310.738 128.357C311.339 127.38 312.144 126.544 313.097 125.905C314.049 125.266 315.129 124.84 316.261 124.655L316.567 124.606C316.694 124.562 316.803 124.481 316.881 124.372C316.959 124.264 317 124.133 317 124C317 123.867 316.959 123.736 316.881 123.628C316.803 123.519 316.694 123.438 316.567 123.394L316.261 123.345C314.607 123.075 313.079 122.292 311.894 121.106C310.709 119.921 309.926 118.393 309.655 116.739L309.606 116.433C309.563 116.306 309.481 116.197 309.372 116.119C309.264 116.042 309.134 116 309 116C308.867 116 308.736 116.042 308.628 116.119C308.519 116.197 308.438 116.306 308.394 116.433L308.345 116.739C308.16 117.871 307.734 118.951 307.095 119.904C306.456 120.857 305.62 121.661 304.643 122.262C303.28 123.102 301.621 123.2 300.019 123.2H293.019C293.438 114.735 300.432 108 309 108Z" fill="#6BC33F"/>
<path d="M293 124.8H300.019C301.621 124.8 303.28 124.898 304.643 125.738C305.709 126.394 306.606 127.291 307.262 128.357C308.102 129.72 308.2 131.379 308.2 132.981V140H297.8C296.527 140 295.306 139.494 294.406 138.594C293.506 137.694 293 136.473 293 135.2V124.8ZM325 109.6C325 110.024 324.831 110.431 324.531 110.731C324.231 111.031 323.824 111.2 323.4 111.2C322.976 111.2 322.569 111.031 322.269 110.731C321.969 110.431 321.8 110.024 321.8 109.6C321.8 109.176 321.969 108.769 322.269 108.469C322.569 108.169 322.976 108 323.4 108C323.824 108 324.231 108.169 324.531 108.469C324.831 108.769 325 109.176 325 109.6Z" fill="#6BC33F"/>
</g>
</g>
<g filter="url(#filter12_dd_20836_8169)">
<rect x="371" y="94" width="60" height="60" rx="30" fill="#FAFAFA"/>
<g clip-path="url(#clip11_20836_8169)">
<path fill-rule="evenodd" clip-rule="evenodd" d="M405.445 117.348C404.129 116.469 402.582 116 401 116V108C404.164 108 407.258 108.938 409.889 110.696C412.52 112.455 414.571 114.953 415.782 117.877C416.993 120.801 417.31 124.018 416.693 127.121C416.075 130.225 414.551 133.076 412.314 135.314C410.076 137.551 407.225 139.075 404.121 139.693C401.018 140.31 397.801 139.993 394.877 138.782C391.953 137.571 389.455 135.52 387.696 132.889C385.938 130.258 385 127.164 385 124H393C393 125.582 393.469 127.129 394.348 128.445C395.227 129.76 396.477 130.786 397.939 131.391C399.4 131.997 401.009 132.155 402.561 131.846C404.113 131.538 405.538 130.776 406.657 129.657C407.776 128.538 408.538 127.113 408.846 125.561C409.155 124.009 408.997 122.4 408.391 120.939C407.786 119.477 406.76 118.227 405.445 117.348Z" fill="#6BC33F"/>
<path fill-rule="evenodd" clip-rule="evenodd" d="M393 108C393 109.051 392.793 110.091 392.391 111.061C391.989 112.032 391.4 112.914 390.657 113.657C389.914 114.4 389.032 114.989 388.061 115.391C387.091 115.793 386.051 116 385 116L385 124C387.101 124 389.182 123.586 391.123 122.782C393.064 121.978 394.828 120.799 396.314 119.314C397.799 117.828 398.978 116.064 399.782 114.123C400.586 112.182 401 110.101 401 108L393 108Z" fill="#6BC33F"/>
</g>
</g>
<g filter="url(#filter13_dd_20836_8169)">
<rect x="463" y="94" width="60" height="60" rx="30" fill="#FAFAFA"/>
<path d="M493 130.4C489.465 130.4 486.6 127.535 486.6 124C486.6 120.465 489.465 117.6 493 117.6C496.535 117.6 499.4 120.465 499.4 124C499.4 127.535 496.535 130.4 493 130.4Z" fill="#6BC33F"/>
<path d="M480.601 126.186C478.747 126.513 477.476 128.305 478.187 130.048C479.181 132.482 480.767 134.651 482.823 136.346C485.763 138.769 489.47 140.064 493.279 139.997C497.088 139.931 500.749 138.507 503.602 135.983C505.597 134.218 507.107 131.995 508.015 129.528C508.666 127.76 507.333 126.014 505.468 125.752C503.603 125.49 501.928 126.847 501.007 128.49C500.508 129.38 499.86 130.188 499.083 130.875C497.446 132.324 495.346 133.14 493.16 133.178C490.975 133.217 488.848 132.474 487.161 131.083C486.361 130.424 485.685 129.639 485.155 128.767C484.177 127.157 482.456 125.859 480.601 126.186Z" fill="#6BC33F"/>
<path d="M508.876 125.999C508.958 125.344 509 124.677 509 124C509 115.163 501.837 108 493 108C484.163 108 477 115.163 477 124C477 124.869 477.069 125.722 477.203 126.553C477.938 125.547 479.085 124.829 480.323 124.611C481.664 124.374 482.882 124.699 483.912 125.307C483.851 124.88 483.82 124.444 483.82 124C483.82 118.93 487.93 114.82 493 114.82C498.07 114.82 502.18 118.93 502.18 124C502.18 124.334 502.162 124.664 502.127 124.989C503.136 124.346 504.342 123.978 505.69 124.168C506.936 124.343 508.107 125.02 508.876 125.999Z" fill="#6BC33F"/>
</g>
<g filter="url(#filter14_dd_20836_8169)">
<rect x="555" y="94" width="60" height="60" rx="30" fill="#FAFAFA"/>
<path d="M570.296 127.128C570.296 125.652 570.587 124.191 571.151 122.827C571.716 121.463 572.544 120.224 573.588 119.181C574.631 118.137 575.87 117.309 577.234 116.744C578.598 116.18 580.059 115.889 581.535 115.889V127.128H570.296Z" fill="#6BC33F"/>
<path d="M570.296 127.128C570.296 128.604 570.587 130.066 571.151 131.429C571.716 132.793 572.544 134.032 573.588 135.076C574.631 136.119 575.87 136.947 577.234 137.512C578.598 138.077 580.059 138.367 581.535 138.367V127.128H570.296Z" fill="#6BC33F"/>
<path d="M592.774 127.128C592.774 128.604 592.484 130.066 591.919 131.429C591.354 132.793 590.526 134.032 589.482 135.076C588.439 136.119 587.2 136.947 585.836 137.512C584.473 138.077 583.011 138.367 581.535 138.367V127.128H592.774Z" fill="#6BC33F"/>
<path d="M599.704 117.419C599.704 122.079 595.926 125.857 591.265 125.857H582.826V117.419C582.826 112.758 586.605 108.98 591.265 108.98C595.926 108.98 599.704 112.758 599.704 117.419Z" fill="#6BC33F"/>
</g>
<g filter="url(#filter15_dd_20836_8169)">
<rect x="647" y="94" width="60" height="60" rx="30" fill="#FAFAFA"/>
<path d="M660 133.182L660 114.394L669.394 119.613V128.015L676.909 132.242L684.424 128.015V119.613L693.818 114.394V133.182L676.909 142.576L660 133.182Z" fill="#6BC33F"/>
<path fill-rule="evenodd" clip-rule="evenodd" d="M664.697 117.003L660 114.394L676.909 105L693.818 114.394L689.121 117.003V130.833L676.909 137.879L664.697 130.833L664.697 117.003ZM688.612 117.286L684.424 119.613L684.424 119.561L676.909 115.333L669.394 119.561V119.613L665.206 117.286V130.544L676.909 137.296L688.612 130.544V117.286Z" fill="#6BC33F"/>
</g>
<g filter="url(#filter16_dd_20836_8169)">
<rect x="739" y="94" width="60" height="60" rx="30" fill="#FAFAFA"/>
<path d="M769.5 116.327C769.5 120.384 766.211 123.674 762.153 123.674H754.806V116.327C754.806 112.269 758.095 108.98 762.153 108.98C766.211 108.98 769.5 112.269 769.5 116.327Z" fill="#6BC33F"/>
<path d="M769.5 131.021C769.5 126.963 772.789 123.674 776.847 123.674H784.194V131.021C784.194 135.078 780.905 138.367 776.847 138.367C772.789 138.367 769.5 135.078 769.5 131.021Z" fill="#6BC33F"/>
<path d="M754.806 131.021C754.806 135.078 758.095 138.367 762.153 138.367H769.5V131.021C769.5 126.963 766.211 123.674 762.153 123.674C758.095 123.674 754.806 126.963 754.806 131.021Z" fill="#6BC33F"/>
<path d="M784.194 116.327C784.194 112.269 780.905 108.98 776.847 108.98H769.5V116.327C769.5 120.384 772.789 123.674 776.847 123.674C780.905 123.674 784.194 120.384 784.194 116.327Z" fill="#6BC33F"/>
</g>
</g>
<defs>
<filter id="filter0_dd_20836_8169" x="46" y="0" width="66" height="66" filterUnits="userSpaceOnUse" color-interpolation-filters="sRGB">
<feFlood flood-opacity="0" result="BackgroundImageFix"/>
<feColorMatrix in="SourceAlpha" type="matrix" values="0 0 0 0 0 0 0 0 0 0 0 0 0 0 0 0 0 0 127 0" result="hardAlpha"/>
<feMorphology radius="1" operator="erode" in="SourceAlpha" result="effect1_dropShadow_20836_8169"/>
<feOffset dy="1"/>
<feGaussianBlur stdDeviation="1"/>
<feComposite in2="hardAlpha" operator="out"/>
<feColorMatrix type="matrix" values="0 0 0 0 0.0392157 0 0 0 0 0.0496732 0 0 0 0 0.0705882 0 0 0 0.1 0"/>
<feBlend mode="normal" in2="BackgroundImageFix" result="effect1_dropShadow_20836_8169"/>
<feColorMatrix in="SourceAlpha" type="matrix" values="0 0 0 0 0 0 0 0 0 0 0 0 0 0 0 0 0 0 127 0" result="hardAlpha"/>
<feOffset dy="1"/>
<feGaussianBlur stdDeviation="1.5"/>
<feComposite in2="hardAlpha" operator="out"/>
<feColorMatrix type="matrix" values="0 0 0 0 0.0392157 0 0 0 0 0.0496732 0 0 0 0 0.0705882 0 0 0 0.1 0"/>
<feBlend mode="normal" in2="effect1_dropShadow_20836_8169" result="effect2_dropShadow_20836_8169"/>
<feBlend mode="normal" in="SourceGraphic" in2="effect2_dropShadow_20836_8169" result="shape"/>
</filter>
<filter id="filter1_dd_20836_8169" x="138" y="0" width="66" height="66" filterUnits="userSpaceOnUse" color-interpolation-filters="sRGB">
<feFlood flood-opacity="0" result="BackgroundImageFix"/>
<feColorMatrix in="SourceAlpha" type="matrix" values="0 0 0 0 0 0 0 0 0 0 0 0 0 0 0 0 0 0 127 0" result="hardAlpha"/>
<feMorphology radius="1" operator="erode" in="SourceAlpha" result="effect1_dropShadow_20836_8169"/>
<feOffset dy="1"/>
<feGaussianBlur stdDeviation="1"/>
<feComposite in2="hardAlpha" operator="out"/>
<feColorMatrix type="matrix" values="0 0 0 0 0.0392157 0 0 0 0 0.0496732 0 0 0 0 0.0705882 0 0 0 0.1 0"/>
<feBlend mode="normal" in2="BackgroundImageFix" result="effect1_dropShadow_20836_8169"/>
<feColorMatrix in="SourceAlpha" type="matrix" values="0 0 0 0 0 0 0 0 0 0 0 0 0 0 0 0 0 0 127 0" result="hardAlpha"/>
<feOffset dy="1"/>
<feGaussianBlur stdDeviation="1.5"/>
<feComposite in2="hardAlpha" operator="out"/>
<feColorMatrix type="matrix" values="0 0 0 0 0.0392157 0 0 0 0 0.0496732 0 0 0 0 0.0705882 0 0 0 0.1 0"/>
<feBlend mode="normal" in2="effect1_dropShadow_20836_8169" result="effect2_dropShadow_20836_8169"/>
<feBlend mode="normal" in="SourceGraphic" in2="effect2_dropShadow_20836_8169" result="shape"/>
</filter>
<filter id="filter2_dd_20836_8169" x="230" y="0" width="66" height="66" filterUnits="userSpaceOnUse" color-interpolation-filters="sRGB">
<feFlood flood-opacity="0" result="BackgroundImageFix"/>
<feColorMatrix in="SourceAlpha" type="matrix" values="0 0 0 0 0 0 0 0 0 0 0 0 0 0 0 0 0 0 127 0" result="hardAlpha"/>
<feMorphology radius="1" operator="erode" in="SourceAlpha" result="effect1_dropShadow_20836_8169"/>
<feOffset dy="1"/>
<feGaussianBlur stdDeviation="1"/>
<feComposite in2="hardAlpha" operator="out"/>
<feColorMatrix type="matrix" values="0 0 0 0 0.0392157 0 0 0 0 0.0496732 0 0 0 0 0.0705882 0 0 0 0.1 0"/>
<feBlend mode="normal" in2="BackgroundImageFix" result="effect1_dropShadow_20836_8169"/>
<feColorMatrix in="SourceAlpha" type="matrix" values="0 0 0 0 0 0 0 0 0 0 0 0 0 0 0 0 0 0 127 0" result="hardAlpha"/>
<feOffset dy="1"/>
<feGaussianBlur stdDeviation="1.5"/>
<feComposite in2="hardAlpha" operator="out"/>
<feColorMatrix type="matrix" values="0 0 0 0 0.0392157 0 0 0 0 0.0496732 0 0 0 0 0.0705882 0 0 0 0.1 0"/>
<feBlend mode="normal" in2="effect1_dropShadow_20836_8169" result="effect2_dropShadow_20836_8169"/>
<feBlend mode="normal" in="SourceGraphic" in2="effect2_dropShadow_20836_8169" result="shape"/>
</filter>
<filter id="filter3_dd_20836_8169" x="322" y="0" width="66" height="66" filterUnits="userSpaceOnUse" color-interpolation-filters="sRGB">
<feFlood flood-opacity="0" result="BackgroundImageFix"/>
<feColorMatrix in="SourceAlpha" type="matrix" values="0 0 0 0 0 0 0 0 0 0 0 0 0 0 0 0 0 0 127 0" result="hardAlpha"/>
<feMorphology radius="1" operator="erode" in="SourceAlpha" result="effect1_dropShadow_20836_8169"/>
<feOffset dy="1"/>
<feGaussianBlur stdDeviation="1"/>
<feComposite in2="hardAlpha" operator="out"/>
<feColorMatrix type="matrix" values="0 0 0 0 0.0392157 0 0 0 0 0.0496732 0 0 0 0 0.0705882 0 0 0 0.1 0"/>
<feBlend mode="normal" in2="BackgroundImageFix" result="effect1_dropShadow_20836_8169"/>
<feColorMatrix in="SourceAlpha" type="matrix" values="0 0 0 0 0 0 0 0 0 0 0 0 0 0 0 0 0 0 127 0" result="hardAlpha"/>
<feOffset dy="1"/>
<feGaussianBlur stdDeviation="1.5"/>
<feComposite in2="hardAlpha" operator="out"/>
<feColorMatrix type="matrix" values="0 0 0 0 0.0392157 0 0 0 0 0.0496732 0 0 0 0 0.0705882 0 0 0 0.1 0"/>
<feBlend mode="normal" in2="effect1_dropShadow_20836_8169" result="effect2_dropShadow_20836_8169"/>
<feBlend mode="normal" in="SourceGraphic" in2="effect2_dropShadow_20836_8169" result="shape"/>
</filter>
<filter id="filter4_dd_20836_8169" x="414" y="0" width="66" height="66" filterUnits="userSpaceOnUse" color-interpolation-filters="sRGB">
<feFlood flood-opacity="0" result="BackgroundImageFix"/>
<feColorMatrix in="SourceAlpha" type="matrix" values="0 0 0 0 0 0 0 0 0 0 0 0 0 0 0 0 0 0 127 0" result="hardAlpha"/>
<feMorphology radius="1" operator="erode" in="SourceAlpha" result="effect1_dropShadow_20836_8169"/>
<feOffset dy="1"/>
<feGaussianBlur stdDeviation="1"/>
<feComposite in2="hardAlpha" operator="out"/>
<feColorMatrix type="matrix" values="0 0 0 0 0.0392157 0 0 0 0 0.0496732 0 0 0 0 0.0705882 0 0 0 0.1 0"/>
<feBlend mode="normal" in2="BackgroundImageFix" result="effect1_dropShadow_20836_8169"/>
<feColorMatrix in="SourceAlpha" type="matrix" values="0 0 0 0 0 0 0 0 0 0 0 0 0 0 0 0 0 0 127 0" result="hardAlpha"/>
<feOffset dy="1"/>
<feGaussianBlur stdDeviation="1.5"/>
<feComposite in2="hardAlpha" operator="out"/>
<feColorMatrix type="matrix" values="0 0 0 0 0.0392157 0 0 0 0 0.0496732 0 0 0 0 0.0705882 0 0 0 0.1 0"/>
<feBlend mode="normal" in2="effect1_dropShadow_20836_8169" result="effect2_dropShadow_20836_8169"/>
<feBlend mode="normal" in="SourceGraphic" in2="effect2_dropShadow_20836_8169" result="shape"/>
</filter>
<filter id="filter5_dd_20836_8169" x="506" y="0" width="66" height="66" filterUnits="userSpaceOnUse" color-interpolation-filters="sRGB">
<feFlood flood-opacity="0" result="BackgroundImageFix"/>
<feColorMatrix in="SourceAlpha" type="matrix" values="0 0 0 0 0 0 0 0 0 0 0 0 0 0 0 0 0 0 127 0" result="hardAlpha"/>
<feMorphology radius="1" operator="erode" in="SourceAlpha" result="effect1_dropShadow_20836_8169"/>
<feOffset dy="1"/>
<feGaussianBlur stdDeviation="1"/>
<feComposite in2="hardAlpha" operator="out"/>
<feColorMatrix type="matrix" values="0 0 0 0 0.0392157 0 0 0 0 0.0496732 0 0 0 0 0.0705882 0 0 0 0.1 0"/>
<feBlend mode="normal" in2="BackgroundImageFix" result="effect1_dropShadow_20836_8169"/>
<feColorMatrix in="SourceAlpha" type="matrix" values="0 0 0 0 0 0 0 0 0 0 0 0 0 0 0 0 0 0 127 0" result="hardAlpha"/>
<feOffset dy="1"/>
<feGaussianBlur stdDeviation="1.5"/>
<feComposite in2="hardAlpha" operator="out"/>
<feColorMatrix type="matrix" values="0 0 0 0 0.0392157 0 0 0 0 0.0496732 0 0 0 0 0.0705882 0 0 0 0.1 0"/>
<feBlend mode="normal" in2="effect1_dropShadow_20836_8169" result="effect2_dropShadow_20836_8169"/>
<feBlend mode="normal" in="SourceGraphic" in2="effect2_dropShadow_20836_8169" result="shape"/>
</filter>
<filter id="filter6_dd_20836_8169" x="598" y="0" width="66" height="66" filterUnits="userSpaceOnUse" color-interpolation-filters="sRGB">
<feFlood flood-opacity="0" result="BackgroundImageFix"/>
<feColorMatrix in="SourceAlpha" type="matrix" values="0 0 0 0 0 0 0 0 0 0 0 0 0 0 0 0 0 0 127 0" result="hardAlpha"/>
<feMorphology radius="1" operator="erode" in="SourceAlpha" result="effect1_dropShadow_20836_8169"/>
<feOffset dy="1"/>
<feGaussianBlur stdDeviation="1"/>
<feComposite in2="hardAlpha" operator="out"/>
<feColorMatrix type="matrix" values="0 0 0 0 0.0392157 0 0 0 0 0.0496732 0 0 0 0 0.0705882 0 0 0 0.1 0"/>
<feBlend mode="normal" in2="BackgroundImageFix" result="effect1_dropShadow_20836_8169"/>
<feColorMatrix in="SourceAlpha" type="matrix" values="0 0 0 0 0 0 0 0 0 0 0 0 0 0 0 0 0 0 127 0" result="hardAlpha"/>
<feOffset dy="1"/>
<feGaussianBlur stdDeviation="1.5"/>
<feComposite in2="hardAlpha" operator="out"/>
<feColorMatrix type="matrix" values="0 0 0 0 0.0392157 0 0 0 0 0.0496732 0 0 0 0 0.0705882 0 0 0 0.1 0"/>
<feBlend mode="normal" in2="effect1_dropShadow_20836_8169" result="effect2_dropShadow_20836_8169"/>
<feBlend mode="normal" in="SourceGraphic" in2="effect2_dropShadow_20836_8169" result="shape"/>
</filter>
<filter id="filter7_dd_20836_8169" x="690" y="0" width="66" height="66" filterUnits="userSpaceOnUse" color-interpolation-filters="sRGB">
<feFlood flood-opacity="0" result="BackgroundImageFix"/>
<feColorMatrix in="SourceAlpha" type="matrix" values="0 0 0 0 0 0 0 0 0 0 0 0 0 0 0 0 0 0 127 0" result="hardAlpha"/>
<feMorphology radius="1" operator="erode" in="SourceAlpha" result="effect1_dropShadow_20836_8169"/>
<feOffset dy="1"/>
<feGaussianBlur stdDeviation="1"/>
<feComposite in2="hardAlpha" operator="out"/>
<feColorMatrix type="matrix" values="0 0 0 0 0.0392157 0 0 0 0 0.0496732 0 0 0 0 0.0705882 0 0 0 0.1 0"/>
<feBlend mode="normal" in2="BackgroundImageFix" result="effect1_dropShadow_20836_8169"/>
<feColorMatrix in="SourceAlpha" type="matrix" values="0 0 0 0 0 0 0 0 0 0 0 0 0 0 0 0 0 0 127 0" result="hardAlpha"/>
<feOffset dy="1"/>
<feGaussianBlur stdDeviation="1.5"/>
<feComposite in2="hardAlpha" operator="out"/>
<feColorMatrix type="matrix" values="0 0 0 0 0.0392157 0 0 0 0 0.0496732 0 0 0 0 0.0705882 0 0 0 0.1 0"/>
<feBlend mode="normal" in2="effect1_dropShadow_20836_8169" result="effect2_dropShadow_20836_8169"/>
<feBlend mode="normal" in="SourceGraphic" in2="effect2_dropShadow_20836_8169" result="shape"/>
</filter>
<filter id="filter8_dd_20836_8169" x="0" y="92" width="66" height="66" filterUnits="userSpaceOnUse" color-interpolation-filters="sRGB">
<feFlood flood-opacity="0" result="BackgroundImageFix"/>
<feColorMatrix in="SourceAlpha" type="matrix" values="0 0 0 0 0 0 0 0 0 0 0 0 0 0 0 0 0 0 127 0" result="hardAlpha"/>
<feMorphology radius="1" operator="erode" in="SourceAlpha" result="effect1_dropShadow_20836_8169"/>
<feOffset dy="1"/>
<feGaussianBlur stdDeviation="1"/>
<feComposite in2="hardAlpha" operator="out"/>
<feColorMatrix type="matrix" values="0 0 0 0 0.0392157 0 0 0 0 0.0496732 0 0 0 0 0.0705882 0 0 0 0.1 0"/>
<feBlend mode="normal" in2="BackgroundImageFix" result="effect1_dropShadow_20836_8169"/>
<feColorMatrix in="SourceAlpha" type="matrix" values="0 0 0 0 0 0 0 0 0 0 0 0 0 0 0 0 0 0 127 0" result="hardAlpha"/>
<feOffset dy="1"/>
<feGaussianBlur stdDeviation="1.5"/>
<feComposite in2="hardAlpha" operator="out"/>
<feColorMatrix type="matrix" values="0 0 0 0 0.0392157 0 0 0 0 0.0496732 0 0 0 0 0.0705882 0 0 0 0.1 0"/>
<feBlend mode="normal" in2="effect1_dropShadow_20836_8169" result="effect2_dropShadow_20836_8169"/>
<feBlend mode="normal" in="SourceGraphic" in2="effect2_dropShadow_20836_8169" result="shape"/>
</filter>
<filter id="filter9_dd_20836_8169" x="92" y="92" width="66" height="66" filterUnits="userSpaceOnUse" color-interpolation-filters="sRGB">
<feFlood flood-opacity="0" result="BackgroundImageFix"/>
<feColorMatrix in="SourceAlpha" type="matrix" values="0 0 0 0 0 0 0 0 0 0 0 0 0 0 0 0 0 0 127 0" result="hardAlpha"/>
<feMorphology radius="1" operator="erode" in="SourceAlpha" result="effect1_dropShadow_20836_8169"/>
<feOffset dy="1"/>
<feGaussianBlur stdDeviation="1"/>
<feComposite in2="hardAlpha" operator="out"/>
<feColorMatrix type="matrix" values="0 0 0 0 0.0392157 0 0 0 0 0.0496732 0 0 0 0 0.0705882 0 0 0 0.1 0"/>
<feBlend mode="normal" in2="BackgroundImageFix" result="effect1_dropShadow_20836_8169"/>
<feColorMatrix in="SourceAlpha" type="matrix" values="0 0 0 0 0 0 0 0 0 0 0 0 0 0 0 0 0 0 127 0" result="hardAlpha"/>
<feOffset dy="1"/>
<feGaussianBlur stdDeviation="1.5"/>
<feComposite in2="hardAlpha" operator="out"/>
<feColorMatrix type="matrix" values="0 0 0 0 0.0392157 0 0 0 0 0.0496732 0 0 0 0 0.0705882 0 0 0 0.1 0"/>
<feBlend mode="normal" in2="effect1_dropShadow_20836_8169" result="effect2_dropShadow_20836_8169"/>
<feBlend mode="normal" in="SourceGraphic" in2="effect2_dropShadow_20836_8169" result="shape"/>
</filter>
<filter id="filter10_dd_20836_8169" x="184" y="92" width="66" height="66" filterUnits="userSpaceOnUse" color-interpolation-filters="sRGB">
<feFlood flood-opacity="0" result="BackgroundImageFix"/>
<feColorMatrix in="SourceAlpha" type="matrix" values="0 0 0 0 0 0 0 0 0 0 0 0 0 0 0 0 0 0 127 0" result="hardAlpha"/>
<feMorphology radius="1" operator="erode" in="SourceAlpha" result="effect1_dropShadow_20836_8169"/>
<feOffset dy="1"/>
<feGaussianBlur stdDeviation="1"/>
<feComposite in2="hardAlpha" operator="out"/>
<feColorMatrix type="matrix" values="0 0 0 0 0.0392157 0 0 0 0 0.0496732 0 0 0 0 0.0705882 0 0 0 0.1 0"/>
<feBlend mode="normal" in2="BackgroundImageFix" result="effect1_dropShadow_20836_8169"/>
<feColorMatrix in="SourceAlpha" type="matrix" values="0 0 0 0 0 0 0 0 0 0 0 0 0 0 0 0 0 0 127 0" result="hardAlpha"/>
<feOffset dy="1"/>
<feGaussianBlur stdDeviation="1.5"/>
<feComposite in2="hardAlpha" operator="out"/>
<feColorMatrix type="matrix" values="0 0 0 0 0.0392157 0 0 0 0 0.0496732 0 0 0 0 0.0705882 0 0 0 0.1 0"/>
<feBlend mode="normal" in2="effect1_dropShadow_20836_8169" result="effect2_dropShadow_20836_8169"/>
<feBlend mode="normal" in="SourceGraphic" in2="effect2_dropShadow_20836_8169" result="shape"/>
</filter>
<filter id="filter11_dd_20836_8169" x="276" y="92" width="66" height="66" filterUnits="userSpaceOnUse" color-interpolation-filters="sRGB">
<feFlood flood-opacity="0" result="BackgroundImageFix"/>
<feColorMatrix in="SourceAlpha" type="matrix" values="0 0 0 0 0 0 0 0 0 0 0 0 0 0 0 0 0 0 127 0" result="hardAlpha"/>
<feMorphology radius="1" operator="erode" in="SourceAlpha" result="effect1_dropShadow_20836_8169"/>
<feOffset dy="1"/>
<feGaussianBlur stdDeviation="1"/>
<feComposite in2="hardAlpha" operator="out"/>
<feColorMatrix type="matrix" values="0 0 0 0 0.0392157 0 0 0 0 0.0496732 0 0 0 0 0.0705882 0 0 0 0.1 0"/>
<feBlend mode="normal" in2="BackgroundImageFix" result="effect1_dropShadow_20836_8169"/>
<feColorMatrix in="SourceAlpha" type="matrix" values="0 0 0 0 0 0 0 0 0 0 0 0 0 0 0 0 0 0 127 0" result="hardAlpha"/>
<feOffset dy="1"/>
<feGaussianBlur stdDeviation="1.5"/>
<feComposite in2="hardAlpha" operator="out"/>
<feColorMatrix type="matrix" values="0 0 0 0 0.0392157 0 0 0 0 0.0496732 0 0 0 0 0.0705882 0 0 0 0.1 0"/>
<feBlend mode="normal" in2="effect1_dropShadow_20836_8169" result="effect2_dropShadow_20836_8169"/>
<feBlend mode="normal" in="SourceGraphic" in2="effect2_dropShadow_20836_8169" result="shape"/>
</filter>
<filter id="filter12_dd_20836_8169" x="368" y="92" width="66" height="66" filterUnits="userSpaceOnUse" color-interpolation-filters="sRGB">
<feFlood flood-opacity="0" result="BackgroundImageFix"/>
<feColorMatrix in="SourceAlpha" type="matrix" values="0 0 0 0 0 0 0 0 0 0 0 0 0 0 0 0 0 0 127 0" result="hardAlpha"/>
<feMorphology radius="1" operator="erode" in="SourceAlpha" result="effect1_dropShadow_20836_8169"/>
<feOffset dy="1"/>
<feGaussianBlur stdDeviation="1"/>
<feComposite in2="hardAlpha" operator="out"/>
<feColorMatrix type="matrix" values="0 0 0 0 0.0392157 0 0 0 0 0.0496732 0 0 0 0 0.0705882 0 0 0 0.1 0"/>
<feBlend mode="normal" in2="BackgroundImageFix" result="effect1_dropShadow_20836_8169"/>
<feColorMatrix in="SourceAlpha" type="matrix" values="0 0 0 0 0 0 0 0 0 0 0 0 0 0 0 0 0 0 127 0" result="hardAlpha"/>
<feOffset dy="1"/>
<feGaussianBlur stdDeviation="1.5"/>
<feComposite in2="hardAlpha" operator="out"/>
<feColorMatrix type="matrix" values="0 0 0 0 0.0392157 0 0 0 0 0.0496732 0 0 0 0 0.0705882 0 0 0 0.1 0"/>
<feBlend mode="normal" in2="effect1_dropShadow_20836_8169" result="effect2_dropShadow_20836_8169"/>
<feBlend mode="normal" in="SourceGraphic" in2="effect2_dropShadow_20836_8169" result="shape"/>
</filter>
<filter id="filter13_dd_20836_8169" x="460" y="92" width="66" height="66" filterUnits="userSpaceOnUse" color-interpolation-filters="sRGB">
<feFlood flood-opacity="0" result="BackgroundImageFix"/>
<feColorMatrix in="SourceAlpha" type="matrix" values="0 0 0 0 0 0 0 0 0 0 0 0 0 0 0 0 0 0 127 0" result="hardAlpha"/>
<feMorphology radius="1" operator="erode" in="SourceAlpha" result="effect1_dropShadow_20836_8169"/>
<feOffset dy="1"/>
<feGaussianBlur stdDeviation="1"/>
<feComposite in2="hardAlpha" operator="out"/>
<feColorMatrix type="matrix" values="0 0 0 0 0.0392157 0 0 0 0 0.0496732 0 0 0 0 0.0705882 0 0 0 0.1 0"/>
<feBlend mode="normal" in2="BackgroundImageFix" result="effect1_dropShadow_20836_8169"/>
<feColorMatrix in="SourceAlpha" type="matrix" values="0 0 0 0 0 0 0 0 0 0 0 0 0 0 0 0 0 0 127 0" result="hardAlpha"/>
<feOffset dy="1"/>
<feGaussianBlur stdDeviation="1.5"/>
<feComposite in2="hardAlpha" operator="out"/>
<feColorMatrix type="matrix" values="0 0 0 0 0.0392157 0 0 0 0 0.0496732 0 0 0 0 0.0705882 0 0 0 0.1 0"/>
<feBlend mode="normal" in2="effect1_dropShadow_20836_8169" result="effect2_dropShadow_20836_8169"/>
<feBlend mode="normal" in="SourceGraphic" in2="effect2_dropShadow_20836_8169" result="shape"/>
</filter>
<filter id="filter14_dd_20836_8169" x="552" y="92" width="66" height="66" filterUnits="userSpaceOnUse" color-interpolation-filters="sRGB">
<feFlood flood-opacity="0" result="BackgroundImageFix"/>
<feColorMatrix in="SourceAlpha" type="matrix" values="0 0 0 0 0 0 0 0 0 0 0 0 0 0 0 0 0 0 127 0" result="hardAlpha"/>
<feMorphology radius="1" operator="erode" in="SourceAlpha" result="effect1_dropShadow_20836_8169"/>
<feOffset dy="1"/>
<feGaussianBlur stdDeviation="1"/>
<feComposite in2="hardAlpha" operator="out"/>
<feColorMatrix type="matrix" values="0 0 0 0 0.0392157 0 0 0 0 0.0496732 0 0 0 0 0.0705882 0 0 0 0.1 0"/>
<feBlend mode="normal" in2="BackgroundImageFix" result="effect1_dropShadow_20836_8169"/>
<feColorMatrix in="SourceAlpha" type="matrix" values="0 0 0 0 0 0 0 0 0 0 0 0 0 0 0 0 0 0 127 0" result="hardAlpha"/>
<feOffset dy="1"/>
<feGaussianBlur stdDeviation="1.5"/>
<feComposite in2="hardAlpha" operator="out"/>
<feColorMatrix type="matrix" values="0 0 0 0 0.0392157 0 0 0 0 0.0496732 0 0 0 0 0.0705882 0 0 0 0.1 0"/>
<feBlend mode="normal" in2="effect1_dropShadow_20836_8169" result="effect2_dropShadow_20836_8169"/>
<feBlend mode="normal" in="SourceGraphic" in2="effect2_dropShadow_20836_8169" result="shape"/>
</filter>
<filter id="filter15_dd_20836_8169" x="644" y="92" width="66" height="66" filterUnits="userSpaceOnUse" color-interpolation-filters="sRGB">
<feFlood flood-opacity="0" result="BackgroundImageFix"/>
<feColorMatrix in="SourceAlpha" type="matrix" values="0 0 0 0 0 0 0 0 0 0 0 0 0 0 0 0 0 0 127 0" result="hardAlpha"/>
<feMorphology radius="1" operator="erode" in="SourceAlpha" result="effect1_dropShadow_20836_8169"/>
<feOffset dy="1"/>
<feGaussianBlur stdDeviation="1"/>
<feComposite in2="hardAlpha" operator="out"/>
<feColorMatrix type="matrix" values="0 0 0 0 0.0392157 0 0 0 0 0.0496732 0 0 0 0 0.0705882 0 0 0 0.1 0"/>
<feBlend mode="normal" in2="BackgroundImageFix" result="effect1_dropShadow_20836_8169"/>
<feColorMatrix in="SourceAlpha" type="matrix" values="0 0 0 0 0 0 0 0 0 0 0 0 0 0 0 0 0 0 127 0" result="hardAlpha"/>
<feOffset dy="1"/>
<feGaussianBlur stdDeviation="1.5"/>
<feComposite in2="hardAlpha" operator="out"/>
<feColorMatrix type="matrix" values="0 0 0 0 0.0392157 0 0 0 0 0.0496732 0 0 0 0 0.0705882 0 0 0 0.1 0"/>
<feBlend mode="normal" in2="effect1_dropShadow_20836_8169" result="effect2_dropShadow_20836_8169"/>
<feBlend mode="normal" in="SourceGraphic" in2="effect2_dropShadow_20836_8169" result="shape"/>
</filter>
<filter id="filter16_dd_20836_8169" x="736" y="92" width="66" height="66" filterUnits="userSpaceOnUse" color-interpolation-filters="sRGB">
<feFlood flood-opacity="0" result="BackgroundImageFix"/>
<feColorMatrix in="SourceAlpha" type="matrix" values="0 0 0 0 0 0 0 0 0 0 0 0 0 0 0 0 0 0 127 0" result="hardAlpha"/>
<feMorphology radius="1" operator="erode" in="SourceAlpha" result="effect1_dropShadow_20836_8169"/>
<feOffset dy="1"/>
<feGaussianBlur stdDeviation="1"/>
<feComposite in2="hardAlpha" operator="out"/>
<feColorMatrix type="matrix" values="0 0 0 0 0.0392157 0 0 0 0 0.0496732 0 0 0 0 0.0705882 0 0 0 0.1 0"/>
<feBlend mode="normal" in2="BackgroundImageFix" result="effect1_dropShadow_20836_8169"/>
<feColorMatrix in="SourceAlpha" type="matrix" values="0 0 0 0 0 0 0 0 0 0 0 0 0 0 0 0 0 0 127 0" result="hardAlpha"/>
<feOffset dy="1"/>
<feGaussianBlur stdDeviation="1.5"/>
<feComposite in2="hardAlpha" operator="out"/>
<feColorMatrix type="matrix" values="0 0 0 0 0.0392157 0 0 0 0 0.0496732 0 0 0 0 0.0705882 0 0 0 0.1 0"/>
<feBlend mode="normal" in2="effect1_dropShadow_20836_8169" result="effect2_dropShadow_20836_8169"/>
<feBlend mode="normal" in="SourceGraphic" in2="effect2_dropShadow_20836_8169" result="shape"/>
</filter>
<clipPath id="clip0_20836_8169">
<rect width="32" height="32" fill="white" transform="translate(63 16)"/>
</clipPath>
<clipPath id="clip1_20836_8169">
<rect width="32" height="32" fill="white" transform="translate(155 16)"/>
</clipPath>
<clipPath id="clip2_20836_8169">
<rect width="32" height="32" fill="white" transform="translate(247 16)"/>
</clipPath>
<clipPath id="clip3_20836_8169">
<rect width="32" height="32" fill="white" transform="translate(339 16)"/>
</clipPath>
<clipPath id="clip4_20836_8169">
<rect width="32" height="32" fill="white" transform="translate(431 16)"/>
</clipPath>
<clipPath id="clip5_20836_8169">
<rect width="32" height="32" fill="white" transform="translate(523 16)"/>
</clipPath>
<clipPath id="clip6_20836_8169">
<rect width="32" height="32" fill="white" transform="translate(707 16)"/>
</clipPath>
<clipPath id="clip7_20836_8169">
<rect width="32" height="32" fill="white" transform="translate(17 108)"/>
</clipPath>
<clipPath id="clip8_20836_8169">
<rect width="32" height="32" fill="white" transform="translate(109 108)"/>
</clipPath>
<clipPath id="clip9_20836_8169">
<rect width="32" height="32" fill="white" transform="translate(201 108)"/>
</clipPath>
<clipPath id="clip10_20836_8169">
<rect width="32" height="32" fill="white" transform="translate(293 108)"/>
</clipPath>
<clipPath id="clip11_20836_8169">
<rect width="32" height="32" fill="white" transform="translate(385 108)"/>
</clipPath>
</defs>
</svg>
