<svg width="149" height="45" viewBox="0 0 149 45" fill="none" xmlns="http://www.w3.org/2000/svg">
<rect x="0.5" y="0.890137" width="147.5" height="43" rx="6.5" fill="black"/>
<rect x="0.5" y="0.890137" width="147.5" height="43" rx="6.5" stroke="#535862"/>
<path d="M74.9496 24.3165C72.3624 24.3165 70.2537 26.2844 70.2537 28.9948C70.2537 31.6887 72.3624 33.6731 74.9496 33.6731C77.5379 33.6731 79.6466 31.6887 79.6466 28.9948C79.6455 26.2844 77.5368 24.3165 74.9496 24.3165ZM74.9496 31.8317C73.5317 31.8317 72.3096 30.6624 72.3096 28.9959C72.3096 27.3118 73.5328 26.1601 74.9496 26.1601C76.3675 26.1601 77.5896 27.3118 77.5896 28.9959C77.5896 30.6613 76.3675 31.8317 74.9496 31.8317ZM64.7042 24.3165C62.117 24.3165 60.0083 26.2844 60.0083 28.9948C60.0083 31.6887 62.117 33.6731 64.7042 33.6731C67.2925 33.6731 69.4012 31.6887 69.4012 28.9948C69.4012 26.2844 67.2925 24.3165 64.7042 24.3165ZM64.7042 31.8317C63.2863 31.8317 62.0642 30.6624 62.0642 28.9959C62.0642 27.3118 63.2874 26.1601 64.7042 26.1601C66.1221 26.1601 67.3442 27.3118 67.3442 28.9959C67.3453 30.6613 66.1221 31.8317 64.7042 31.8317ZM52.5184 25.7531V27.7375H57.2682C57.1263 28.854 56.7545 29.6691 56.1869 30.2356C55.4961 30.9264 54.4148 31.6887 52.5184 31.6887C49.5946 31.6887 47.3088 29.3314 47.3088 26.4076C47.3088 23.4838 49.5946 21.1265 52.5184 21.1265C54.0958 21.1265 55.2475 21.7469 56.0978 22.5444L57.4981 21.1441C56.3101 20.01 54.7338 19.1421 52.5184 19.1421C48.5133 19.1421 45.1462 22.4025 45.1462 26.4076C45.1462 30.4127 48.5133 33.6731 52.5184 33.6731C54.6799 33.6731 56.3112 32.9636 57.5861 31.6348C58.8973 30.3236 59.3054 28.48 59.3054 26.9917C59.3054 26.5319 59.2702 26.1062 59.1987 25.752H52.5184V25.7531ZM102.357 27.2942C101.968 26.2492 100.78 24.3165 98.3521 24.3165C95.942 24.3165 93.9389 26.2129 93.9389 28.9948C93.9389 31.6172 95.9244 33.6731 98.582 33.6731C100.726 33.6731 101.967 32.3619 102.481 31.5996L100.886 30.5359C100.355 31.3158 99.6281 31.8295 98.582 31.8295C97.537 31.8295 96.7923 31.351 96.3138 30.4116L102.569 27.8244L102.357 27.2942ZM95.9772 28.854C95.9244 27.0456 97.3775 26.1249 98.4236 26.1249C99.2387 26.1249 99.9295 26.533 100.16 27.1171L95.9772 28.854ZM90.8919 33.3904H92.9467V19.6393H90.8919V33.3904ZM87.5237 25.3626H87.4533C86.9924 24.8126 86.1058 24.3165 84.9904 24.3165C82.6507 24.3165 80.5068 26.3724 80.5068 29.0135C80.5068 31.6359 82.6507 33.6742 84.9904 33.6742C86.1069 33.6742 86.9924 33.1781 87.4533 32.6116H87.5237V33.2848C87.5237 35.0745 86.5667 36.0315 85.0256 36.0315C83.7672 36.0315 82.9873 35.1284 82.6683 34.3661L80.8786 35.1108C81.3923 36.3505 82.7563 37.8751 85.0256 37.8751C87.4357 37.8751 89.474 36.4572 89.474 33.001V24.6014H87.5248V25.3626H87.5237ZM85.1675 31.8317C83.7496 31.8317 82.5627 30.6437 82.5627 29.0135C82.5627 27.3646 83.7496 26.1601 85.1675 26.1601C86.5667 26.1601 87.6656 27.3646 87.6656 29.0135C87.6656 30.6437 86.5667 31.8317 85.1675 31.8317ZM111.987 19.6393H107.068V33.3904H109.12V28.1808H111.985C114.26 28.1808 116.498 26.5341 116.498 23.9106C116.498 21.2871 114.261 19.6393 111.987 19.6393ZM112.039 26.2668H109.12V21.5533H112.039C113.574 21.5533 114.445 22.8238 114.445 23.9106C114.445 24.9754 113.574 26.2668 112.039 26.2668ZM124.725 24.2923C123.238 24.2923 121.7 24.9468 121.063 26.3977L122.884 27.1578C123.274 26.3977 124 26.1491 124.76 26.1491C125.821 26.1491 126.9 26.786 126.918 27.9179V28.0598C126.546 27.8475 125.75 27.5296 124.777 27.5296C122.814 27.5296 120.814 28.6087 120.814 30.625C120.814 32.4653 122.424 33.65 124.228 33.65C125.608 33.65 126.369 33.0307 126.846 32.3047H126.917V33.3662H128.899V28.0939C128.9 25.6541 127.076 24.2923 124.725 24.2923ZM124.476 31.8284C123.805 31.8284 122.867 31.4918 122.867 30.6602C122.867 29.5987 124.035 29.1917 125.044 29.1917C125.944 29.1917 126.37 29.3864 126.918 29.6515C126.758 30.9264 125.662 31.8284 124.476 31.8284ZM136.117 24.5926L133.764 30.5546H133.694L131.252 24.5926H129.041L132.703 32.9251L130.615 37.5605H132.756L138.4 24.5926H136.117ZM117.631 33.3904H119.682V19.6393H117.631V33.3904Z" fill="white"/>
<path d="M52.1599 11.6572C52.1599 12.579 51.8871 13.3127 51.3404 13.8605C50.72 14.5117 49.9104 14.8373 48.916 14.8373C47.9634 14.8373 47.1527 14.5073 46.4872 13.8473C45.8206 13.1862 45.4873 12.3678 45.4873 11.391C45.4873 10.4131 45.8206 9.59465 46.4872 8.93465C47.1527 8.27355 47.9634 7.94356 48.916 7.94356C49.389 7.94356 49.8411 8.03595 50.2701 8.21965C50.7002 8.40445 51.0445 8.64976 51.3019 8.95666L50.7222 9.53745C50.2855 9.01495 49.6838 8.75425 48.9149 8.75425C48.2197 8.75425 47.6191 8.99846 47.112 9.48686C46.6049 9.97526 46.3519 10.61 46.3519 11.3899C46.3519 12.1698 46.6049 12.8045 47.112 13.2929C47.6191 13.7813 48.2197 14.0255 48.9149 14.0255C49.6519 14.0255 50.2668 13.7802 50.7585 13.2885C51.0775 12.9684 51.2623 12.5229 51.3118 11.952H48.9149V11.1589H52.1126C52.1456 11.3316 52.1599 11.4977 52.1599 11.6572Z" fill="white"/>
<path d="M57.231 8.90062H54.2258V10.9928H56.9362V11.7859H54.2258V13.8781H57.231V14.6899H53.3777V8.08992H57.231V8.90062Z" fill="white"/>
<path d="M60.8069 14.6899H59.9588V8.90062H58.1152V8.08992H62.6505V8.90062H60.8069V14.6899Z" fill="white"/>
<path d="M65.9318 14.6899V8.08992H66.7799V14.6899H65.9318Z" fill="white"/>
<path d="M70.541 14.6899H69.6929V8.90062H67.8493V8.08992H72.3846V8.90062H70.541V14.6899Z" fill="white"/>
<path d="M80.9698 13.8374C80.3208 14.504 79.5145 14.8373 78.5498 14.8373C77.5851 14.8373 76.7788 14.504 76.1309 13.8374C75.4819 13.1708 75.1585 12.3546 75.1585 11.3899C75.1585 10.4252 75.4819 9.60901 76.1309 8.94241C76.7788 8.27581 77.5851 7.94141 78.5498 7.94141C79.509 7.94141 80.3142 8.27691 80.9654 8.94681C81.6166 9.61671 81.9422 10.4307 81.9422 11.3899C81.9422 12.3546 81.6177 13.1708 80.9698 13.8374ZM76.7568 13.2841C77.2452 13.7791 77.8425 14.0255 78.5498 14.0255C79.2571 14.0255 79.8555 13.778 80.3428 13.2841C80.8312 12.7891 81.0765 12.1577 81.0765 11.3899C81.0765 10.6221 80.8312 9.99071 80.3428 9.49571C79.8555 9.00071 79.2571 8.75431 78.5498 8.75431C77.8425 8.75431 77.2452 9.00181 76.7568 9.49571C76.2695 9.99071 76.0242 10.6221 76.0242 11.3899C76.0242 12.1577 76.2695 12.7891 76.7568 13.2841Z" fill="white"/>
<path d="M83.1324 14.6899V8.08992H84.1642L87.3718 13.2236H87.4081L87.3718 11.952V8.08992H88.2199V14.6899H87.3344L83.9783 9.30652H83.942L83.9783 10.5781V14.6899H83.1324Z" fill="white"/>
<path d="M52.1599 11.6572C52.1599 12.579 51.8871 13.3127 51.3404 13.8605C50.72 14.5117 49.9104 14.8373 48.916 14.8373C47.9634 14.8373 47.1527 14.5073 46.4872 13.8473C45.8206 13.1862 45.4873 12.3678 45.4873 11.391C45.4873 10.4131 45.8206 9.59465 46.4872 8.93465C47.1527 8.27355 47.9634 7.94356 48.916 7.94356C49.389 7.94356 49.8411 8.03595 50.2701 8.21965C50.7002 8.40445 51.0445 8.64976 51.3019 8.95666L50.7222 9.53745C50.2855 9.01495 49.6838 8.75425 48.9149 8.75425C48.2197 8.75425 47.6191 8.99846 47.112 9.48686C46.6049 9.97526 46.3519 10.61 46.3519 11.3899C46.3519 12.1698 46.6049 12.8045 47.112 13.2929C47.6191 13.7813 48.2197 14.0255 48.9149 14.0255C49.6519 14.0255 50.2668 13.7802 50.7585 13.2885C51.0775 12.9684 51.2623 12.5229 51.3118 11.952H48.9149V11.1589H52.1126C52.1456 11.3316 52.1599 11.4977 52.1599 11.6572Z" stroke="white" stroke-width="0.2" stroke-miterlimit="10"/>
<path d="M57.231 8.90062H54.2258V10.9928H56.9362V11.7859H54.2258V13.8781H57.231V14.6899H53.3777V8.08992H57.231V8.90062Z" stroke="white" stroke-width="0.2" stroke-miterlimit="10"/>
<path d="M60.8069 14.6899H59.9588V8.90062H58.1152V8.08992H62.6505V8.90062H60.8069V14.6899Z" stroke="white" stroke-width="0.2" stroke-miterlimit="10"/>
<path d="M65.9318 14.6899V8.08992H66.7799V14.6899H65.9318Z" stroke="white" stroke-width="0.2" stroke-miterlimit="10"/>
<path d="M70.541 14.6899H69.6929V8.90062H67.8493V8.08992H72.3846V8.90062H70.541V14.6899Z" stroke="white" stroke-width="0.2" stroke-miterlimit="10"/>
<path d="M80.9698 13.8374C80.3208 14.504 79.5145 14.8373 78.5498 14.8373C77.5851 14.8373 76.7788 14.504 76.1309 13.8374C75.4819 13.1708 75.1585 12.3546 75.1585 11.3899C75.1585 10.4252 75.4819 9.60901 76.1309 8.94241C76.7788 8.27581 77.5851 7.94141 78.5498 7.94141C79.509 7.94141 80.3142 8.27691 80.9654 8.94681C81.6166 9.61671 81.9422 10.4307 81.9422 11.3899C81.9422 12.3546 81.6177 13.1708 80.9698 13.8374ZM76.7568 13.2841C77.2452 13.7791 77.8425 14.0255 78.5498 14.0255C79.2571 14.0255 79.8555 13.778 80.3428 13.2841C80.8312 12.7891 81.0765 12.1577 81.0765 11.3899C81.0765 10.6221 80.8312 9.99071 80.3428 9.49571C79.8555 9.00071 79.2571 8.75431 78.5498 8.75431C77.8425 8.75431 77.2452 9.00181 76.7568 9.49571C76.2695 9.99071 76.0242 10.6221 76.0242 11.3899C76.0242 12.1577 76.2695 12.7891 76.7568 13.2841Z" stroke="white" stroke-width="0.2" stroke-miterlimit="10"/>
<path d="M83.1324 14.6899V8.08992H84.1642L87.3718 13.2236H87.4081L87.3718 11.952V8.08992H88.2199V14.6899H87.3344L83.9783 9.30652H83.942L83.9783 10.5781V14.6899H83.1324Z" stroke="white" stroke-width="0.2" stroke-miterlimit="10"/>
<g filter="url(#filter0_ii_20819_2576)">
<path d="M11.4796 8.68186C11.1595 9.02066 10.9703 9.54646 10.9703 10.2274V34.555C10.9703 35.237 11.1595 35.7617 11.4796 36.1005L11.561 36.1797L25.1889 22.5518V22.3912V22.2306L11.561 8.60156L11.4796 8.68186Z" fill="url(#paint0_linear_20819_2576)"/>
<path d="M29.7308 27.0958L25.1889 22.5517V22.3911V22.2305L29.7319 17.6875L29.8342 17.7458L35.2165 20.8038C36.7532 21.6772 36.7532 23.1061 35.2165 23.9806L29.8342 27.0386L29.7308 27.0958Z" fill="url(#paint1_linear_20819_2576)"/>
<g filter="url(#filter1_i_20819_2576)">
<path d="M29.8342 27.0375L25.1878 22.3911L11.4796 36.1004C11.9856 36.6372 12.8227 36.7032 13.7654 36.1686L29.8342 27.0375Z" fill="url(#paint2_linear_20819_2576)"/>
</g>
<path d="M29.8342 17.7448L13.7654 8.6148C12.8227 8.0791 11.9856 8.1462 11.4796 8.683L25.1889 22.3923L29.8342 17.7448Z" fill="url(#paint3_linear_20819_2576)"/>
</g>
<defs>
<filter id="filter0_ii_20819_2576" x="10.9703" y="8.24512" width="25.3987" height="28.293" filterUnits="userSpaceOnUse" color-interpolation-filters="sRGB">
<feFlood flood-opacity="0" result="BackgroundImageFix"/>
<feBlend mode="normal" in="SourceGraphic" in2="BackgroundImageFix" result="shape"/>
<feColorMatrix in="SourceAlpha" type="matrix" values="0 0 0 0 0 0 0 0 0 0 0 0 0 0 0 0 0 0 127 0" result="hardAlpha"/>
<feOffset dy="-0.15"/>
<feComposite in2="hardAlpha" operator="arithmetic" k2="-1" k3="1"/>
<feColorMatrix type="matrix" values="0 0 0 0 0 0 0 0 0 0 0 0 0 0 0 0 0 0 0.12 0"/>
<feBlend mode="normal" in2="shape" result="effect1_innerShadow_20819_2576"/>
<feColorMatrix in="SourceAlpha" type="matrix" values="0 0 0 0 0 0 0 0 0 0 0 0 0 0 0 0 0 0 127 0" result="hardAlpha"/>
<feOffset dy="0.15"/>
<feComposite in2="hardAlpha" operator="arithmetic" k2="-1" k3="1"/>
<feColorMatrix type="matrix" values="0 0 0 0 1 0 0 0 0 1 0 0 0 0 1 0 0 0 0.25 0"/>
<feBlend mode="normal" in2="effect1_innerShadow_20819_2576" result="effect2_innerShadow_20819_2576"/>
</filter>
<filter id="filter1_i_20819_2576" x="11.4796" y="22.3911" width="18.3546" height="14.147" filterUnits="userSpaceOnUse" color-interpolation-filters="sRGB">
<feFlood flood-opacity="0" result="BackgroundImageFix"/>
<feBlend mode="normal" in="SourceGraphic" in2="BackgroundImageFix" result="shape"/>
<feColorMatrix in="SourceAlpha" type="matrix" values="0 0 0 0 0 0 0 0 0 0 0 0 0 0 0 0 0 0 127 0" result="hardAlpha"/>
<feOffset dy="-0.15"/>
<feComposite in2="hardAlpha" operator="arithmetic" k2="-1" k3="1"/>
<feColorMatrix type="matrix" values="0 0 0 0 0 0 0 0 0 0 0 0 0 0 0 0 0 0 0.08 0"/>
<feBlend mode="normal" in2="shape" result="effect1_innerShadow_20819_2576"/>
</filter>
<linearGradient id="paint0_linear_20819_2576" x1="23.9809" y1="9.96996" x2="5.5207" y2="28.4302" gradientUnits="userSpaceOnUse">
<stop stop-color="#00A0FF"/>
<stop offset="0.0066" stop-color="#00A1FF"/>
<stop offset="0.2601" stop-color="#00BEFF"/>
<stop offset="0.5122" stop-color="#00D2FF"/>
<stop offset="0.7604" stop-color="#00DFFF"/>
<stop offset="1" stop-color="#00E3FF"/>
</linearGradient>
<linearGradient id="paint1_linear_20819_2576" x1="37.2168" y1="22.3911" x2="10.6013" y2="22.3911" gradientUnits="userSpaceOnUse">
<stop stop-color="#FFE000"/>
<stop offset="0.4087" stop-color="#FFBD00"/>
<stop offset="0.7754" stop-color="#FFA500"/>
<stop offset="1" stop-color="#FF9C00"/>
</linearGradient>
<linearGradient id="paint2_linear_20819_2576" x1="27.3109" y1="24.9144" x2="2.27657" y2="49.9488" gradientUnits="userSpaceOnUse">
<stop stop-color="#FF3A44"/>
<stop offset="1" stop-color="#C31162"/>
</linearGradient>
<linearGradient id="paint3_linear_20819_2576" x1="8.02714" y1="0.58458" x2="19.2057" y2="11.7631" gradientUnits="userSpaceOnUse">
<stop stop-color="#32A071"/>
<stop offset="0.0685" stop-color="#2DA771"/>
<stop offset="0.4762" stop-color="#15CF74"/>
<stop offset="0.8009" stop-color="#06E775"/>
<stop offset="1" stop-color="#00F076"/>
</linearGradient>
</defs>
</svg>
