<svg width="373" height="182" viewBox="0 0 373 182" fill="none" xmlns="http://www.w3.org/2000/svg">
<g clip-path="url(#clip0_90_6437)">
<rect width="154.345" height="154.345" transform="translate(109.328 13.8276)" fill="white"/>
<path d="M155.214 22.1709H151.043V26.3424H155.214V22.1709Z" fill="black"/>
<path d="M167.729 22.1709H163.557V26.3424H167.729V22.1709Z" fill="black"/>
<path d="M171.9 22.1709H167.729V26.3424H171.9V22.1709Z" fill="black"/>
<path d="M176.072 22.1709H171.9V26.3424H176.072V22.1709Z" fill="black"/>
<path d="M184.415 22.1709H180.243V26.3424H184.415V22.1709Z" fill="black"/>
<path d="M196.929 22.1709H192.758V26.3424H196.929V22.1709Z" fill="black"/>
<path d="M217.787 22.1709H213.615V26.3424H217.787V22.1709Z" fill="black"/>
<path d="M159.386 26.3426L155.214 26.3424L155.214 30.5141H159.386V26.3426Z" fill="black"/>
<path d="M163.557 26.3424L159.386 26.3426V30.5141H163.557L163.557 26.3424Z" fill="black"/>
<path d="M167.729 26.3424H163.557L163.557 30.5141H167.729V26.3424Z" fill="black"/>
<path d="M171.9 26.3424H167.729V30.5141H171.9V26.3424Z" fill="black"/>
<path d="M176.072 26.3424H171.9V30.5141H176.072V26.3424Z" fill="black"/>
<path d="M180.243 26.3424H176.072V30.5141H180.243L180.243 26.3424Z" fill="black"/>
<path d="M196.929 26.3424H192.758V30.5141H196.929V26.3424Z" fill="black"/>
<path d="M201.101 26.3426L196.929 26.3424V30.5141H201.101V26.3426Z" fill="black"/>
<path d="M163.557 30.5141H159.386L159.386 34.6858H163.557V30.5141Z" fill="black"/>
<path d="M171.9 30.5141H167.729L167.729 34.6858H171.9V30.5141Z" fill="black"/>
<path d="M180.243 30.5141H176.072L176.072 34.6858H180.243V30.5141Z" fill="black"/>
<path d="M184.415 30.5144L180.243 30.5141V34.6858H184.415V30.5144Z" fill="black"/>
<path d="M188.586 30.5144H184.415V34.6858H188.586V30.5144Z" fill="black"/>
<path d="M192.758 30.5141L188.586 30.5144V34.6858H192.758L192.758 30.5141Z" fill="black"/>
<path d="M196.929 30.5141H192.758L192.758 34.6858H196.929V30.5141Z" fill="black"/>
<path d="M201.101 30.5141H196.929V34.6858H201.101V30.5141Z" fill="black"/>
<path d="M209.444 30.5144H205.272V34.6858H209.444V30.5144Z" fill="black"/>
<path d="M217.787 30.5144H213.615V34.6858H217.787V30.5144Z" fill="black"/>
<path d="M155.214 34.6866H151.043V38.8581H155.214V34.6866Z" fill="black"/>
<path d="M159.386 34.6858L155.214 34.6866V38.8581H159.386L159.386 34.6858Z" fill="black"/>
<path d="M167.729 34.6858H163.557L163.557 38.8581H167.729L167.729 34.6858Z" fill="black"/>
<path d="M171.9 34.6858H167.729L167.729 38.8581H171.9L171.9 34.6858Z" fill="black"/>
<path d="M188.586 34.6858H184.415L184.415 38.8581H188.586L188.586 34.6858Z" fill="black"/>
<path d="M192.758 34.6858H188.586L188.586 38.8581H192.758L192.758 34.6858Z" fill="black"/>
<path d="M209.444 34.6858H205.272L205.272 38.8581H209.444L209.444 34.6858Z" fill="black"/>
<path d="M213.615 34.6858H209.444L209.444 38.8581H213.615L213.615 34.6858Z" fill="black"/>
<path d="M155.214 38.8563H151.043V43.0278H155.214V38.8563Z" fill="black"/>
<path d="M159.386 38.8563H155.214V43.0278H159.386V38.8563Z" fill="black"/>
<path d="M188.586 38.8563H184.415V43.0278H188.586V38.8563Z" fill="black"/>
<path d="M192.758 38.8563H188.586V43.0278H192.758V38.8563Z" fill="black"/>
<path d="M201.101 38.8563H196.929V43.0278H201.101V38.8563Z" fill="black"/>
<path d="M209.444 38.8563H205.272V43.0278H209.444V38.8563Z" fill="black"/>
<path d="M213.615 38.8563H209.444V43.0278H213.615V38.8563Z" fill="black"/>
<path d="M155.214 43.0278H151.043L151.043 47.1999H155.214L155.214 43.0278Z" fill="black"/>
<path d="M159.386 43.0278H155.214L155.214 47.1999H159.386L159.386 43.0278Z" fill="black"/>
<path d="M163.557 43.0284L159.386 43.0278L159.386 47.1999H163.557V43.0284Z" fill="black"/>
<path d="M171.9 43.0284H167.729V47.1999H171.9V43.0284Z" fill="black"/>
<path d="M184.415 43.0278L180.243 43.0284V47.1999H184.415L184.415 43.0278Z" fill="black"/>
<path d="M192.758 43.0278H188.586L188.586 47.1999H192.758L192.758 43.0278Z" fill="black"/>
<path d="M205.272 43.0278H201.101L201.1 47.1999H205.272L205.272 43.0278Z" fill="black"/>
<path d="M209.444 43.0278H205.272L205.272 47.1999H209.444L209.444 43.0278Z" fill="black"/>
<path d="M213.615 43.0278H209.444L209.444 47.1999H213.615L213.615 43.0278Z" fill="black"/>
<path d="M217.786 43.0284L213.615 43.0278L213.615 47.1999H217.786V43.0284Z" fill="black"/>
<path d="M221.958 43.0284H217.786V47.1999H221.958V43.0284Z" fill="black"/>
<path d="M155.214 47.1999H151.043V51.3708H155.214V47.1999Z" fill="black"/>
<path d="M163.557 47.1999H159.386L159.386 51.3708H163.557V47.1999Z" fill="black"/>
<path d="M171.9 47.1999H167.729V51.3708H171.9V47.1999Z" fill="black"/>
<path d="M180.243 47.1999L176.072 47.1993V51.3708H180.243L180.243 47.1999Z" fill="black"/>
<path d="M188.586 47.1999H184.415L184.415 51.3708H188.586L188.586 47.1999Z" fill="black"/>
<path d="M196.929 47.1993L192.758 47.1999L192.757 51.3708H196.929V47.1993Z" fill="black"/>
<path d="M205.272 47.1999H201.1V51.3708H205.272V47.1999Z" fill="black"/>
<path d="M213.615 47.1999H209.444L209.444 51.3708H213.615V47.1999Z" fill="black"/>
<path d="M221.958 47.1999H217.786L217.786 51.3708H221.958V47.1999Z" fill="black"/>
<path d="M155.214 51.3708H151.043L151.043 55.543H155.214L155.214 51.3708Z" fill="black"/>
<path d="M167.729 51.3708H163.557L163.557 55.543H167.729L167.729 51.3708Z" fill="black"/>
<path d="M180.243 51.3708H176.072L176.072 55.543H180.243L180.243 51.3708Z" fill="black"/>
<path d="M192.757 51.3708H188.586L188.586 55.543H192.758L192.757 51.3708Z" fill="black"/>
<path d="M196.929 51.3708H192.757L192.758 55.543H196.929L196.929 51.3708Z" fill="black"/>
<path d="M201.1 51.3708H196.929L196.929 55.543H201.101L201.1 51.3708Z" fill="black"/>
<path d="M205.272 51.3708H201.1L201.101 55.543H205.272L205.272 51.3708Z" fill="black"/>
<path d="M209.444 51.3708H205.272L205.272 55.543H209.444L209.444 51.3708Z" fill="black"/>
<path d="M221.958 51.3708H217.786L217.787 55.543H221.958L221.958 51.3708Z" fill="black"/>
<path d="M121.843 55.5432H117.671V59.7147H121.843V55.5432Z" fill="black"/>
<path d="M138.528 55.5432H134.357V59.7147H138.528V55.5432Z" fill="black"/>
<path d="M146.871 55.5432H142.7V59.7147H146.871V55.5432Z" fill="black"/>
<path d="M151.043 55.543L146.871 55.5432V59.7147H151.043L151.043 55.543Z" fill="black"/>
<path d="M155.214 55.543H151.043L151.043 59.7147H155.214V55.543Z" fill="black"/>
<path d="M163.557 55.543L159.386 55.5432V59.7147H163.557L163.557 55.543Z" fill="black"/>
<path d="M171.9 55.5432L167.729 55.543L167.729 59.7147H171.9V55.5432Z" fill="black"/>
<path d="M184.415 55.5432L180.243 55.543L180.243 59.7147H184.415V55.5432Z" fill="black"/>
<path d="M192.758 55.543H188.586V59.7147H192.758V55.543Z" fill="black"/>
<path d="M205.272 55.543H201.101L201.101 59.7147H205.272V55.543Z" fill="black"/>
<path d="M209.444 55.543H205.272V59.7147H209.444V55.543Z" fill="black"/>
<path d="M213.615 55.5432L209.444 55.543V59.7147H213.615V55.5432Z" fill="black"/>
<path d="M217.787 55.543L213.615 55.5432V59.7147H217.787L217.787 55.543Z" fill="black"/>
<path d="M226.13 55.5432L221.958 55.543L221.958 59.7147H226.13V55.5432Z" fill="black"/>
<path d="M230.301 55.5432H226.13V59.7147H230.301V55.5432Z" fill="black"/>
<path d="M234.473 55.5432H230.301V59.7147H234.473V55.5432Z" fill="black"/>
<path d="M238.644 55.5432H234.473V59.7147H238.644V55.5432Z" fill="black"/>
<path d="M242.816 55.5432H238.644V59.7147H242.816V55.5432Z" fill="black"/>
<path d="M255.33 55.5432H251.158V59.7147H255.33V55.5432Z" fill="black"/>
<path d="M126.014 59.7144L121.843 59.7147L121.843 63.8859H126.014V59.7144Z" fill="black"/>
<path d="M142.7 59.7147H138.528L138.529 63.8859H142.7L142.7 59.7147Z" fill="black"/>
<path d="M151.043 59.7147H146.871L146.872 63.8859H151.043L151.043 59.7147Z" fill="black"/>
<path d="M163.557 59.7147H159.386L159.386 63.8859H163.557L163.557 59.7147Z" fill="black"/>
<path d="M167.729 59.7147H163.557L163.557 63.8859H167.729L167.729 59.7147Z" fill="black"/>
<path d="M184.415 59.7147H180.243L180.243 63.8859H184.415L184.415 59.7147Z" fill="black"/>
<path d="M188.586 59.7147H184.415L184.415 63.8859H188.586L188.586 59.7147Z" fill="black"/>
<path d="M192.758 59.7147H188.586L188.586 63.8859H192.758L192.758 59.7147Z" fill="black"/>
<path d="M196.929 59.7144L192.758 59.7147L192.758 63.8859H196.929V59.7144Z" fill="black"/>
<path d="M209.444 59.7147H205.272L205.272 63.8859H209.444L209.444 59.7147Z" fill="black"/>
<path d="M213.615 59.7147H209.444L209.444 63.8859H213.615L213.615 59.7147Z" fill="black"/>
<path d="M217.787 59.7147H213.615L213.615 63.8859H217.786L217.787 59.7147Z" fill="black"/>
<path d="M226.13 59.7147H221.958L221.958 63.8859H226.129L226.13 59.7147Z" fill="black"/>
<path d="M242.816 59.7147H238.644L238.644 63.8859H242.815L242.816 59.7147Z" fill="black"/>
<path d="M246.987 59.7144L242.816 59.7147L242.815 63.8859H246.987V59.7144Z" fill="black"/>
<path d="M255.33 59.7147H251.158L251.158 63.8859H255.33L255.33 59.7147Z" fill="black"/>
<path d="M121.843 63.8859L117.671 63.8852V68.0566H121.843L121.843 63.8859Z" fill="black"/>
<path d="M130.185 63.8852L126.014 63.8859L126.014 68.0566H130.185V63.8852Z" fill="black"/>
<path d="M138.529 63.8859L134.357 63.8852V68.0566H138.528L138.529 63.8859Z" fill="black"/>
<path d="M142.7 63.8859H138.529L138.528 68.0566H142.7L142.7 63.8859Z" fill="black"/>
<path d="M146.872 63.8859H142.7L142.7 68.0566H146.871L146.872 63.8859Z" fill="black"/>
<path d="M151.043 63.8859H146.872L146.871 68.0566H151.043L151.043 63.8859Z" fill="black"/>
<path d="M155.214 63.8852L151.043 63.8859L151.043 68.0566H155.214V63.8852Z" fill="black"/>
<path d="M176.072 63.8852H171.9V68.0566H176.072V63.8852Z" fill="black"/>
<path d="M180.243 63.8859L176.072 63.8852V68.0566H180.243L180.243 63.8859Z" fill="black"/>
<path d="M184.415 63.8859H180.243L180.243 68.0566H184.415L184.415 63.8859Z" fill="black"/>
<path d="M196.929 63.8859H192.758L192.758 68.0566H196.929L196.929 63.8859Z" fill="black"/>
<path d="M217.786 63.8859H213.615L213.615 68.0566H217.787L217.786 63.8859Z" fill="black"/>
<path d="M226.129 63.8859H221.958L221.958 68.0566H226.13L226.129 63.8859Z" fill="black"/>
<path d="M242.815 63.8859H238.644L238.644 68.0566H242.816L242.815 63.8859Z" fill="black"/>
<path d="M251.158 63.8859H246.987L246.987 68.0566H251.158L251.158 63.8859Z" fill="black"/>
<path d="M130.185 68.0566H126.014L126.014 72.2289H130.185L130.185 68.0566Z" fill="black"/>
<path d="M138.528 68.0566H134.357L134.357 72.2289H138.528L138.528 68.0566Z" fill="black"/>
<path d="M151.043 68.0566H146.871L146.872 72.2289H151.043L151.043 68.0566Z" fill="black"/>
<path d="M163.557 68.0574H159.386V72.2289H163.557V68.0574Z" fill="black"/>
<path d="M171.9 68.0566L167.729 68.0574V72.2289H171.9L171.9 68.0566Z" fill="black"/>
<path d="M176.072 68.0566H171.9L171.9 72.2289H176.072L176.072 68.0566Z" fill="black"/>
<path d="M188.586 68.0574L184.415 68.0566L184.415 72.2289H188.586V68.0574Z" fill="black"/>
<path d="M201.101 68.0574L196.929 68.0566L196.929 72.2289H201.101V68.0574Z" fill="black"/>
<path d="M205.272 68.0574H201.101V72.2289H205.272V68.0574Z" fill="black"/>
<path d="M213.615 68.0566L209.444 68.0574V72.2289H213.615L213.615 68.0566Z" fill="black"/>
<path d="M221.958 68.0566H217.787L217.786 72.2289H221.958L221.958 68.0566Z" fill="black"/>
<path d="M226.13 68.0566H221.958L221.958 72.2289H226.129L226.13 68.0566Z" fill="black"/>
<path d="M230.301 68.0574L226.13 68.0566L226.129 72.2289H230.301V68.0574Z" fill="black"/>
<path d="M121.843 72.2283H117.671V76.3998H121.843V72.2283Z" fill="black"/>
<path d="M130.185 72.2289H126.014V76.3998H130.185V72.2289Z" fill="black"/>
<path d="M134.357 72.2289H130.185V76.3998H134.357L134.357 72.2289Z" fill="black"/>
<path d="M146.872 72.2289L142.7 72.2283V76.3998H146.871L146.872 72.2289Z" fill="black"/>
<path d="M155.214 72.2283L151.043 72.2289L151.043 76.3998H155.214V72.2283Z" fill="black"/>
<path d="M163.557 72.2289H159.386V76.3998H163.557V72.2289Z" fill="black"/>
<path d="M171.9 72.2289H167.729V76.3998H171.9V72.2289Z" fill="black"/>
<path d="M176.072 72.2289H171.9V76.3998H176.072V72.2289Z" fill="black"/>
<path d="M188.586 72.2289H184.415V76.3998H188.586V72.2289Z" fill="black"/>
<path d="M213.615 72.2289H209.444V76.3998H213.615V72.2289Z" fill="black"/>
<path d="M217.786 72.2289H213.615V76.3998H217.786L217.786 72.2289Z" fill="black"/>
<path d="M221.958 72.2289H217.786L217.786 76.3998H221.958V72.2289Z" fill="black"/>
<path d="M230.301 72.2289H226.129L226.129 76.3998H230.301V72.2289Z" fill="black"/>
<path d="M234.472 72.2283L230.301 72.2289V76.3998H234.472V72.2283Z" fill="black"/>
<path d="M242.815 72.2283H238.644V76.3998H242.815V72.2283Z" fill="black"/>
<path d="M255.33 72.2283H251.158V76.3998H255.33V72.2283Z" fill="black"/>
<path d="M121.843 76.3998H117.671V80.5718H121.843V76.3998Z" fill="black"/>
<path d="M130.185 76.3998H126.014L126.014 80.5718H130.185L130.185 76.3998Z" fill="black"/>
<path d="M134.357 76.3998H130.185L130.185 80.5718H134.357L134.357 76.3998Z" fill="black"/>
<path d="M138.528 76.4003L134.357 76.3998L134.357 80.5718H138.528V76.4003Z" fill="black"/>
<path d="M142.7 76.3998L138.528 76.4003V80.5718H142.7L142.7 76.3998Z" fill="black"/>
<path d="M151.043 76.3998H146.871L146.871 80.5718H151.043L151.043 76.3998Z" fill="black"/>
<path d="M163.557 76.3998H159.386L159.386 80.5718H163.557L163.557 76.3998Z" fill="black"/>
<path d="M167.729 76.3998H163.557L163.557 80.5718H167.729L167.729 76.3998Z" fill="black"/>
<path d="M180.243 76.4003L176.072 76.3998L176.072 80.5718H180.243V76.4003Z" fill="black"/>
<path d="M192.758 76.4003L188.586 76.3998L188.586 80.5718H192.758V76.4003Z" fill="black"/>
<path d="M196.929 76.4003H192.758V80.5718H196.929V76.4003Z" fill="black"/>
<path d="M201.101 76.4003H196.929V80.5718H201.101V76.4003Z" fill="black"/>
<path d="M205.272 76.4003H201.101V80.5718H205.272V76.4003Z" fill="black"/>
<path d="M221.958 76.3998H217.786L217.787 80.5718H221.958L221.958 76.3998Z" fill="black"/>
<path d="M226.129 76.3998H221.958L221.958 80.5718H226.13L226.129 76.3998Z" fill="black"/>
<path d="M234.472 76.3998H230.301L230.301 80.5718H234.473L234.472 76.3998Z" fill="black"/>
<path d="M246.987 76.4003L242.815 76.3998L242.815 80.5718H246.987V76.4003Z" fill="black"/>
<path d="M130.185 80.5718H126.014L126.014 84.7439H130.185L130.185 80.5718Z" fill="black"/>
<path d="M138.528 80.5718H134.357L134.357 84.7439H138.528L138.528 80.5718Z" fill="black"/>
<path d="M142.7 80.5718H138.528L138.528 84.7439H142.7L142.7 80.5718Z" fill="black"/>
<path d="M146.871 80.5718H142.7L142.7 84.7439H146.871L146.871 80.5718Z" fill="black"/>
<path d="M163.557 80.5718H159.386L159.386 84.7439H163.557L163.557 80.5718Z" fill="black"/>
<path d="M167.729 80.5718H163.557L163.557 84.7439H167.729L167.729 80.5718Z" fill="black"/>
<path d="M171.9 80.5725L167.729 80.5718L167.729 84.7439H171.9V80.5725Z" fill="black"/>
<path d="M180.243 80.5718H176.072L176.072 84.7439H180.243L180.243 80.5718Z" fill="black"/>
<path d="M184.415 80.5725L180.243 80.5718L180.243 84.7439H184.415V80.5725Z" fill="black"/>
<path d="M192.758 80.5718H188.586L188.586 84.7439H192.758L192.758 80.5718Z" fill="black"/>
<path d="M196.929 80.5718H192.758L192.758 84.7439H196.929L196.929 80.5718Z" fill="black"/>
<path d="M205.272 80.5718H201.101L201.1 84.7439H205.272L205.272 80.5718Z" fill="black"/>
<path d="M209.444 80.5725L205.272 80.5718L205.272 84.7439H209.444V80.5725Z" fill="black"/>
<path d="M217.787 80.5718L213.615 80.5725V84.7439H217.786L217.787 80.5718Z" fill="black"/>
<path d="M221.958 80.5718H217.787L217.786 84.7439H221.958L221.958 80.5718Z" fill="black"/>
<path d="M226.13 80.5718H221.958L221.958 84.7439H226.129L226.13 80.5718Z" fill="black"/>
<path d="M230.301 80.5718H226.13L226.129 84.7439H230.301L230.301 80.5718Z" fill="black"/>
<path d="M238.644 80.5725L234.473 80.5718L234.472 84.7439H238.644V80.5725Z" fill="black"/>
<path d="M251.158 80.5725L246.987 80.5718L246.987 84.7439H251.158V80.5725Z" fill="black"/>
<path d="M121.843 84.7434H117.671V88.9149H121.843V84.7434Z" fill="black"/>
<path d="M126.014 84.7439L121.843 84.7434V88.9149H126.014L126.014 84.7439Z" fill="black"/>
<path d="M130.185 84.7439H126.014L126.014 88.9149H130.185V84.7439Z" fill="black"/>
<path d="M134.357 84.7439H130.185V88.9149H134.357L134.357 84.7439Z" fill="black"/>
<path d="M138.528 84.7439H134.357L134.357 88.9149H138.528V84.7439Z" fill="black"/>
<path d="M151.043 84.7434L146.871 84.7439L146.872 88.9149H151.043V84.7434Z" fill="black"/>
<path d="M163.557 84.7439H159.386V88.9149H163.557V84.7439Z" fill="black"/>
<path d="M167.729 84.7439H163.557V88.9149H167.729V84.7439Z" fill="black"/>
<path d="M176.072 84.7439H171.9L171.9 88.9149H176.072L176.072 84.7439Z" fill="black"/>
<path d="M180.243 84.7439H176.072L176.072 88.9149H180.243V84.7439Z" fill="black"/>
<path d="M184.415 84.7439H180.243V88.9149H184.415V84.7439Z" fill="black"/>
<path d="M188.586 84.7439H184.415V88.9149H188.586L188.586 84.7439Z" fill="black"/>
<path d="M192.758 84.7439H188.586L188.586 88.9149H192.758V84.7439Z" fill="black"/>
<path d="M196.929 84.7439H192.758V88.9149H196.929V84.7439Z" fill="black"/>
<path d="M209.444 84.7439H205.272L205.272 88.9149H209.444V84.7439Z" fill="black"/>
<path d="M217.786 84.7439H213.615V88.9149H217.786V84.7439Z" fill="black"/>
<path d="M226.129 84.7439H221.958L221.958 88.9149H226.129V84.7439Z" fill="black"/>
<path d="M230.301 84.7439H226.129V88.9149H230.301V84.7439Z" fill="black"/>
<path d="M234.472 84.7439H230.301V88.9149H234.472L234.472 84.7439Z" fill="black"/>
<path d="M121.843 88.9149H117.671V93.0855H121.843V88.9149Z" fill="black"/>
<path d="M126.014 88.9149H121.843V93.0855H126.014L126.014 88.9149Z" fill="black"/>
<path d="M134.357 88.9149H130.185L130.185 93.0855H134.357L134.357 88.9149Z" fill="black"/>
<path d="M138.528 88.9149H134.357L134.357 93.0855H138.528L138.528 88.9149Z" fill="black"/>
<path d="M142.7 88.914L138.528 88.9149L138.528 93.0855H142.7V88.914Z" fill="black"/>
<path d="M146.872 88.9149L142.7 88.914V93.0855H146.871L146.872 88.9149Z" fill="black"/>
<path d="M155.214 88.914L151.043 88.9149L151.043 93.0855H155.214V88.914Z" fill="black"/>
<path d="M159.386 88.9149L155.214 88.914V93.0855H159.386L159.386 88.9149Z" fill="black"/>
<path d="M171.9 88.9149H167.729L167.729 93.0855H171.9L171.9 88.9149Z" fill="black"/>
<path d="M192.758 88.9149H188.586L188.586 93.0855H192.758L192.758 88.9149Z" fill="black"/>
<path d="M196.929 88.9149H192.758L192.758 93.0855H196.929L196.929 88.9149Z" fill="black"/>
<path d="M201.101 88.914L196.929 88.9149L196.929 93.0855H201.101V88.914Z" fill="black"/>
<path d="M205.272 88.9149L201.101 88.914V93.0855H205.272L205.272 88.9149Z" fill="black"/>
<path d="M209.444 88.9149H205.272L205.272 93.0855H209.444L209.444 88.9149Z" fill="black"/>
<path d="M213.615 88.9149H209.444L209.444 93.0855H213.615L213.615 88.9149Z" fill="black"/>
<path d="M221.958 88.9149H217.786L217.787 93.0855H221.958L221.958 88.9149Z" fill="black"/>
<path d="M230.301 88.9149H226.129L226.13 93.0855H230.301L230.301 88.9149Z" fill="black"/>
<path d="M238.644 88.914L234.472 88.9149L234.472 93.0855H238.644V88.914Z" fill="black"/>
<path d="M242.816 88.914H238.644V93.0855H242.816V88.914Z" fill="black"/>
<path d="M251.158 88.914H246.987V93.0855H251.158V88.914Z" fill="black"/>
<path d="M121.843 93.0855H117.671V97.2567H121.843V93.0855Z" fill="black"/>
<path d="M126.014 93.0855H121.843V97.2567H126.014L126.014 93.0855Z" fill="black"/>
<path d="M138.528 93.0855H134.357L134.357 97.2567H138.528L138.528 93.0855Z" fill="black"/>
<path d="M142.7 93.0855H138.528L138.528 97.2567H142.7L142.7 93.0855Z" fill="black"/>
<path d="M151.043 93.0855H146.871L146.872 97.2567H151.043L151.043 93.0855Z" fill="black"/>
<path d="M155.214 93.0855H151.043L151.043 97.2567H155.214L155.214 93.0855Z" fill="black"/>
<path d="M159.386 93.0855H155.214L155.214 97.2567H159.386L159.386 93.0855Z" fill="black"/>
<path d="M163.557 93.0852L159.386 93.0855L159.386 97.2567H163.557V93.0852Z" fill="black"/>
<path d="M184.415 93.0852H180.243V97.2567H184.415V93.0852Z" fill="black"/>
<path d="M188.586 93.0855L184.415 93.0852V97.2567H188.586L188.586 93.0855Z" fill="black"/>
<path d="M196.929 93.0855H192.758L192.757 97.2567H196.929L196.929 93.0855Z" fill="black"/>
<path d="M205.272 93.0855H201.101L201.1 97.2567H205.272L205.272 93.0855Z" fill="black"/>
<path d="M213.615 93.0855H209.444L209.444 97.2567H213.615L213.615 93.0855Z" fill="black"/>
<path d="M217.787 93.0855H213.615L213.615 97.2567H217.786L217.787 93.0855Z" fill="black"/>
<path d="M221.958 93.0855H217.787L217.786 97.2567H221.958L221.958 93.0855Z" fill="black"/>
<path d="M242.816 93.0855H238.644L238.644 97.2567H242.815L242.816 93.0855Z" fill="black"/>
<path d="M246.987 93.0855H242.816L242.815 97.2567H246.987L246.987 93.0855Z" fill="black"/>
<path d="M251.158 93.0855H246.987L246.987 97.2567H251.158L251.158 93.0855Z" fill="black"/>
<path d="M121.843 97.2567H117.671V101.429H121.843V97.2567Z" fill="black"/>
<path d="M130.185 97.2575L126.014 97.2567L126.014 101.429H130.185V97.2575Z" fill="black"/>
<path d="M134.357 97.2567L130.185 97.2575V101.429H134.357L134.357 97.2567Z" fill="black"/>
<path d="M138.528 97.2567H134.357L134.357 101.429H138.528L138.528 97.2567Z" fill="black"/>
<path d="M146.872 97.2567H142.7L142.7 101.429H146.871L146.872 97.2567Z" fill="black"/>
<path d="M151.043 97.2567H146.872L146.871 101.429H151.043L151.043 97.2567Z" fill="black"/>
<path d="M163.557 97.2567H159.386L159.386 101.429H163.557L163.557 97.2567Z" fill="black"/>
<path d="M171.9 97.2575H167.729V101.429H171.9V97.2575Z" fill="black"/>
<path d="M176.072 97.2575H171.9V101.429H176.072V97.2575Z" fill="black"/>
<path d="M184.415 97.2567H180.243L180.243 101.429H184.415L184.415 97.2567Z" fill="black"/>
<path d="M188.586 97.2567H184.415L184.415 101.429H188.586L188.586 97.2567Z" fill="black"/>
<path d="M192.757 97.2567H188.586L188.586 101.429H192.758L192.757 97.2567Z" fill="black"/>
<path d="M205.272 97.2567H201.1L201.101 101.429H205.272L205.272 97.2567Z" fill="black"/>
<path d="M209.444 97.2567H205.272L205.272 101.429H209.444L209.444 97.2567Z" fill="black"/>
<path d="M213.615 97.2567H209.444L209.444 101.429H213.615L213.615 97.2567Z" fill="black"/>
<path d="M217.786 97.2567H213.615L213.615 101.429H217.787L217.786 97.2567Z" fill="black"/>
<path d="M221.958 97.2567H217.786L217.787 101.429H221.958L221.958 97.2567Z" fill="black"/>
<path d="M226.13 97.2575L221.958 97.2567L221.958 101.429H226.13V97.2575Z" fill="black"/>
<path d="M234.473 97.2575H230.301V101.429H234.473V97.2575Z" fill="black"/>
<path d="M242.815 97.2567H238.644L238.644 101.429H242.816L242.815 97.2567Z" fill="black"/>
<path d="M251.158 97.2567H246.987L246.987 101.429H251.158L251.158 97.2567Z" fill="black"/>
<path d="M126.014 101.429H121.843L121.843 105.601H126.014L126.014 101.429Z" fill="black"/>
<path d="M130.185 101.429H126.014L126.014 105.601H130.185V101.429Z" fill="black"/>
<path d="M138.528 101.429H134.357L134.357 105.601H138.528V101.429Z" fill="black"/>
<path d="M151.043 101.429H146.871L146.871 105.601H151.043V101.429Z" fill="black"/>
<path d="M163.557 101.429H159.386V105.601H163.557V101.429Z" fill="black"/>
<path d="M171.9 101.429H167.729V105.601H171.9V101.429Z" fill="black"/>
<path d="M176.072 101.429H171.9V105.601H176.072V101.429Z" fill="black"/>
<path d="M184.415 101.429H180.243V105.601H184.415V101.429Z" fill="black"/>
<path d="M192.758 101.429H188.586L188.586 105.601H192.758V101.429Z" fill="black"/>
<path d="M196.929 101.429L192.758 101.429V105.601H196.929V101.429Z" fill="black"/>
<path d="M205.272 101.429H201.101V105.601H205.272V101.429Z" fill="black"/>
<path d="M209.444 101.429H205.272V105.601H209.444V101.429Z" fill="black"/>
<path d="M221.958 101.429H217.787L217.787 105.601H221.958V101.429Z" fill="black"/>
<path d="M226.13 101.429H221.958V105.601H226.13V101.429Z" fill="black"/>
<path d="M230.301 101.429H226.13V105.601H230.301L230.301 101.429Z" fill="black"/>
<path d="M234.473 101.429H230.301L230.301 105.601H234.473V101.429Z" fill="black"/>
<path d="M251.158 101.429H246.987V105.601H251.158V101.429Z" fill="black"/>
<path d="M121.843 105.601L117.671 105.601V109.773H121.843L121.843 105.601Z" fill="black"/>
<path d="M130.185 105.601H126.014L126.014 109.773H130.185L130.185 105.601Z" fill="black"/>
<path d="M142.7 105.601L138.528 105.601L138.529 109.773H142.7V105.601Z" fill="black"/>
<path d="M146.871 105.601L142.7 105.601V109.773H146.871L146.871 105.601Z" fill="black"/>
<path d="M151.043 105.601H146.871L146.871 109.773H151.043L151.043 105.601Z" fill="black"/>
<path d="M159.386 105.601L155.215 105.601V109.773H159.386L159.386 105.601Z" fill="black"/>
<path d="M167.729 105.601H163.557L163.557 109.773H167.729L167.729 105.601Z" fill="black"/>
<path d="M176.072 105.601H171.9L171.9 109.773H176.072L176.072 105.601Z" fill="black"/>
<path d="M180.243 105.601H176.072L176.072 109.773H180.243L180.243 105.601Z" fill="black"/>
<path d="M196.929 105.601H192.758L192.757 109.773H196.929L196.929 105.601Z" fill="black"/>
<path d="M201.101 105.601H196.929L196.929 109.773H201.101L201.101 105.601Z" fill="black"/>
<path d="M205.272 105.601H201.101L201.101 109.773H205.272L205.272 105.601Z" fill="black"/>
<path d="M230.301 105.601H226.13L226.129 109.773H230.301L230.301 105.601Z" fill="black"/>
<path d="M234.473 105.601H230.301L230.301 109.773H234.472L234.473 105.601Z" fill="black"/>
<path d="M238.644 105.601L234.473 105.601L234.472 109.773H238.644V105.601Z" fill="black"/>
<path d="M242.815 105.601H238.644V109.773H242.815V105.601Z" fill="black"/>
<path d="M121.843 109.773H117.671V113.944H121.843V109.773Z" fill="black"/>
<path d="M134.357 109.773L130.185 109.773L130.185 113.944H134.357V109.773Z" fill="black"/>
<path d="M142.7 109.773H138.529L138.528 113.944H142.7L142.7 109.773Z" fill="black"/>
<path d="M171.9 109.773H167.729L167.729 113.944H171.9L171.9 109.773Z" fill="black"/>
<path d="M188.586 109.773H184.415V113.944H188.586V109.773Z" fill="black"/>
<path d="M192.757 109.773L188.586 109.773V113.944H192.758L192.757 109.773Z" fill="black"/>
<path d="M201.101 109.773H196.929L196.929 113.944H201.101L201.101 109.773Z" fill="black"/>
<path d="M213.615 109.773H209.444V113.944H213.615V109.773Z" fill="black"/>
<path d="M230.301 109.773H226.129L226.13 113.944H230.301L230.301 109.773Z" fill="black"/>
<path d="M242.815 109.773H238.644L238.644 113.944H242.816L242.815 109.773Z" fill="black"/>
<path d="M246.987 109.773L242.815 109.773L242.816 113.944H246.987V109.773Z" fill="black"/>
<path d="M251.158 109.773H246.987V113.944H251.158V109.773Z" fill="black"/>
<path d="M138.528 113.944H134.357L134.357 118.115H138.528L138.528 113.944Z" fill="black"/>
<path d="M142.7 113.944H138.528L138.528 118.115H142.7L142.7 113.944Z" fill="black"/>
<path d="M146.871 113.943L142.7 113.944L142.7 118.115H146.871V113.943Z" fill="black"/>
<path d="M151.043 113.943H146.871V118.115H151.043V113.943Z" fill="black"/>
<path d="M167.729 113.944L163.557 113.943V118.115H167.729L167.729 113.944Z" fill="black"/>
<path d="M171.9 113.944H167.729L167.729 118.115H171.9L171.9 113.944Z" fill="black"/>
<path d="M180.243 113.943H176.072V118.115H180.243V113.943Z" fill="black"/>
<path d="M188.586 113.944H184.415L184.415 118.115H188.586L188.586 113.944Z" fill="black"/>
<path d="M196.929 113.944H192.758L192.757 118.115H196.929L196.929 113.944Z" fill="black"/>
<path d="M201.101 113.944H196.929L196.929 118.115H201.101L201.101 113.944Z" fill="black"/>
<path d="M209.444 113.944L205.272 113.943V118.115H209.444L209.444 113.944Z" fill="black"/>
<path d="M217.786 113.943L213.615 113.944L213.615 118.115H217.786V113.943Z" fill="black"/>
<path d="M221.958 113.943H217.786V118.115H221.958V113.943Z" fill="black"/>
<path d="M226.13 113.944L221.958 113.943V118.115H226.129L226.13 113.944Z" fill="black"/>
<path d="M246.987 113.944H242.816L242.815 118.115H246.987L246.987 113.944Z" fill="black"/>
<path d="M251.158 113.944H246.987L246.987 118.115H251.158L251.158 113.944Z" fill="black"/>
<path d="M134.357 118.115L130.186 118.114V122.286H134.357L134.357 118.115Z" fill="black"/>
<path d="M138.528 118.115H134.357L134.357 122.286H138.528V118.115Z" fill="black"/>
<path d="M142.7 118.115H138.528V122.286H142.7V118.115Z" fill="black"/>
<path d="M151.043 118.115H146.871L146.872 122.286H151.043V118.115Z" fill="black"/>
<path d="M155.214 118.114L151.043 118.115V122.286H155.214V118.114Z" fill="black"/>
<path d="M163.557 118.115L159.386 118.114V122.286H163.557L163.557 118.115Z" fill="black"/>
<path d="M176.072 118.115H171.9L171.9 122.286H176.072L176.072 118.115Z" fill="black"/>
<path d="M192.757 118.115H188.586L188.586 122.286H192.758L192.757 118.115Z" fill="black"/>
<path d="M196.929 118.115H192.757L192.758 122.286H196.929V118.115Z" fill="black"/>
<path d="M201.101 118.115H196.929V122.286H201.101V118.115Z" fill="black"/>
<path d="M205.272 118.115H201.101V122.286H205.272L205.272 118.115Z" fill="black"/>
<path d="M209.444 118.115H205.272L205.272 122.286H209.444V118.115Z" fill="black"/>
<path d="M213.615 118.115H209.444V122.286H213.615L213.615 118.115Z" fill="black"/>
<path d="M226.129 118.115H221.958L221.958 122.286H226.129V118.115Z" fill="black"/>
<path d="M230.301 118.114L226.129 118.115V122.286H230.301V118.114Z" fill="black"/>
<path d="M238.644 118.114H234.472V122.286H238.644V118.114Z" fill="black"/>
<path d="M242.815 118.115L238.644 118.114V122.286H242.815V118.115Z" fill="black"/>
<path d="M251.158 118.115H246.987L246.987 122.286H251.158V118.115Z" fill="black"/>
<path d="M255.33 118.114L251.158 118.115V122.286H255.33V118.114Z" fill="black"/>
<path d="M121.843 122.286H117.671V126.458H121.843V122.286Z" fill="black"/>
<path d="M126.014 122.286H121.843V126.458H126.014V122.286Z" fill="black"/>
<path d="M130.186 122.286L126.014 122.286V126.458H130.185L130.186 122.286Z" fill="black"/>
<path d="M138.528 122.286H134.357L134.357 126.458H138.528L138.528 122.286Z" fill="black"/>
<path d="M146.872 122.286H142.7L142.7 126.458H146.871L146.872 122.286Z" fill="black"/>
<path d="M151.043 122.286H146.872L146.871 126.458H151.043L151.043 122.286Z" fill="black"/>
<path d="M163.557 122.286H159.386L159.386 126.458H163.557L163.557 122.286Z" fill="black"/>
<path d="M167.729 122.286L163.557 122.286L163.557 126.458H167.729V122.286Z" fill="black"/>
<path d="M176.072 122.286H171.9L171.9 126.458H176.072L176.072 122.286Z" fill="black"/>
<path d="M180.243 122.286L176.072 122.286L176.072 126.458H180.243V122.286Z" fill="black"/>
<path d="M184.415 122.286H180.243V126.458H184.415V122.286Z" fill="black"/>
<path d="M188.586 122.286L184.415 122.286V126.458H188.586L188.586 122.286Z" fill="black"/>
<path d="M192.758 122.286H188.586L188.586 126.458H192.758L192.758 122.286Z" fill="black"/>
<path d="M205.272 122.286H201.101L201.101 126.458H205.272L205.272 122.286Z" fill="black"/>
<path d="M209.444 122.286H205.272L205.272 126.458H209.444L209.444 122.286Z" fill="black"/>
<path d="M213.615 122.286H209.444L209.444 126.458H213.615L213.615 122.286Z" fill="black"/>
<path d="M221.958 122.286L217.787 122.286V126.458H221.958L221.958 122.286Z" fill="black"/>
<path d="M226.129 122.286H221.958L221.958 126.458H226.13L226.129 122.286Z" fill="black"/>
<path d="M230.301 122.286H226.129L226.13 126.458H230.301L230.301 122.286Z" fill="black"/>
<path d="M234.472 122.286H230.301L230.301 126.458H234.473L234.472 122.286Z" fill="black"/>
<path d="M238.644 122.286H234.472L234.473 126.458H238.644L238.644 122.286Z" fill="black"/>
<path d="M242.815 122.286H238.644L238.644 126.458H242.816L242.815 122.286Z" fill="black"/>
<path d="M251.158 122.286H246.987L246.987 126.458H251.158L251.158 122.286Z" fill="black"/>
<path d="M155.214 126.458L151.043 126.458L151.043 130.63H155.214V126.458Z" fill="black"/>
<path d="M163.557 126.458H159.386L159.386 130.63H163.557L163.557 126.458Z" fill="black"/>
<path d="M167.729 126.458H163.557L163.557 130.63H167.729L167.729 126.458Z" fill="black"/>
<path d="M176.072 126.458H171.9L171.9 130.63H176.072L176.072 126.458Z" fill="black"/>
<path d="M180.243 126.458H176.072L176.072 130.63H180.243L180.243 126.458Z" fill="black"/>
<path d="M184.415 126.458H180.243L180.243 130.63H184.415L184.415 126.458Z" fill="black"/>
<path d="M188.586 126.458H184.415L184.415 130.63H188.586L188.586 126.458Z" fill="black"/>
<path d="M192.758 126.458H188.586L188.586 130.63H192.758L192.758 126.458Z" fill="black"/>
<path d="M209.444 126.458H205.272L205.272 130.63H209.444L209.444 126.458Z" fill="black"/>
<path d="M213.615 126.458H209.444L209.444 130.63H213.615L213.615 126.458Z" fill="black"/>
<path d="M217.787 126.458H213.615L213.615 130.63H217.786L217.787 126.458Z" fill="black"/>
<path d="M221.958 126.458H217.787L217.786 130.63H221.958L221.958 126.458Z" fill="black"/>
<path d="M238.644 126.458H234.473L234.472 130.63H238.644L238.644 126.458Z" fill="black"/>
<path d="M246.987 126.458H242.816L242.815 130.63H246.987L246.987 126.458Z" fill="black"/>
<path d="M155.214 130.63H151.043V134.801H155.214V130.63Z" fill="black"/>
<path d="M159.386 130.63H155.214V134.801H159.386L159.386 130.63Z" fill="black"/>
<path d="M163.557 130.63H159.386L159.386 134.801H163.557V130.63Z" fill="black"/>
<path d="M180.243 130.63H176.072L176.072 134.801H180.243V130.63Z" fill="black"/>
<path d="M184.415 130.63H180.243V134.801H184.415V130.63Z" fill="black"/>
<path d="M196.929 130.629L192.758 130.63L192.757 134.801H196.929V130.629Z" fill="black"/>
<path d="M221.958 130.63H217.786L217.786 134.801H221.958V130.63Z" fill="black"/>
<path d="M230.301 130.629H226.129V134.801H230.301V130.629Z" fill="black"/>
<path d="M238.644 130.63H234.472V134.801H238.644V130.63Z" fill="black"/>
<path d="M242.815 130.63H238.644V134.801H242.815V130.63Z" fill="black"/>
<path d="M167.729 134.801L163.557 134.801L163.557 138.973H167.729V134.801Z" fill="black"/>
<path d="M180.243 134.801H176.072L176.072 138.973H180.243L180.243 134.801Z" fill="black"/>
<path d="M184.415 134.801H180.243L180.243 138.973H184.415L184.415 134.801Z" fill="black"/>
<path d="M188.586 134.801L184.415 134.801L184.415 138.973H188.586V134.801Z" fill="black"/>
<path d="M201.101 134.801L196.929 134.801L196.929 138.973H201.101V134.801Z" fill="black"/>
<path d="M213.615 134.801H209.444V138.973H213.615V134.801Z" fill="black"/>
<path d="M221.958 134.801H217.786L217.787 138.973H221.958L221.958 134.801Z" fill="black"/>
<path d="M238.644 134.801H234.472L234.472 138.973H238.644L238.644 134.801Z" fill="black"/>
<path d="M255.33 134.801H251.158V138.973H255.33V134.801Z" fill="black"/>
<path d="M155.214 138.972H151.043V143.144H155.214V138.972Z" fill="black"/>
<path d="M167.729 138.973H163.557L163.557 143.144H167.729L167.729 138.973Z" fill="black"/>
<path d="M171.9 138.972L167.729 138.973L167.729 143.144H171.9V138.972Z" fill="black"/>
<path d="M176.072 138.973L171.9 138.972V143.144H176.072L176.072 138.973Z" fill="black"/>
<path d="M180.243 138.973H176.072L176.072 143.144H180.243L180.243 138.973Z" fill="black"/>
<path d="M188.586 138.973H184.415L184.415 143.144H188.586L188.586 138.973Z" fill="black"/>
<path d="M201.101 138.973H196.929L196.929 143.144H201.101L201.101 138.973Z" fill="black"/>
<path d="M213.615 138.973H209.444L209.444 143.144H213.615L213.615 138.973Z" fill="black"/>
<path d="M221.958 138.973H217.787L217.786 143.144H221.958L221.958 138.973Z" fill="black"/>
<path d="M226.129 138.972L221.958 138.973L221.958 143.144H226.129V138.972Z" fill="black"/>
<path d="M230.301 138.972H226.129V143.144H230.301V138.972Z" fill="black"/>
<path d="M234.472 138.973L230.301 138.972V143.144H234.472L234.472 138.973Z" fill="black"/>
<path d="M238.644 138.973H234.472L234.472 143.144H238.644L238.644 138.973Z" fill="black"/>
<path d="M242.815 138.972L238.644 138.973L238.644 143.144H242.815V138.972Z" fill="black"/>
<path d="M255.33 138.973H251.158L251.158 143.144H255.33L255.33 138.973Z" fill="black"/>
<path d="M159.386 143.143L155.214 143.144L155.214 147.315H159.386V143.143Z" fill="black"/>
<path d="M163.557 143.144L159.386 143.143V147.315H163.557L163.557 143.144Z" fill="black"/>
<path d="M171.9 143.144H167.729L167.729 147.315H171.9L171.9 143.144Z" fill="black"/>
<path d="M176.072 143.144H171.9L171.9 147.315H176.072L176.072 143.144Z" fill="black"/>
<path d="M196.929 143.144L192.758 143.143V147.315H196.929L196.929 143.144Z" fill="black"/>
<path d="M201.101 143.144H196.929L196.929 147.315H201.101L201.101 143.144Z" fill="black"/>
<path d="M205.272 143.143L201.101 143.144L201.101 147.315H205.272V143.143Z" fill="black"/>
<path d="M217.786 143.144H213.615L213.615 147.315H217.787L217.786 143.144Z" fill="black"/>
<path d="M230.301 143.144H226.129L226.13 147.315H230.301L230.301 143.144Z" fill="black"/>
<path d="M234.472 143.144H230.301L230.301 147.315H234.473L234.472 143.144Z" fill="black"/>
<path d="M238.644 143.144H234.472L234.473 147.315H238.644L238.644 143.144Z" fill="black"/>
<path d="M242.815 143.144H238.644L238.644 147.315H242.816L242.815 143.144Z" fill="black"/>
<path d="M246.987 143.143L242.815 143.144L242.816 147.315H246.987V143.143Z" fill="black"/>
<path d="M251.158 143.144L246.987 143.143V147.315H251.158L251.158 143.144Z" fill="black"/>
<path d="M159.386 147.315H155.214V151.487H159.386V147.315Z" fill="black"/>
<path d="M171.9 147.315H167.729V151.487H171.9V147.315Z" fill="black"/>
<path d="M180.243 147.315L176.072 147.315L176.072 151.487H180.243V147.315Z" fill="black"/>
<path d="M184.415 147.315H180.243V151.487H184.415V147.315Z" fill="black"/>
<path d="M196.929 147.315H192.758V151.487H196.929V147.315Z" fill="black"/>
<path d="M205.272 147.315H201.101L201.101 151.487H205.272V147.315Z" fill="black"/>
<path d="M209.444 147.315L205.272 147.315V151.487H209.444V147.315Z" fill="black"/>
<path d="M226.13 147.315L221.958 147.315V151.487H226.13L226.13 147.315Z" fill="black"/>
<path d="M230.301 147.315H226.13L226.13 151.487H230.301V147.315Z" fill="black"/>
<path d="M234.473 147.315H230.301V151.487H234.473V147.315Z" fill="black"/>
<path d="M238.644 147.315H234.473V151.487H238.644V147.315Z" fill="black"/>
<path d="M242.816 147.315H238.644V151.487H242.816V147.315Z" fill="black"/>
<path d="M167.729 151.487L163.557 151.487V155.659H167.729L167.729 151.487Z" fill="black"/>
<path d="M171.9 151.487H167.729L167.729 155.659H171.9L171.9 151.487Z" fill="black"/>
<path d="M176.072 151.487H171.9L171.9 155.659H176.072L176.072 151.487Z" fill="black"/>
<path d="M184.415 151.487H180.243L180.243 155.659H184.415L184.415 151.487Z" fill="black"/>
<path d="M188.586 151.487L184.415 151.487L184.415 155.659H188.586V151.487Z" fill="black"/>
<path d="M192.758 151.487L188.586 151.487V155.659H192.758L192.758 151.487Z" fill="black"/>
<path d="M196.929 151.487H192.758L192.758 155.659H196.929L196.929 151.487Z" fill="black"/>
<path d="M209.444 151.487H205.272L205.272 155.659H209.444L209.444 151.487Z" fill="black"/>
<path d="M217.786 151.487H213.615V155.659H217.786V151.487Z" fill="black"/>
<path d="M221.958 151.487L217.786 151.487V155.659H221.958L221.958 151.487Z" fill="black"/>
<path d="M230.301 151.487H226.13L226.129 155.659H230.301L230.301 151.487Z" fill="black"/>
<path d="M155.214 155.658H151.043V159.83H155.214V155.658Z" fill="black"/>
<path d="M163.557 155.659L159.386 155.658V159.83H163.557L163.557 155.659Z" fill="black"/>
<path d="M192.758 155.659H188.586L188.586 159.83H192.758V155.659Z" fill="black"/>
<path d="M201.101 155.658L196.929 155.659L196.929 159.83H201.101V155.658Z" fill="black"/>
<path d="M205.272 155.659L201.101 155.658V159.83H205.272L205.272 155.659Z" fill="black"/>
<path d="M209.444 155.659H205.272L205.272 159.83H209.444V155.659Z" fill="black"/>
<path d="M213.615 155.659H209.444V159.83H213.615L213.615 155.659Z" fill="black"/>
<path d="M217.786 155.659H213.615L213.615 159.83H217.786V155.659Z" fill="black"/>
<path d="M221.958 155.659H217.786V159.83H221.958V155.659Z" fill="black"/>
<path d="M226.129 155.659H221.958V159.83H226.129L226.129 155.659Z" fill="black"/>
<path d="M230.301 155.659H226.129L226.129 159.83H230.301V155.659Z" fill="black"/>
<path d="M242.815 155.658H238.644V159.83H242.815V155.658Z" fill="black"/>
<path d="M255.33 155.658H251.158V159.83H255.33V155.658Z" fill="black"/>
<path d="M117.671 22.1709V51.3713H146.871V22.1709H117.671ZM142.491 46.9912H122.051V26.551H142.491V46.9912Z" fill="black"/>
<path d="M226.13 22.1709V51.3713H255.33V22.1709H226.13ZM250.95 46.9912H230.51V26.551H250.95V46.9912Z" fill="black"/>
<path d="M117.671 130.629V159.83H146.871V130.629H117.671ZM142.491 155.45H122.051V135.009H142.491V155.45Z" fill="black"/>
<path d="M138.528 30.5144H126.014V43.0288H138.528V30.5144Z" fill="black"/>
<path d="M246.987 30.5144H234.472V43.0288H246.987V30.5144Z" fill="black"/>
<path d="M138.528 138.972H126.014V151.487H138.528V138.972Z" fill="black"/>
<mask id="path-2-inside-1_90_6437" fill="white">
<path d="M102.897 181.034C99.3449 181.034 96.4656 178.155 96.4656 174.603V161.741H115.759V181.034H102.897Z"/>
</mask>
<path d="M102.897 184.25C97.569 184.25 93.2501 179.931 93.2501 174.603V161.741H99.6811V174.603C99.6811 176.379 101.121 177.819 102.897 177.819L102.897 184.25ZM115.759 161.741V181.034V161.741ZM115.759 184.25H102.897C97.569 184.25 93.2501 179.931 93.2501 174.603L99.6811 174.603C99.6811 176.379 101.121 177.819 102.897 177.819H115.759V184.25ZM96.4656 161.741H115.759H96.4656Z" fill="#7F56D9" mask="url(#path-2-inside-1_90_6437)"/>
<mask id="path-4-inside-2_90_6437" fill="white">
<path d="M270.104 181.034C273.655 181.034 276.535 178.155 276.535 174.603V161.741H257.241V181.034H270.104Z"/>
</mask>
<path d="M270.104 184.25C275.431 184.25 279.75 179.931 279.75 174.603V161.741H273.319V174.603C273.319 176.379 271.879 177.819 270.104 177.819L270.104 184.25ZM257.241 161.741V181.034V161.741ZM257.241 184.25H270.104C275.431 184.25 279.75 179.931 279.75 174.603L273.319 174.603C273.319 176.379 271.879 177.819 270.104 177.819H257.241V184.25ZM276.535 161.741H257.241H276.535Z" fill="#7F56D9" mask="url(#path-4-inside-2_90_6437)"/>
<mask id="path-6-inside-3_90_6437" fill="white">
<path d="M96.4656 7.39662C96.4656 3.84485 99.3448 0.965576 102.897 0.965576H115.759V20.2587H96.4656V7.39662Z"/>
</mask>
<path d="M93.2501 7.39661C93.2501 2.06897 97.569 -2.24994 102.897 -2.24994H115.759V4.18109H102.897C101.121 4.18109 99.6811 5.62073 99.6811 7.39661L93.2501 7.39661ZM115.759 20.2587H96.4656H115.759ZM93.2501 20.2587V7.39661C93.2501 2.06897 97.569 -2.24994 102.897 -2.24994L102.897 4.18109C101.121 4.18109 99.6811 5.62073 99.6811 7.39661V20.2587H93.2501ZM115.759 0.965576V20.2587V0.965576Z" fill="#7F56D9" mask="url(#path-6-inside-3_90_6437)"/>
<mask id="path-8-inside-4_90_6437" fill="white">
<path d="M276.535 7.39662C276.535 3.84485 273.655 0.965576 270.104 0.965576H257.241V20.2587H276.535V7.39662Z"/>
</mask>
<path d="M279.75 7.39661C279.75 2.06897 275.431 -2.24994 270.104 -2.24994H257.241V4.18109H270.104C271.879 4.18109 273.319 5.62073 273.319 7.39661L279.75 7.39661ZM257.241 20.2587H276.535H257.241ZM279.75 20.2587V7.39661C279.75 2.06897 275.431 -2.24994 270.104 -2.24994L270.104 4.18109C271.879 4.18109 273.319 5.62073 273.319 7.39661V20.2587H279.75ZM257.241 0.965576V20.2587V0.965576Z" fill="#7F56D9" mask="url(#path-8-inside-4_90_6437)"/>
<g clip-path="url(#clip1_90_6437)">
<mask id="mask0_90_6437" style="mask-type:alpha" maskUnits="userSpaceOnUse" x="0" y="91" width="373" height="91">
<rect width="373" height="90.0345" transform="translate(0 91)" fill="url(#paint0_radial_90_6437)"/>
</mask>
<g mask="url(#mask0_90_6437)">
<path opacity="0.1" d="M0 91H373V181.034H0V91Z" fill="#7F56D9"/>
<line x1="1.40555e-07" y1="90.9999" x2="373" y2="90.9999" stroke="#9E77ED" stroke-width="3.21552"/>
</g>
</g>
</g>
<defs>
<radialGradient id="paint0_radial_90_6437" cx="0" cy="0" r="1" gradientUnits="userSpaceOnUse" gradientTransform="translate(186.5 -1.07329e-05) rotate(90) scale(90.0345 194.682)">
<stop/>
<stop offset="0.953125" stop-opacity="0"/>
</radialGradient>
<clipPath id="clip0_90_6437">
<rect width="373" height="180.069" fill="white" transform="translate(0 0.965576)"/>
</clipPath>
<clipPath id="clip1_90_6437">
<rect width="373" height="90.0345" fill="white" transform="translate(0 91)"/>
</clipPath>
</defs>
</svg>
