<svg width="26" height="26" viewBox="0 0 26 26" fill="none" xmlns="http://www.w3.org/2000/svg">
<g clip-path="url(#clip0_20844_1526)">
<path d="M23.8337 10.8335V17.3335C23.8337 18.4828 23.3771 19.585 22.5645 20.3976C21.7518 21.2103 20.6496 21.6668 19.5003 21.6668H6.50033C5.35105 21.6668 4.24885 21.2103 3.4362 20.3976C2.62354 19.585 2.16699 18.4828 2.16699 17.3335V10.8335H23.8337ZM7.59449 15.1668H7.58366C7.44139 15.1675 7.30066 15.1963 7.1695 15.2514C7.03833 15.3065 6.91931 15.3869 6.81921 15.488C6.61706 15.6921 6.50431 15.9683 6.50574 16.2556C6.50645 16.3978 6.53518 16.5386 6.59028 16.6697C6.64538 16.8009 6.72577 16.9199 6.82687 17.02C6.92797 17.1201 7.0478 17.1993 7.17951 17.2531C7.31121 17.3069 7.45223 17.3342 7.59449 17.3335C7.88181 17.3335 8.15736 17.2194 8.36052 17.0162C8.56369 16.813 8.67783 16.5375 8.67783 16.2502C8.67783 15.9628 8.56369 15.6873 8.36052 15.4841C8.15736 15.281 7.88181 15.1668 7.59449 15.1668ZM14.0837 15.1668H11.917C11.6297 15.1668 11.3541 15.281 11.151 15.4841C10.9478 15.6873 10.8337 15.9628 10.8337 16.2502C10.8337 16.5375 10.9478 16.813 11.151 17.0162C11.3541 17.2194 11.6297 17.3335 11.917 17.3335H14.0837C14.371 17.3335 14.6465 17.2194 14.8497 17.0162C15.0529 16.813 15.167 16.5375 15.167 16.2502C15.167 15.9628 15.0529 15.6873 14.8497 15.4841C14.6465 15.281 14.371 15.1668 14.0837 15.1668ZM19.5003 4.3335C20.6496 4.3335 21.7518 4.79004 22.5645 5.6027C23.3771 6.41536 23.8337 7.51756 23.8337 8.66683H2.16699C2.16699 7.51756 2.62354 6.41536 3.4362 5.6027C4.24885 4.79004 5.35105 4.3335 6.50033 4.3335H19.5003Z" fill="#181D27"/>
</g>
<defs>
<clipPath id="clip0_20844_1526">
<rect width="26" height="26" fill="white"/>
</clipPath>
</defs>
</svg>
