<svg width="24" height="25" viewBox="0 0 24 25" fill="none" xmlns="http://www.w3.org/2000/svg">
<g clip-path="url(#clip0_129_10612)">
<path d="M8.55965 4.06036C7.46773 4.51235 6.47552 5.17496 5.63965 6.01036" stroke="#6BC33F" stroke-width="2" stroke-linecap="round" stroke-linejoin="round"/>
<path d="M3.69 8.93036C3.23656 10.0207 3.0021 11.1895 3 12.3704" stroke="#6BC33F" stroke-width="2" stroke-linecap="round" stroke-linejoin="round"/>
<path d="M3.69043 15.8104C4.14242 16.9023 4.80502 17.8945 5.64043 18.7304" stroke="#6BC33F" stroke-width="2" stroke-linecap="round" stroke-linejoin="round"/>
<path d="M8.55957 20.6804C9.64987 21.1338 10.8187 21.3683 11.9996 21.3704" stroke="#6BC33F" stroke-width="2" stroke-linecap="round" stroke-linejoin="round"/>
<path d="M15.4404 20.6803C16.5323 20.2284 17.5246 19.5658 18.3604 18.7303" stroke="#6BC33F" stroke-width="2" stroke-linecap="round" stroke-linejoin="round"/>
<path d="M20.3096 15.8104C20.763 14.7201 20.9975 13.5512 20.9996 12.3704" stroke="#6BC33F" stroke-width="2" stroke-linecap="round" stroke-linejoin="round"/>
<path d="M20.3104 8.93038C19.8584 7.83846 19.1958 6.84624 18.3604 6.01038" stroke="#6BC33F" stroke-width="2" stroke-linecap="round" stroke-linejoin="round"/>
<path d="M15.44 4.06036C14.3497 3.60692 13.1808 3.37246 12 3.37036" stroke="#6BC33F" stroke-width="2" stroke-linecap="round" stroke-linejoin="round"/>
<path d="M9 12.3704L11 14.3704L15 10.3704" stroke="#6BC33F" stroke-width="2" stroke-linecap="round" stroke-linejoin="round"/>
</g>
<defs>
<clipPath id="clip0_129_10612">
<rect width="24" height="24" fill="white" transform="translate(0 0.370361)"/>
</clipPath>
</defs>
</svg>
