<svg width="32" height="33" viewBox="0 0 32 33" fill="none" xmlns="http://www.w3.org/2000/svg">
<g id="SVG">
<path id="Vector" d="M15.9999 3.46094C20.9984 3.46094 25.0505 7.51299 25.0505 12.5115C25.0505 12.6582 25.047 12.8041 25.0401 12.9492C28.0585 14.0112 30.2222 16.8875 30.2222 20.2691C30.2222 24.5534 26.749 28.0266 22.4646 28.0266H9.53527C5.25088 28.0266 1.77769 24.5534 1.77769 20.2691C1.77769 16.8875 3.94136 14.0112 6.9598 12.9492C6.9529 12.8041 6.94941 12.6582 6.94941 12.5115C6.94941 7.51299 11.0015 3.46094 15.9999 3.46094ZM15.9999 6.04679C12.4296 6.04679 9.53527 8.94112 9.53527 12.5115C9.53527 12.6168 9.53777 12.7217 9.54275 12.8261L9.63433 14.7493L7.81804 15.3885C5.76561 16.1106 4.36356 18.0567 4.36356 20.2691C4.36356 23.1252 6.67901 25.4407 9.53527 25.4407H22.4646C25.3208 25.4407 27.6363 23.1252 27.6363 20.2691C27.6363 17.4116 25.322 15.0973 22.4646 15.0973C20.18 15.0973 18.2415 16.5786 17.5568 18.6331L15.1031 17.8151C16.1298 14.7333 19.0383 12.5115 22.4646 12.5115C22.4646 8.94112 19.5702 6.04679 15.9999 6.04679Z" fill="#FAFAFA"/>
</g>
</svg>
