<svg width="62" height="62" viewBox="0 0 62 62" fill="none" xmlns="http://www.w3.org/2000/svg">
<path d="M9 0.5C4.30558 0.5 0.5 4.30558 0.5 9V53C0.5 57.6944 4.30558 61.5 9 61.5H53C57.6944 61.5 61.5 57.6944 61.5 53V9C61.5 4.30558 57.6944 0.5 53 0.5H9Z" fill="#F0EEF4"/>
<path d="M9 0.5C4.30558 0.5 0.5 4.30558 0.5 9V53C0.5 57.6944 4.30558 61.5 9 61.5H53C57.6944 61.5 61.5 57.6944 61.5 53V9C61.5 4.30558 57.6944 0.5 53 0.5H9Z" stroke="#E9EAEB"/>
<g clip-path="url(#clip0_96_4269)">
<path d="M23.5 32.5C24.718 32.5 25.8745 32.854 26.8615 33.457C24.7915 34.465 23.101 36.3055 22.2685 38.5H19C18.5065 38.5 18.046 38.2585 17.7655 37.852C17.485 37.4455 17.422 36.9295 17.5975 36.4675C18.4975 34.0945 20.869 32.4985 23.5 32.4985V32.5ZM31 32.5C33.4855 32.5 35.5 30.4855 35.5 28C35.5 25.5145 33.4855 23.5 31 23.5C28.5145 23.5 26.5 25.5145 26.5 28C26.5 30.4855 28.5145 32.5 31 32.5ZM19.087 24.943C19.087 27.4285 21.1015 29.443 23.587 29.443C23.6065 29.443 23.6245 29.437 23.644 29.437C23.5525 28.9705 23.4985 28.492 23.4985 28C23.4985 25.4215 24.808 23.1445 26.7955 21.793C25.9795 20.9605 24.844 20.4415 23.587 20.4415C21.1015 20.4415 19.087 22.4575 19.087 24.943ZM35.1385 33.4585C37.2085 34.4665 38.899 36.307 39.7315 38.5015H43C43.4935 38.5015 43.954 38.26 44.2345 37.8535C44.515 37.447 44.578 36.931 44.4025 36.469C43.5025 34.096 41.131 32.5 38.5 32.5C37.282 32.5 36.1255 32.854 35.1385 33.457V33.4585ZM38.5 20.5015C37.2385 20.5015 36.1015 21.025 35.284 21.8605C37.2235 23.218 38.5 25.459 38.5 28.0015C38.5 28.51 38.4475 29.0065 38.35 29.4865C38.401 29.488 38.449 29.5015 38.5 29.5015C40.9855 29.5015 43 27.487 43 25.0015C43 22.516 40.9855 20.5015 38.5 20.5015ZM47.5 37.0015C46.672 37.0015 46 37.672 46 38.5015V41.5015C46 43.9825 43.981 46.0015 41.5 46.0015H38.5C37.672 46.0015 37 46.672 37 47.5015C37 48.331 37.672 49.0015 38.5 49.0015H41.5C45.6355 49.0015 49 45.637 49 41.5015V38.5015C49 37.672 48.328 37.0015 47.5 37.0015ZM41.5 13H38.5C37.672 13 37 13.6705 37 14.5C37 15.3295 37.672 16 38.5 16H41.5C43.981 16 46 18.019 46 20.5V23.5C46 24.3295 46.672 25 47.5 25C48.328 25 49 24.3295 49 23.5V20.5C49 16.3645 45.6355 13 41.5 13ZM23.5 46H20.5C18.019 46 16 43.981 16 41.5V38.5C16 37.6705 15.328 37 14.5 37C13.672 37 13 37.6705 13 38.5V41.5C13 45.6355 16.3645 49 20.5 49H23.5C24.328 49 25 48.3295 25 47.5C25 46.6705 24.328 46 23.5 46ZM31 35.5C28.369 35.5 25.9975 37.0945 25.0975 39.469C24.922 39.931 24.985 40.447 25.2655 40.8535C25.546 41.26 26.0065 41.5015 26.5 41.5015H35.5C35.9935 41.5015 36.454 41.26 36.7345 40.8535C37.015 40.447 37.078 39.931 36.9025 39.469C36.0025 37.096 33.631 35.5 31 35.5ZM14.5 25C15.328 25 16 24.3295 16 23.5V20.5C16 18.019 18.019 16 20.5 16H23.5C24.328 16 25 15.3295 25 14.5C25 13.6705 24.328 13 23.5 13H20.5C16.3645 13 13 16.3645 13 20.5V23.5C13 24.3295 13.672 25 14.5 25Z" fill="#6BC33F"/>
</g>
<defs>
<clipPath id="clip0_96_4269">
<rect width="36" height="36" fill="white" transform="translate(13 13)"/>
</clipPath>
</defs>
</svg>
