<svg width="25" height="24" viewBox="0 0 25 24" fill="none" xmlns="http://www.w3.org/2000/svg">
<g id="Check">
<rect x="0.733008" y="0.4" width="23.2" height="23.2" rx="11.6" fill="#F6FCFF"/>
<rect x="0.733008" y="0.4" width="23.2" height="23.2" rx="11.6" stroke="#6BC33F" stroke-width="0.8"/>
<path id="Vector" d="M20.5258 7.47222L10.5469 17.4511C10.4585 17.5403 10.3382 17.5904 10.2127 17.5904C10.0872 17.5904 9.96685 17.5403 9.87847 17.4511L4.80427 12.3769C4.71516 12.2886 4.66504 12.1683 4.66504 12.0427C4.66504 11.9172 4.71516 11.7969 4.80427 11.7085L5.46326 11.0495C5.55164 10.9605 5.67195 10.9103 5.79746 10.9103C5.92297 10.9103 6.04328 10.9605 6.13166 11.0495L10.208 15.1258L19.1984 6.13541C19.3846 5.95486 19.6806 5.95486 19.8668 6.13541L20.5258 6.80382C20.615 6.89219 20.665 7.01251 20.665 7.13802C20.665 7.26352 20.615 7.38383 20.5258 7.47222Z" fill="#6BC33F"/>
</g>
</svg>
