<svg width="60" height="60" viewBox="0 0 60 60" fill="none" xmlns="http://www.w3.org/2000/svg">
<path d="M0 16C0 7.16344 7.16344 0 16 0H44C52.8366 0 60 7.16344 60 16V44C60 52.8366 52.8366 60 44 60H16C7.16344 60 0 52.8366 0 44V16Z" fill="#6BC33F"/>
<path d="M30 27C29.2044 27 28.4413 27.3161 27.8787 27.8787C27.3161 28.4413 27 29.2044 27 30C27 31.53 26.85 33.765 26.61 36" stroke="#FAFAFA" stroke-width="3.375" stroke-linecap="round" stroke-linejoin="round"/>
<path d="M33 31.68C33 35.25 33 41.25 31.5 45" stroke="#FAFAFA" stroke-width="3.375" stroke-linecap="round" stroke-linejoin="round"/>
<path d="M37.935 43.53C38.115 42.63 38.58 40.08 38.685 39" stroke="#FAFAFA" stroke-width="3.375" stroke-linecap="round" stroke-linejoin="round"/>
<path d="M15 30C15 26.8518 15.9906 23.7833 17.8314 21.2293C19.6722 18.6754 22.2699 16.7653 25.2566 15.7698C28.2433 14.7742 31.4675 14.7436 34.4725 15.6823C37.4775 16.621 40.1111 18.4814 42 21" stroke="#FAFAFA" stroke-width="3.375" stroke-linecap="round" stroke-linejoin="round"/>
<path d="M15 36H15.015" stroke="#FAFAFA" stroke-width="3.375" stroke-linecap="round" stroke-linejoin="round"/>
<path d="M44.7 36C45 33 44.8965 27.969 44.7 27" stroke="#FAFAFA" stroke-width="3.375" stroke-linecap="round" stroke-linejoin="round"/>
<path d="M19.5 41.25C20.25 39 21 34.5 21 30C20.9985 28.9783 21.1709 27.9638 21.51 27" stroke="#FAFAFA" stroke-width="3.375" stroke-linecap="round" stroke-linejoin="round"/>
<path d="M24.975 45C25.29 44.01 25.65 43.02 25.83 42" stroke="#FAFAFA" stroke-width="3.375" stroke-linecap="round" stroke-linejoin="round"/>
<path d="M25.5 22.2C26.8686 21.4098 28.4211 20.994 30.0014 20.9942C31.5818 20.9945 33.1342 21.4108 34.5025 22.2014C35.8708 22.992 37.0069 24.129 37.7964 25.498C38.5859 26.867 39.001 28.4197 39 30V33" stroke="#FAFAFA" stroke-width="3.375" stroke-linecap="round" stroke-linejoin="round"/>
</svg>
