<svg width="24" height="24" viewBox="0 0 24 24" fill="none" xmlns="http://www.w3.org/2000/svg">
<g clip-path="url(#clip0_20818_3233)">
<path fill-rule="evenodd" clip-rule="evenodd" d="M16.8424 6.54781C15.6034 5.36611 13.9499 4.72235 12.2391 4.74881C9.10845 4.74881 6.44963 6.86086 5.50161 9.70486V9.70493C4.99895 11.1953 4.99895 12.8091 5.50161 14.2994H5.50601C6.45843 17.139 9.11285 19.2511 12.2435 19.2511C13.8595 19.2511 15.2469 18.8378 16.3221 18.1077V18.1047C17.5876 17.2669 18.4518 15.9486 18.7208 14.4582H12.2391V9.83722H23.5579C23.699 10.6397 23.7651 11.4599 23.7651 12.2756C23.7651 15.9254 22.4607 19.0112 20.1911 21.1012L20.1935 21.103C18.2049 22.9373 15.4755 24 12.2391 24C7.70186 24 3.55268 21.4426 1.51556 17.3904V17.3904C-0.186426 13.9996 -0.186422 10.0048 1.51558 6.61398H1.5156L1.51556 6.61395C3.55268 2.55737 7.70186 -4.58262e-05 12.2391 -4.58262e-05C15.2198 -0.0353205 18.0991 1.08465 20.2685 3.12176L16.8424 6.54781Z" fill="#A4A7AE"/>
</g>
<defs>
<clipPath id="clip0_20818_3233">
<rect width="24" height="24" fill="white"/>
</clipPath>
</defs>
</svg>
