<svg width="62" height="62" viewBox="0 0 62 62" fill="none" xmlns="http://www.w3.org/2000/svg">
<path d="M9 0.5C4.30558 0.5 0.5 4.30558 0.5 9V53C0.5 57.6944 4.30558 61.5 9 61.5H53C57.6944 61.5 61.5 57.6944 61.5 53V9C61.5 4.30558 57.6944 0.5 53 0.5H9Z" fill="#F0EEF4"/>
<path d="M9 0.5C4.30558 0.5 0.5 4.30558 0.5 9V53C0.5 57.6944 4.30558 61.5 9 61.5H53C57.6944 61.5 61.5 57.6944 61.5 53V9C61.5 4.30558 57.6944 0.5 53 0.5H9Z" stroke="#F5F5F5"/>
<g clip-path="url(#clip0_95_4602)">
<path d="M17.1266 35.5H13.0001V34C12.9774 31.8968 13.5344 29.828 14.61 28.0205C15.6856 26.213 17.2383 24.7367 19.0976 23.7535C20.9294 22.8504 22.9131 22.2959 24.9476 22.1185C24.0586 23.2185 23.1671 24.3875 22.2731 25.6255C20.2596 28.7529 18.5369 32.0582 17.1266 35.5ZM36.3746 39.7195C33.2476 41.7357 29.9422 43.4609 26.5001 44.8735V49H28.0001C30.1033 49.0227 32.1722 48.4657 33.9796 47.3901C35.7871 46.3145 37.2634 44.7619 38.2466 42.9025C39.1498 41.0708 39.7042 39.087 39.8816 37.0525C38.7866 37.9375 37.6176 38.8265 36.3746 39.7195ZM49.0001 17.4865C48.8006 24.016 44.0996 30.4915 34.6271 37.2865C32.0494 38.9575 29.33 40.3991 26.5001 41.5945V40.75C26.4934 39.3597 25.9382 38.0282 24.9551 37.0451C23.9719 36.062 22.6405 35.5067 21.2501 35.5H20.4056C21.6025 32.6702 23.0461 29.9512 24.7196 27.3745C31.4981 17.917 37.9631 13.216 44.4821 13C47.7311 13 49.0001 14.3275 49.0001 17.4865ZM40.0001 25.75C40.0001 24.7554 39.6051 23.8016 38.9018 23.0983C38.1985 22.3951 37.2447 22 36.2501 22C35.2556 22 34.3018 22.3951 33.5985 23.0983C32.8952 23.8016 32.5001 24.7554 32.5001 25.75C32.5001 26.7446 32.8952 27.6984 33.5985 28.4017C34.3018 29.1049 35.2556 29.5 36.2501 29.5C37.2447 29.5 38.1985 29.1049 38.9018 28.4017C39.6051 27.6984 40.0001 26.7446 40.0001 25.75ZM15.0611 48.6775C16.7501 48.3775 20.8226 47.5405 22.1831 46.1815C22.601 45.7636 22.9325 45.2675 23.1587 44.7215C23.3849 44.1755 23.5013 43.5902 23.5013 42.9993C23.5013 42.4083 23.3849 41.823 23.1587 41.277C22.9325 40.731 22.601 40.2349 22.1831 39.817C21.7653 39.3991 21.2691 39.0676 20.7231 38.8414C20.1771 38.6153 19.5919 38.4989 19.0009 38.4989C17.8073 38.4989 16.6626 38.973 15.8186 39.817C14.4596 41.1775 13.6211 45.25 13.3226 46.939L12.9521 49.048L15.0611 48.6775Z" fill="#6BC33F"/>
</g>
<defs>
<clipPath id="clip0_95_4602">
<rect width="36" height="36" fill="white" transform="translate(13 13)"/>
</clipPath>
</defs>
</svg>
