<svg width="15" height="16" viewBox="0 0 15 16" fill="none" xmlns="http://www.w3.org/2000/svg">
<path id="Vector" fill-rule="evenodd" clip-rule="evenodd" d="M4.40795 0.545C5.20773 0.508182 5.46273 0.5 7.5 0.5C9.53727 0.5 9.79227 0.508864 10.5914 0.545C11.3905 0.581136 11.9359 0.708636 12.4132 0.893409C12.913 1.08227 13.3664 1.3775 13.7414 1.75932C14.1232 2.13364 14.4177 2.58636 14.6059 3.08682C14.7914 3.56409 14.9182 4.10955 14.955 4.90727C14.9918 5.70841 15 5.96341 15 8C15 10.0373 14.9911 10.2923 14.955 11.092C14.9189 11.8898 14.7914 12.4352 14.6059 12.9125C14.4177 13.413 14.1227 13.8665 13.7414 14.2414C13.3664 14.6232 12.913 14.9177 12.4132 15.1059C11.9359 15.2914 11.3905 15.4182 10.5927 15.455C9.79227 15.4918 9.53727 15.5 7.5 15.5C5.46273 15.5 5.20773 15.4911 4.40795 15.455C3.61023 15.4189 3.06477 15.2914 2.5875 15.1059C2.08699 14.9177 1.63351 14.6227 1.25864 14.2414C0.877077 13.8668 0.581806 13.4136 0.393409 12.9132C0.208636 12.4359 0.0818182 11.8905 0.045 11.0927C0.00818181 10.2916 0 10.0366 0 8C0 5.96273 0.00886363 5.70773 0.045 4.90864C0.0811364 4.10955 0.208636 3.56409 0.393409 3.08682C0.582084 2.58642 0.877581 2.13317 1.25932 1.75864C1.63366 1.37716 2.08669 1.08189 2.58682 0.893409C3.06409 0.708636 3.60955 0.581818 4.40727 0.545H4.40795ZM10.5307 1.895C9.73977 1.85886 9.5025 1.85136 7.5 1.85136C5.4975 1.85136 5.26023 1.85886 4.46932 1.895C3.73773 1.92841 3.34091 2.05045 3.07636 2.15341C2.72659 2.28977 2.47636 2.45136 2.21386 2.71386C1.96503 2.95594 1.77353 3.25065 1.65341 3.57636C1.55045 3.84091 1.42841 4.23773 1.395 4.96932C1.35886 5.76023 1.35136 5.9975 1.35136 8C1.35136 10.0025 1.35886 10.2398 1.395 11.0307C1.42841 11.7623 1.55045 12.1591 1.65341 12.4236C1.77341 12.7489 1.965 13.0441 2.21386 13.2861C2.45591 13.535 2.75114 13.7266 3.07636 13.8466C3.34091 13.9495 3.73773 14.0716 4.46932 14.105C5.26023 14.1411 5.49682 14.1486 7.5 14.1486C9.50318 14.1486 9.73977 14.1411 10.5307 14.105C11.2623 14.0716 11.6591 13.9495 11.9236 13.8466C12.2734 13.7102 12.5236 13.5486 12.7861 13.2861C13.035 13.0441 13.2266 12.7489 13.3466 12.4236C13.4495 12.1591 13.5716 11.7623 13.605 11.0307C13.6411 10.2398 13.6486 10.0025 13.6486 8C13.6486 5.9975 13.6411 5.76023 13.605 4.96932C13.5716 4.23773 13.4495 3.84091 13.3466 3.57636C13.2102 3.22659 13.0486 2.97636 12.7861 2.71386C12.544 2.46505 12.2493 2.27355 11.9236 2.15341C11.6591 2.05045 11.2623 1.92841 10.5307 1.895ZM6.54205 10.312C7.07704 10.5347 7.67276 10.5648 8.22745 10.3971C8.78215 10.2294 9.2614 9.87426 9.58337 9.39244C9.90534 8.91062 10.05 8.33196 9.99276 7.7553C9.93548 7.17864 9.67978 6.63975 9.26932 6.23068C9.00766 5.96919 8.69128 5.76896 8.34295 5.64442C7.99463 5.51987 7.62302 5.47411 7.25488 5.51042C6.88675 5.54673 6.53124 5.66421 6.21396 5.85441C5.89667 6.0446 5.62551 6.30278 5.41998 6.61035C5.21445 6.91793 5.07967 7.26724 5.02535 7.63316C4.97103 7.99907 4.99851 8.37247 5.10582 8.72649C5.21313 9.0805 5.3976 9.40633 5.64595 9.68049C5.89429 9.95466 6.20034 10.1704 6.54205 10.312ZM4.77409 5.27409C5.13206 4.91612 5.55704 4.63216 6.02475 4.43843C6.49246 4.2447 6.99375 4.14498 7.5 4.14498C8.00625 4.14498 8.50754 4.2447 8.97525 4.43843C9.44296 4.63216 9.86794 4.91612 10.2259 5.27409C10.5839 5.63206 10.8678 6.05704 11.0616 6.52475C11.2553 6.99246 11.355 7.49375 11.355 8C11.355 8.50625 11.2553 9.00754 11.0616 9.47525C10.8678 9.94296 10.5839 10.3679 10.2259 10.7259C9.50295 11.4489 8.52241 11.855 7.5 11.855C6.47759 11.855 5.49705 11.4489 4.77409 10.7259C4.05113 10.003 3.64498 9.02241 3.64498 8C3.64498 6.97759 4.05113 5.99705 4.77409 5.27409ZM12.21 4.71909C12.2987 4.63541 12.3697 4.53478 12.4188 4.42316C12.468 4.31155 12.4942 4.19121 12.496 4.06927C12.4977 3.94734 12.475 3.82628 12.4292 3.71328C12.3833 3.60028 12.3153 3.49762 12.2291 3.41139C12.1428 3.32516 12.0402 3.25711 11.9272 3.21126C11.8142 3.16542 11.6931 3.14271 11.5712 3.14449C11.4492 3.14627 11.3289 3.17249 11.2173 3.22161C11.1057 3.27073 11.005 3.34175 10.9214 3.43045C10.7586 3.60297 10.6695 3.83213 10.673 4.06927C10.6764 4.30641 10.7722 4.53287 10.9399 4.70057C11.1076 4.86828 11.334 4.96402 11.5712 4.96748C11.8083 4.97093 12.0375 4.88183 12.21 4.71909Z" fill="black"/>
</svg>
