<svg width="24" height="24" viewBox="0 0 24 24" fill="none" xmlns="http://www.w3.org/2000/svg">
<path d="M0 12C0 5.37258 5.37258 0 12 0V0C18.6274 0 24 5.37258 24 12V12C24 18.6274 18.6274 24 12 24V24C5.37258 24 0 18.6274 0 12V12Z" fill="#6BC33F"/>
<g clip-path="url(#clip0_20820_8194)">
<path d="M17.1117 6H6.88594C6.39609 6 6 6.38672 6 6.86484V17.1328C6 17.6109 6.39609 18 6.88594 18H17.1117C17.6016 18 18 17.6109 18 17.1352V6.86484C18 6.38672 17.6016 6 17.1117 6ZM9.56016 16.2258H7.77891V10.4977H9.56016V16.2258ZM8.66953 9.71719C8.09766 9.71719 7.63594 9.25547 7.63594 8.68594C7.63594 8.11641 8.09766 7.65469 8.66953 7.65469C9.23906 7.65469 9.70078 8.11641 9.70078 8.68594C9.70078 9.25312 9.23906 9.71719 8.66953 9.71719ZM16.2258 16.2258H14.4469V13.4414C14.4469 12.7781 14.4352 11.9227 13.5211 11.9227C12.5953 11.9227 12.4547 12.6469 12.4547 13.3945V16.2258H10.6781V10.4977H12.3844V11.2805H12.4078C12.6445 10.8305 13.2258 10.3547 14.0906 10.3547C15.893 10.3547 16.2258 11.5406 16.2258 13.0828V16.2258V16.2258Z" fill="#FAFAFA"/>
</g>
<defs>
<clipPath id="clip0_20820_8194">
<rect width="12" height="12" fill="white" transform="translate(6 6)"/>
</clipPath>
</defs>
</svg>
