<svg width="200" height="200" viewBox="0 0 200 200" fill="none" xmlns="http://www.w3.org/2000/svg">
<g id="Frame">
<g id="Group">
<g id="Group_2">
<g id="Group_3">
<path id="Vector" d="M159.5 79H149V64.9999C149 37.9811 127.019 16 100 16C72.9809 16 51.0001 37.9811 51.0001 64.9999V79H40.5001C38.5655 79 37 80.5655 37 82.5001V170C37 177.721 43.2787 184 51.0001 184H149C156.721 184 163 177.721 163 170V82.5001C163 80.5655 161.435 79 159.5 79ZM110.48 152.114C110.589 153.101 110.271 154.093 109.608 154.835C108.945 155.576 107.995 156 107 156H93.0001C92.0056 156 91.0553 155.576 90.3922 154.835C89.729 154.093 89.4111 153.102 89.5207 152.114L91.7286 132.259C88.1432 129.651 86.0002 125.525 86.0002 121C86.0002 113.279 92.2789 107 100 107C107.722 107 114 113.279 114 121C114 125.525 111.857 129.651 108.272 132.259L110.48 152.114ZM128 79H72.0001V64.9999C72.0001 49.5609 84.5611 37 100 37C115.439 37 128 49.5609 128 64.9999V79Z" fill="#181D27"/>
</g>
</g>
</g>
</g>
</svg>
