<svg width="134" height="32" viewBox="0 0 134 32" fill="none" xmlns="http://www.w3.org/2000/svg">
<rect width="21.7544" height="6.31579" transform="translate(3.15784 3.36841)" fill="#6BC33F"/>
<path fill-rule="evenodd" clip-rule="evenodd" d="M4.91228 0.210571C2.1993 0.210571 0 2.40987 0 5.12285V26.8772C0 29.5902 2.1993 31.7895 4.91228 31.7895H35.0877C37.8007 31.7895 40 29.5902 40 26.8772V5.12285C40 2.40987 37.8007 0.210571 35.0877 0.210571H4.91228ZM6.31579 3.71941C4.76551 3.71941 3.50877 4.97615 3.50877 6.52643C3.50877 8.07671 4.76551 9.33345 6.31579 9.33345C7.86607 9.33345 9.12281 8.07671 9.12281 6.52643C9.12281 4.97615 7.86607 3.71941 6.31579 3.71941ZM11.2282 6.52643C11.2282 4.97615 12.4849 3.71941 14.0352 3.71941C15.5855 3.71941 16.8422 4.97615 16.8422 6.52643C16.8422 8.07671 15.5855 9.33345 14.0352 9.33345C12.4849 9.33345 11.2282 8.07671 11.2282 6.52643ZM21.7544 3.71941C20.2041 3.71941 18.9474 4.97615 18.9474 6.52643C18.9474 8.07671 20.2041 9.33345 21.7544 9.33345C23.3046 9.33345 24.5614 8.07671 24.5614 6.52643C24.5614 4.97615 23.3046 3.71941 21.7544 3.71941Z" fill="#181D27"/>
<path d="M49.7216 25V7.54545H56.4034C57.6648 7.54545 58.7131 7.74432 59.5483 8.14204C60.3892 8.53409 61.017 9.07102 61.4318 9.75284C61.8523 10.4347 62.0625 11.2074 62.0625 12.071C62.0625 12.7812 61.9261 13.3892 61.6534 13.8949C61.3807 14.3949 61.0142 14.8011 60.554 15.1136C60.0938 15.4261 59.5795 15.6506 59.0114 15.7869V15.9574C59.6307 15.9915 60.2244 16.1818 60.7926 16.5284C61.3665 16.8693 61.8352 17.3523 62.1989 17.9773C62.5625 18.6023 62.7443 19.358 62.7443 20.2443C62.7443 21.1477 62.5256 21.9602 62.0881 22.6818C61.6506 23.3977 60.9915 23.9631 60.1108 24.3778C59.2301 24.7926 58.1222 25 56.7869 25H49.7216ZM52.8835 22.358H56.2841C57.4318 22.358 58.2585 22.1392 58.7642 21.7017C59.2756 21.2585 59.5312 20.6903 59.5312 19.9972C59.5312 19.4801 59.4034 19.0142 59.1477 18.5994C58.892 18.179 58.5284 17.8494 58.0568 17.6108C57.5852 17.3665 57.0227 17.2443 56.3693 17.2443H52.8835V22.358ZM52.8835 14.9688H56.0114C56.5568 14.9688 57.0483 14.8693 57.4858 14.6705C57.9233 14.4659 58.267 14.179 58.517 13.8097C58.7727 13.4347 58.9006 12.9915 58.9006 12.4801C58.9006 11.804 58.6619 11.2472 58.1847 10.8097C57.7131 10.3722 57.0114 10.1534 56.0795 10.1534H52.8835V14.9688ZM69.1257 25.2642C68.2962 25.2642 67.549 25.1165 66.8842 24.821C66.2251 24.5199 65.7024 24.0767 65.3161 23.4915C64.9354 22.9062 64.745 22.1847 64.745 21.3267C64.745 20.5881 64.8814 19.9773 65.1541 19.4943C65.4268 19.0114 65.799 18.625 66.2706 18.3352C66.7422 18.0455 67.2734 17.8267 67.8643 17.679C68.4609 17.5256 69.0774 17.4148 69.7138 17.3466C70.4808 17.267 71.103 17.196 71.5803 17.1335C72.0575 17.0653 72.4041 16.9631 72.62 16.8267C72.8416 16.6847 72.9524 16.4659 72.9524 16.1705V16.1193C72.9524 15.4773 72.7621 14.9801 72.3814 14.6278C72.0007 14.2756 71.4524 14.0994 70.7365 14.0994C69.9808 14.0994 69.3814 14.2642 68.9382 14.5938C68.5007 14.9233 68.2053 15.3125 68.0518 15.7614L65.1712 15.3523C65.3984 14.5568 65.7734 13.892 66.2962 13.358C66.8189 12.8182 67.4581 12.4148 68.2138 12.1477C68.9695 11.875 69.8047 11.7386 70.7195 11.7386C71.3501 11.7386 71.978 11.8125 72.603 11.9602C73.228 12.108 73.799 12.3523 74.3161 12.6932C74.8331 13.0284 75.2479 13.4858 75.5604 14.0653C75.8786 14.6449 76.0376 15.3693 76.0376 16.2386V25H73.0717V23.2017H72.9695C72.782 23.5653 72.5178 23.9062 72.1768 24.2244C71.8416 24.5369 71.4183 24.7898 70.907 24.983C70.4013 25.1705 69.8075 25.2642 69.1257 25.2642ZM69.9268 22.9972C70.5462 22.9972 71.0831 22.875 71.5376 22.6307C71.9922 22.3807 72.3416 22.0511 72.5859 21.642C72.8359 21.233 72.9609 20.7869 72.9609 20.304V18.7614C72.8643 18.8409 72.6996 18.9148 72.4666 18.983C72.2393 19.0511 71.9837 19.1108 71.6996 19.1619C71.4155 19.2131 71.1342 19.2585 70.8558 19.2983C70.5774 19.3381 70.3359 19.3722 70.1314 19.4006C69.6712 19.4631 69.2592 19.5653 68.8956 19.7074C68.532 19.8494 68.245 20.0483 68.0348 20.304C67.8246 20.554 67.7195 20.8778 67.7195 21.2756C67.7195 21.8438 67.9268 22.2727 68.3416 22.5625C68.7564 22.8523 69.2848 22.9972 69.9268 22.9972ZM78.9695 25V23.0398L85.7195 14.5767V14.4659H79.1911V11.9091H89.495V14.0142L83.0689 22.3324V22.4432H89.7166V25H78.9695ZM92.7528 25V7.54545H99.2983C100.639 7.54545 101.764 7.79545 102.673 8.29545C103.588 8.79545 104.278 9.48295 104.744 10.358C105.216 11.2273 105.452 12.2159 105.452 13.3239C105.452 14.4432 105.216 15.4375 104.744 16.3068C104.273 17.1761 103.577 17.8608 102.656 18.3608C101.736 18.8551 100.602 19.1023 99.2557 19.1023H94.9176V16.5028H98.8295C99.6136 16.5028 100.256 16.3665 100.756 16.0938C101.256 15.821 101.625 15.446 101.864 14.9688C102.108 14.4915 102.23 13.9432 102.23 13.3239C102.23 12.7045 102.108 12.1591 101.864 11.6875C101.625 11.2159 101.253 10.8494 100.747 10.5881C100.247 10.321 99.6023 10.1875 98.8125 10.1875H95.9148V25H92.7528ZM111.594 25.2642C110.765 25.2642 110.018 25.1165 109.353 24.821C108.694 24.5199 108.171 24.0767 107.785 23.4915C107.404 22.9062 107.214 22.1847 107.214 21.3267C107.214 20.5881 107.35 19.9773 107.623 19.4943C107.896 19.0114 108.268 18.625 108.739 18.3352C109.211 18.0455 109.742 17.8267 110.333 17.679C110.93 17.5256 111.546 17.4148 112.183 17.3466C112.95 17.267 113.572 17.196 114.049 17.1335C114.526 17.0653 114.873 16.9631 115.089 16.8267C115.31 16.6847 115.421 16.4659 115.421 16.1705V16.1193C115.421 15.4773 115.231 14.9801 114.85 14.6278C114.469 14.2756 113.921 14.0994 113.205 14.0994C112.45 14.0994 111.85 14.2642 111.407 14.5938C110.969 14.9233 110.674 15.3125 110.521 15.7614L107.64 15.3523C107.867 14.5568 108.242 13.892 108.765 13.358C109.288 12.8182 109.927 12.4148 110.683 12.1477C111.438 11.875 112.273 11.7386 113.188 11.7386C113.819 11.7386 114.447 11.8125 115.072 11.9602C115.697 12.108 116.268 12.3523 116.785 12.6932C117.302 13.0284 117.717 13.4858 118.029 14.0653C118.347 14.6449 118.506 15.3693 118.506 16.2386V25H115.54V23.2017H115.438C115.251 23.5653 114.987 23.9062 114.646 24.2244C114.31 24.5369 113.887 24.7898 113.376 24.983C112.87 25.1705 112.276 25.2642 111.594 25.2642ZM112.396 22.9972C113.015 22.9972 113.552 22.875 114.006 22.6307C114.461 22.3807 114.81 22.0511 115.055 21.642C115.305 21.233 115.43 20.7869 115.43 20.304V18.7614C115.333 18.8409 115.168 18.9148 114.935 18.983C114.708 19.0511 114.452 19.1108 114.168 19.1619C113.884 19.2131 113.603 19.2585 113.325 19.2983C113.046 19.3381 112.805 19.3722 112.6 19.4006C112.14 19.4631 111.728 19.5653 111.364 19.7074C111.001 19.8494 110.714 20.0483 110.504 20.304C110.293 20.554 110.188 20.8778 110.188 21.2756C110.188 21.8438 110.396 22.2727 110.81 22.5625C111.225 22.8523 111.754 22.9972 112.396 22.9972ZM123.058 29.9091C122.637 29.9091 122.248 29.875 121.89 29.8068C121.538 29.7443 121.256 29.6705 121.046 29.5852L121.762 27.1818C122.211 27.3125 122.612 27.375 122.964 27.3693C123.316 27.3636 123.626 27.2528 123.893 27.0369C124.165 26.8267 124.396 26.4744 124.583 25.9801L124.847 25.2727L120.1 11.9091H123.373L126.39 21.7955H126.526L129.552 11.9091H132.833L127.592 26.5852C127.347 27.2784 127.023 27.8722 126.62 28.3665C126.217 28.8665 125.722 29.2472 125.137 29.5085C124.558 29.7756 123.864 29.9091 123.058 29.9091Z" fill="#181D27"/>
</svg>
