<svg width="60" height="60" viewBox="0 0 60 60" fill="none" xmlns="http://www.w3.org/2000/svg">
<path d="M0 16C0 7.16344 7.16344 0 16 0H44C52.8366 0 60 7.16344 60 16V44C60 52.8366 52.8366 60 44 60H16C7.16344 60 0 52.8366 0 44V16Z" fill="#BCFC6A"/>
<path d="M30.4563 18.1298V19.2091C30.3055 19.2012 30.1534 19.1973 30 19.1973C29.8466 19.1973 29.6945 19.2012 29.5438 19.2091V18.1298V17.1514C29.5438 16.9936 29.5761 16.9239 29.6742 16.8256C29.7725 16.7274 29.8422 16.6951 30 16.6951C30.1578 16.6951 30.2275 16.7274 30.3258 16.8256C30.4239 16.9239 30.4563 16.9936 30.4563 17.1514V18.1298Z" fill="#181D27" stroke="#181D27" stroke-width="4"/>
</svg>
