<svg width="48" height="48" viewBox="0 0 48 48" fill="none" xmlns="http://www.w3.org/2000/svg">
<rect width="48" height="48" rx="7.68" fill="#F8F6FC"/>
<g clip-path="url(#clip0_20819_1466)">
<path d="M27.2508 18.5837H20.7508C20.1762 18.5837 19.6251 18.812 19.2188 19.2183C18.8124 19.6246 18.5842 20.1757 18.5842 20.7503V27.2503C18.5842 27.825 18.8124 28.3761 19.2188 28.7824C19.6251 29.1887 20.1762 29.417 20.7508 29.417H27.2508C27.8255 29.417 28.3766 29.1887 28.7829 28.7824C29.1892 28.3761 29.4175 27.825 29.4175 27.2503V20.7503C29.4175 20.1757 29.1892 19.6246 28.7829 19.2183C28.3766 18.812 27.8255 18.5837 27.2508 18.5837Z" fill="#181D27"/>
<path d="M15.3336 18.5837C15.6097 18.584 15.8753 18.6897 16.0761 18.8793C16.2769 19.0688 16.3977 19.3279 16.4139 19.6035C16.4301 19.8792 16.3404 20.1506 16.1632 20.3623C15.9859 20.5741 15.7346 20.7102 15.4604 20.7428L15.3336 20.7503H14.2503C13.9742 20.75 13.7086 20.6443 13.5078 20.4548C13.307 20.2652 13.1862 20.0061 13.17 19.7305C13.1538 19.4549 13.2435 19.1834 13.4207 18.9717C13.598 18.76 13.8493 18.6239 14.1235 18.5913L14.2503 18.5837H15.3336Z" fill="#181D27"/>
<path d="M15.3336 27.2502C15.6097 27.2505 15.8753 27.3562 16.0761 27.5458C16.2769 27.7353 16.3977 27.9944 16.4139 28.27C16.4301 28.5457 16.3404 28.8171 16.1632 29.0288C15.9859 29.2406 15.7346 29.3767 15.4604 29.4093L15.3336 29.4168H14.2503C13.9742 29.4165 13.7086 29.3108 13.5078 29.1213C13.307 28.9317 13.1862 28.6727 13.17 28.397C13.1538 28.1214 13.2435 27.8499 13.4207 27.6382C13.598 27.4265 13.8493 27.2904 14.1235 27.2578L14.2503 27.2502H15.3336Z" fill="#181D27"/>
<path d="M19.6675 13.1667C19.9328 13.1667 20.1889 13.2641 20.3872 13.4405C20.5855 13.6168 20.7122 13.8597 20.7433 14.1233L20.7508 14.25V15.3334C20.7505 15.6095 20.6448 15.8751 20.4552 16.0758C20.2657 16.2766 20.0066 16.3974 19.731 16.4136C19.4553 16.4298 19.1839 16.3401 18.9722 16.1629C18.7604 15.9857 18.6244 15.7343 18.5918 15.4601L18.5842 15.3334V14.25C18.5842 13.9627 18.6983 13.6872 18.9015 13.484C19.1046 13.2808 19.3802 13.1667 19.6675 13.1667Z" fill="#181D27"/>
<path d="M28.3335 13.1663C28.5989 13.1664 28.855 13.2638 29.0533 13.4401C29.2515 13.6164 29.3782 13.8594 29.4093 14.1229L29.4168 14.2497V15.333C29.4165 15.6091 29.3108 15.8747 29.1213 16.0755C28.9317 16.2763 28.6727 16.3971 28.397 16.4133C28.1214 16.4294 27.8499 16.3398 27.6382 16.1625C27.4265 15.9853 27.2904 15.7339 27.2578 15.4597L27.2502 15.333V14.2497C27.2502 13.9623 27.3643 13.6868 27.5675 13.4836C27.7706 13.2805 28.0462 13.1663 28.3335 13.1663Z" fill="#181D27"/>
<path d="M33.7496 18.5837C34.0258 18.584 34.2913 18.6897 34.4921 18.8793C34.6929 19.0688 34.8137 19.3279 34.8299 19.6035C34.8461 19.8792 34.7564 20.1506 34.5792 20.3623C34.402 20.5741 34.1506 20.7102 33.8764 20.7428L33.7496 20.7503H32.6663C32.3902 20.75 32.1246 20.6443 31.9238 20.4548C31.723 20.2652 31.6022 20.0061 31.586 19.7305C31.5698 19.4549 31.6595 19.1834 31.8368 18.9717C32.014 18.76 32.2654 18.6239 32.5395 18.5913L32.6663 18.5837H33.7496Z" fill="#181D27"/>
<path d="M33.7496 27.2502C34.0258 27.2505 34.2913 27.3562 34.4921 27.5458C34.6929 27.7353 34.8137 27.9944 34.8299 28.27C34.8461 28.5457 34.7564 28.8171 34.5792 29.0288C34.402 29.2406 34.1506 29.3767 33.8764 29.4093L33.7496 29.4168H32.6663C32.3902 29.4165 32.1246 29.3108 31.9238 29.1213C31.723 28.9317 31.6022 28.6727 31.586 28.397C31.5698 28.1214 31.6595 27.8499 31.8368 27.6382C32.014 27.4265 32.2654 27.2904 32.5395 27.2578L32.6663 27.2502H33.7496Z" fill="#181D27"/>
<path d="M19.6675 31.5837C19.9328 31.5837 20.1889 31.6811 20.3872 31.8575C20.5855 32.0338 20.7122 32.2767 20.7433 32.5403L20.7508 32.667V33.7503C20.7505 34.0265 20.6448 34.292 20.4552 34.4928C20.2657 34.6936 20.0066 34.8144 19.731 34.8306C19.4553 34.8468 19.1839 34.7571 18.9722 34.5799C18.7604 34.4027 18.6244 34.1513 18.5918 33.8771L18.5842 33.7503V32.667C18.5842 32.3797 18.6983 32.1041 18.9015 31.901C19.1046 31.6978 19.3802 31.5837 19.6675 31.5837Z" fill="#181D27"/>
<path d="M28.3335 31.5834C28.5989 31.5835 28.855 31.6809 29.0533 31.8572C29.2515 32.0335 29.3782 32.2765 29.4093 32.54L29.4168 32.6668V33.7501C29.4165 34.0262 29.3108 34.2918 29.1213 34.4926C28.9317 34.6934 28.6727 34.8142 28.397 34.8304C28.1214 34.8466 27.8499 34.7569 27.6382 34.5796C27.4265 34.4024 27.2904 34.151 27.2578 33.8769L27.2502 33.7501V32.6668C27.2502 32.3795 27.3643 32.1039 27.5675 31.9007C27.7706 31.6976 28.0462 31.5834 28.3335 31.5834Z" fill="#181D27"/>
</g>
<defs>
<clipPath id="clip0_20819_1466">
<rect width="26" height="26" fill="white" transform="translate(11.0002 11.0002)"/>
</clipPath>
</defs>
</svg>
