<svg width="62" height="62" viewBox="0 0 62 62" fill="none" xmlns="http://www.w3.org/2000/svg">
<path d="M9 0.5C4.30558 0.5 0.5 4.30558 0.5 9V53C0.5 57.6944 4.30558 61.5 9 61.5H53C57.6944 61.5 61.5 57.6944 61.5 53V9C61.5 4.30558 57.6944 0.5 53 0.5H9Z" fill="#F0EEF4"/>
<path d="M9 0.5C4.30558 0.5 0.5 4.30558 0.5 9V53C0.5 57.6944 4.30558 61.5 9 61.5H53C57.6944 61.5 61.5 57.6944 61.5 53V9C61.5 4.30558 57.6944 0.5 53 0.5H9Z" stroke="#E9EAEB"/>
<g clip-path="url(#clip0_96_4247)">
<path d="M42.916 16.963L31 13.0135L19.084 16.963C18.1862 17.2606 17.405 17.8336 16.8514 18.6004C16.2978 19.3673 15.9999 20.2892 16 21.235V31C16 42.286 29.8 48.5185 30.391 48.778L30.922 49.0135L31.474 48.8305C32.068 48.6325 46 43.8655 46 31V21.235C46.0001 20.2892 45.7022 19.3673 45.1486 18.6004C44.595 17.8336 43.8138 17.2606 42.916 16.963ZM31.666 33.9835C31.4038 34.2475 31.0917 34.4567 30.748 34.5991C30.4042 34.7415 30.0356 34.8142 29.6635 34.813H29.614C29.2343 34.8072 28.8598 34.7244 28.513 34.5697C28.1663 34.415 27.8545 34.1916 27.5965 33.913L24.1375 30.313L26.302 28.24L29.668 31.75L37.4395 23.9785L39.5605 26.0995L31.666 33.9835Z" fill="#6BC33F"/>
</g>
<defs>
<clipPath id="clip0_96_4247">
<rect width="36" height="36" fill="white" transform="translate(13 13)"/>
</clipPath>
</defs>
</svg>
