<svg width="36" height="36" viewBox="0 0 36 36" fill="none" xmlns="http://www.w3.org/2000/svg">
<g clip-path="url(#clip0_128_8098)">
<path d="M36.0001 18C36.0001 15.561 34.9291 13.26 33.1126 11.814C33.3226 9.38099 32.4526 6.99749 30.7276 5.27099C29.0026 3.54749 26.6251 2.67899 24.3121 2.93849C21.2911 -0.895513 14.7646 -0.967513 11.8141 2.88599C9.37809 2.66999 6.99759 3.54449 5.27259 5.27099C3.54909 6.99599 2.67909 9.38099 2.94009 11.6865C-0.893908 14.7075 -0.967408 21.234 2.88759 24.186C2.67759 26.619 3.54759 29.0025 5.27259 30.729C6.99759 32.4525 9.37809 33.324 11.6881 33.0615C14.7091 36.8955 21.2356 36.9675 24.1861 33.114C26.6161 33.318 29.0011 32.4555 30.7276 30.729C32.4511 29.004 33.3211 26.619 33.0601 24.3135C34.9291 22.7415 36.0001 20.4405 36.0001 18.0015V18ZM26.3101 15.849L19.2016 22.701C17.4571 24.4425 14.6026 24.4275 12.8581 22.6815L9.48009 19.5435C8.87409 18.9795 8.83809 18.03 9.40209 17.424C9.96759 16.8165 10.9186 16.7835 11.5216 17.346L14.9386 20.5215C15.5656 21.147 16.5136 21.1455 17.0986 20.559L24.2266 13.6875C24.8236 13.1145 25.7731 13.131 26.3476 13.7265C26.9236 14.322 26.9056 15.273 26.3101 15.8475V15.849Z" fill="#6BC33F"/>
</g>
<defs>
<clipPath id="clip0_128_8098">
<rect width="36" height="36" fill="white"/>
</clipPath>
</defs>
</svg>
