<svg width="62" height="62" viewBox="0 0 62 62" fill="none" xmlns="http://www.w3.org/2000/svg">
<path d="M53 0.5C57.6944 0.5 61.5 4.30558 61.5 9V53C61.5 57.6944 57.6944 61.5 53 61.5H9C4.30558 61.5 0.5 57.6944 0.5 53V9C0.5 4.30558 4.30558 0.5 9 0.5H53Z" fill="#F0EEF4"/>
<path d="M53 0.5C57.6944 0.5 61.5 4.30558 61.5 9V53C61.5 57.6944 57.6944 61.5 53 61.5H9C4.30558 61.5 0.5 57.6944 0.5 53V9C0.5 4.30558 4.30558 0.5 9 0.5H53Z" stroke="#E9EAEB"/>
<g clip-path="url(#clip0_96_4264)">
<path d="M49.0001 31C49.0001 28.561 47.9291 26.26 46.1126 24.814C46.3226 22.381 45.4526 19.9975 43.7276 18.271C42.0026 16.5475 39.6251 15.679 37.3121 15.9385C34.2911 12.1045 27.7646 12.0325 24.8141 15.886C22.3781 15.67 19.9976 16.5445 18.2726 18.271C16.5491 19.996 15.6791 22.381 15.9401 24.6865C12.1061 27.7075 12.0326 34.234 15.8876 37.186C15.6776 39.619 16.5476 42.0025 18.2726 43.729C19.9976 45.4525 22.3781 46.324 24.6881 46.0615C27.7091 49.8955 34.2356 49.9675 37.1861 46.114C39.6161 46.318 42.0011 45.4555 43.7276 43.729C45.4511 42.004 46.3211 39.619 46.0601 37.3135C47.9291 35.7415 49.0001 33.4405 49.0001 31.0015V31ZM39.3101 28.849L32.2016 35.701C30.4571 37.4425 27.6026 37.4275 25.8581 35.6815L22.4801 32.5435C21.8741 31.9795 21.8381 31.03 22.4021 30.424C22.9676 29.8165 23.9186 29.7835 24.5216 30.346L27.9386 33.5215C28.5656 34.147 29.5136 34.1455 30.0986 33.559L37.2266 26.6875C37.8236 26.1145 38.7731 26.131 39.3476 26.7265C39.9236 27.322 39.9056 28.273 39.3101 28.8475V28.849Z" fill="#6BC33F"/>
</g>
<defs>
<clipPath id="clip0_96_4264">
<rect width="36" height="36" fill="white" transform="translate(13 13)"/>
</clipPath>
</defs>
</svg>
