<svg width="24" height="24" viewBox="0 0 24 24" fill="none" xmlns="http://www.w3.org/2000/svg">
<path d="M0 12C0 5.37258 5.37258 0 12 0V0C18.6274 0 24 5.37258 24 12V12C24 18.6274 18.6274 24 12 24V24C5.37258 24 0 18.6274 0 12V12Z" fill="#6BC33F"/>
<g clip-path="url(#clip0_20820_8191)">
<path fill-rule="evenodd" clip-rule="evenodd" d="M13.9727 17.5L11.198 13.5451L7.72443 17.5H6.25488L10.546 12.6155L6.25488 6.5H10.0279L12.643 10.2275L15.9196 6.5H17.3892L13.2972 11.1582L17.7457 17.5H13.9727ZM15.6092 16.385H14.6199L8.35906 7.615H9.34855L11.8561 11.1266L12.2897 11.7359L15.6092 16.385Z" fill="#FAFAFA"/>
</g>
<defs>
<clipPath id="clip0_20820_8191">
<rect width="12" height="12" fill="white" transform="translate(6 6)"/>
</clipPath>
</defs>
</svg>
