<svg width="60" height="60" viewBox="0 0 60 60" fill="none" xmlns="http://www.w3.org/2000/svg">
<path d="M0 16C0 7.16344 7.16344 0 16 0H44C52.8366 0 60 7.16344 60 16V44C60 52.8366 52.8366 60 44 60H16C7.16344 60 0 52.8366 0 44V16Z" fill="#181D27"/>
<path d="M30 45C38.2843 45 45 38.2843 45 30C45 21.7157 38.2843 15 30 15C21.7157 15 15 21.7157 15 30C15 38.2843 21.7157 45 30 45Z" stroke="#FAFAFA" stroke-width="3.375" stroke-linecap="round" stroke-linejoin="round"/>
<path d="M33.465 24L42.075 38.91" stroke="#FAFAFA" stroke-width="3.375" stroke-linecap="round" stroke-linejoin="round"/>
<path d="M26.535 24H43.755" stroke="#FAFAFA" stroke-width="3.375" stroke-linecap="round" stroke-linejoin="round"/>
<path d="M23.07 30L31.68 15.09" stroke="#FAFAFA" stroke-width="3.375" stroke-linecap="round" stroke-linejoin="round"/>
<path d="M26.535 36L17.925 21.09" stroke="#FAFAFA" stroke-width="3.375" stroke-linecap="round" stroke-linejoin="round"/>
<path d="M33.465 36H16.245" stroke="#FAFAFA" stroke-width="3.375" stroke-linecap="round" stroke-linejoin="round"/>
<path d="M36.93 30L28.32 44.91" stroke="#FAFAFA" stroke-width="3.375" stroke-linecap="round" stroke-linejoin="round"/>
</svg>
